<svg width="1032" height="688" viewBox="0 0 1032 688" fill="none" xmlns="http://www.w3.org/2000/svg">
<rect width="1032" height="688" fill="#374B3C"/>
<g clip-path="url(#clip0_8769_207)">
<g filter="url(#filter0_d_8769_207)">
<path d="M22.8652 543.451C80.6757 543.451 62.9837 543.451 170.898 543.451C278.812 543.451 243.509 358.494 332.87 380.877C422.231 403.26 475.186 352.948 545.792 300.813C616.398 248.678 703.82 447.63 770.431 380.877C837.042 314.124 811.514 200.98 854.694 200.98C897.874 200.98 1010.25 200.98 1010.25 200.98" stroke="#A5C686" stroke-width="17.7907" stroke-linecap="round"/>
</g>
<path d="M72.9004 514.541C128.628 514.541 62.2759 514.541 166.301 514.541C270.327 514.541 210.255 404.178 296.396 423.364C382.536 442.549 438.486 333.509 506.548 288.822C574.61 244.135 624.692 447.223 688.903 390.006C753.113 332.789 821.85 233.226 863.474 233.226C905.098 233.226 1000.24 233.226 1000.24 233.226" stroke="#F6F9F2" stroke-opacity="0.3" stroke-width="8.89534" stroke-linecap="round"/>
<path d="M70.5645 570.137C126.36 570.137 59.927 570.137 164.08 570.137C268.232 570.137 209.041 325.901 295.287 352.201C381.533 378.501 466.204 413.461 534.349 352.201C602.494 290.941 650.191 411.735 714.48 333.298C778.769 254.862 825.138 269.919 866.812 269.919C908.487 269.919 955.766 157.615 955.766 157.615" stroke="#F5DAA3" stroke-opacity="0.3" stroke-width="8.89534" stroke-linecap="round"/>
<path d="M74.0137 597.935C129.741 597.935 95.6348 473.4 199.66 473.4C303.686 473.4 256.957 305.218 343.098 324.403C429.238 343.589 419.82 367.768 457.625 407.797C495.43 447.826 567.986 334.919 632.196 277.703C696.407 220.486 790.089 362.208 822.334 379.999C854.58 397.79 949.093 119.81 949.093 119.81" stroke="#F6F9F2" stroke-opacity="0.3" stroke-width="8.89534" stroke-linecap="round"/>
<path d="M1004.69 253.24C963.013 253.24 912.196 237.071 847.907 315.508C783.618 393.944 733.698 246.465 665.553 307.724C597.408 368.984 470.967 359.597 392.021 335.522C313.075 311.448 280.829 524.548 248.584 547.898C216.338 571.249 138.703 488.967 82.9082 488.967" stroke="#F5DAA3" stroke-opacity="0.3" stroke-width="8.89534" stroke-linecap="round"/>
<path d="M13.7464 637.711L27.7565 606.577H33.4495L47.5042 637.711H41.4554L29.4022 609.646H31.715L19.7062 637.711H13.7464ZM20.1955 630.506L21.7522 625.969H38.5644L40.121 630.506H20.1955Z" fill="#A5C686"/>
<path d="M987.741 290.793V259.659H1002.33C1006.07 259.659 1008.91 260.4 1010.87 261.883C1012.83 263.336 1013.8 265.293 1013.8 267.754C1013.8 269.414 1013.42 270.838 1012.65 272.024C1011.88 273.18 1010.84 274.084 1009.53 274.737C1008.26 275.359 1006.87 275.671 1005.35 275.671L1006.15 274.069C1007.9 274.069 1009.48 274.396 1010.87 275.048C1012.26 275.671 1013.36 276.59 1014.16 277.806C1014.99 279.021 1015.41 280.533 1015.41 282.342C1015.41 285.011 1014.38 287.086 1012.34 288.569C1010.29 290.051 1007.25 290.793 1003.22 290.793H987.741ZM993.523 286.256H1002.86C1005.03 286.256 1006.69 285.9 1007.84 285.189C1009 284.477 1009.58 283.335 1009.58 281.764C1009.58 280.222 1009 279.095 1007.84 278.384C1006.69 277.642 1005.03 277.272 1002.86 277.272H993.079V272.78H1001.71C1003.72 272.78 1005.27 272.424 1006.33 271.712C1007.43 271.001 1007.98 269.933 1007.98 268.51C1007.98 267.057 1007.43 265.975 1006.33 265.263C1005.27 264.551 1003.72 264.196 1001.71 264.196H993.523V286.256Z" fill="#A5C686"/>
</g>
<defs>
<filter id="filter0_d_8769_207" x="5.07536" y="192.085" width="1022.96" height="378.052" filterUnits="userSpaceOnUse" color-interpolation-filters="sRGB">
<feFlood flood-opacity="0" result="BackgroundImageFix"/>
<feColorMatrix in="SourceAlpha" type="matrix" values="0 0 0 0 0 0 0 0 0 0 0 0 0 0 0 0 0 0 127 0" result="hardAlpha"/>
<feOffset dy="8.89534"/>
<feGaussianBlur stdDeviation="4.44767"/>
<feComposite in2="hardAlpha" operator="out"/>
<feColorMatrix type="matrix" values="0 0 0 0 0.584314 0 0 0 0 0.729412 0 0 0 0 0.447059 0 0 0 0.3 0"/>
<feBlend mode="normal" in2="BackgroundImageFix" result="effect1_dropShadow_8769_207"/>
<feBlend mode="normal" in="SourceGraphic" in2="effect1_dropShadow_8769_207" result="shape"/>
</filter>
<clipPath id="clip0_8769_207">
<rect width="1032" height="688" fill="white"/>
</clipPath>
</defs>
</svg>
