<?xml version="1.0" encoding="UTF-8" standalone="no"?>
<!DOCTYPE svg PUBLIC "-//W3C//DTD SVG 1.1//EN" "http://www.w3.org/Graphics/SVG/1.1/DTD/svg11.dtd">
<svg width="100%" height="100%" viewBox="0 0 292 292" version="1.1" xmlns="http://www.w3.org/2000/svg" xmlns:xlink="http://www.w3.org/1999/xlink" xml:space="preserve" xmlns:serif="http://www.serif.com/" style="fill-rule:evenodd;clip-rule:evenodd;stroke-linejoin:round;stroke-miterlimit:2;">
    <g transform="matrix(1,0,0,1,-882.518357,-745.854951)">
        <g>
            <g transform="matrix(1,0,0,1,1028.518357,891.854951)">
                <g transform="matrix(1,0,0,1,-146,-146)">
                    <path d="M291.81,145.57C291.81,225.912 226.582,291.14 146.24,291.14L145.57,291.14C65.228,291.14 0,225.912 0,145.57C0,65.228 65.228,0 145.57,0L146.24,0C226.582,0 291.81,65.228 291.81,145.57Z" style="fill:rgb(246,249,242);"/>
                    <path d="M79.623,153.212L95.518,117.572L97.388,120.762L75.553,120.762L78.963,117.297L78.963,127.307L72.308,127.307L72.308,114.712L102.228,114.712L102.228,119.497L87.268,153.212L79.623,153.212ZM121.636,153.762C118.592,153.762 115.842,152.992 113.386,151.452C110.966,149.912 109.059,147.675 107.666,144.742C106.272,141.772 105.576,138.179 105.576,133.962C105.576,129.745 106.272,126.17 107.666,123.237C109.059,120.267 110.966,118.012 113.386,116.472C115.842,114.932 118.592,114.162 121.636,114.162C124.716,114.162 127.466,114.932 129.886,116.472C132.306,118.012 134.212,120.267 135.606,123.237C137.036,126.17 137.751,129.745 137.751,133.962C137.751,138.179 137.036,141.772 135.606,144.742C134.212,147.675 132.306,149.912 129.886,151.452C127.466,152.992 124.716,153.762 121.636,153.762ZM121.636,147.547C123.432,147.547 124.991,147.07 126.311,146.117C127.631,145.127 128.657,143.624 129.391,141.607C130.161,139.59 130.546,137.042 130.546,133.962C130.546,130.845 130.161,128.297 129.391,126.317C128.657,124.3 127.631,122.815 126.311,121.862C124.991,120.872 123.432,120.377 121.636,120.377C119.912,120.377 118.372,120.872 117.016,121.862C115.696,122.815 114.651,124.3 113.881,126.317C113.147,128.297 112.781,130.845 112.781,133.962C112.781,137.042 113.147,139.59 113.881,141.607C114.651,143.624 115.696,145.127 117.016,146.117C118.372,147.07 119.912,147.547 121.636,147.547ZM147.973,153.212L174.263,114.712L179.653,114.712L153.363,153.212L147.973,153.212ZM151.163,135.447C149.366,135.447 147.771,135.007 146.378,134.127C144.984,133.247 143.903,132.019 143.133,130.442C142.363,128.865 141.978,127.014 141.978,124.887C141.978,122.76 142.363,120.909 143.133,119.332C143.903,117.755 144.984,116.527 146.378,115.647C147.771,114.767 149.366,114.327 151.163,114.327C153.033,114.327 154.646,114.767 156.003,115.647C157.396,116.527 158.478,117.755 159.248,119.332C160.018,120.909 160.403,122.76 160.403,124.887C160.403,127.014 160.018,128.865 159.248,130.442C158.478,132.019 157.396,133.247 156.003,134.127C154.646,135.007 153.033,135.447 151.163,135.447ZM151.218,131.597C152.684,131.597 153.821,131.029 154.628,129.892C155.471,128.719 155.893,127.05 155.893,124.887C155.893,122.724 155.471,121.074 154.628,119.937C153.821,118.764 152.684,118.177 151.218,118.177C149.751,118.177 148.578,118.764 147.698,119.937C146.854,121.11 146.433,122.76 146.433,124.887C146.433,127.014 146.854,128.664 147.698,129.837C148.578,131.01 149.751,131.597 151.218,131.597ZM176.408,153.597C174.611,153.597 173.016,153.157 171.623,152.277C170.229,151.397 169.148,150.169 168.378,148.592C167.608,147.015 167.223,145.164 167.223,143.037C167.223,140.91 167.608,139.059 168.378,137.482C169.148,135.905 170.229,134.677 171.623,133.797C173.016,132.917 174.611,132.477 176.408,132.477C178.278,132.477 179.891,132.917 181.248,133.797C182.641,134.677 183.723,135.905 184.493,137.482C185.263,139.059 185.648,140.91 185.648,143.037C185.648,145.164 185.263,147.015 184.493,148.592C183.723,150.169 182.641,151.397 181.248,152.277C179.891,153.157 178.278,153.597 176.408,153.597ZM176.408,149.747C177.874,149.747 179.029,149.16 179.873,147.987C180.716,146.814 181.138,145.164 181.138,143.037C181.138,140.91 180.716,139.26 179.873,138.087C179.029,136.914 177.874,136.327 176.408,136.327C174.978,136.327 173.823,136.914 172.943,138.087C172.099,139.224 171.678,140.874 171.678,143.037C171.678,145.2 172.099,146.869 172.943,148.042C173.823,149.179 174.978,149.747 176.408,149.747ZM201.866,146.337L201.866,121.587L207.751,121.587L207.751,146.337L201.866,146.337ZM192.131,136.712L192.131,131.212L217.486,131.212L217.486,136.712L192.131,136.712Z" style="fill:rgb(55,75,60);fill-rule:nonzero;"/>
                    <path d="M28.251,117.522C22.609,116.178 19.083,110.497 20.872,104.98C27.241,85.343 38.16,67.431 52.799,52.737C69.915,35.556 91.449,23.444 115.02,17.738C138.591,12.032 163.28,12.955 186.359,20.406C209.437,27.857 230.006,41.544 245.791,59.956C261.576,78.367 271.962,100.785 275.801,124.731C279.64,148.676 276.782,173.217 267.543,195.64C258.305,218.063 243.046,237.495 223.453,251.786C206.695,264.01 187.326,272.066 166.947,275.361C161.221,276.286 156.145,271.934 155.679,266.153L155.254,260.875C154.788,255.093 159.113,250.082 164.819,249.042C180.363,246.209 195.117,239.902 207.954,230.538C223.628,219.105 235.836,203.56 243.227,185.621C250.617,167.683 252.903,148.05 249.832,128.894C246.761,109.737 238.452,91.803 225.825,77.074C213.197,62.345 196.742,51.395 178.279,45.434C159.816,39.474 140.064,38.735 121.208,43.299C102.351,47.864 85.124,57.554 71.431,71.299C60.217,82.556 51.73,96.173 46.557,111.102C44.658,116.582 39.045,120.092 33.403,118.748L28.251,117.522Z" style="fill:rgb(55,75,60);fill-rule:nonzero;"/>
                    <path d="M266.923,145.428C272.724,145.428 277.469,150.137 277.007,155.919C275.36,176.497 268.886,196.451 258.048,214.136C245.377,234.814 227.234,251.585 205.626,262.595C184.017,273.605 159.785,278.425 135.608,276.522C111.432,274.62 88.252,266.068 68.632,251.813C49.012,237.559 33.716,218.156 24.436,195.751C15.155,173.345 12.251,148.81 16.045,124.857C19.838,100.904 30.182,78.466 45.932,60.025C59.403,44.253 76.38,31.93 95.442,24.005C100.797,21.778 106.743,24.836 108.535,30.352L110.172,35.388C111.964,40.905 108.917,46.782 103.607,49.115C89.142,55.471 76.251,65.023 65.931,77.106C53.331,91.859 45.056,109.808 42.021,128.971C38.986,148.133 41.309,167.762 48.734,185.686C56.158,203.61 68.395,219.133 84.091,230.536C99.787,241.94 118.33,248.781 137.672,250.303C157.013,251.826 176.399,247.97 193.686,239.162C210.972,230.354 225.486,216.937 235.624,200.395C243.926,186.846 249.027,171.634 250.602,155.913C251.18,150.141 255.828,145.428 261.628,145.428L266.923,145.428Z" style="fill:rgb(165,198,134);fill-rule:nonzero;"/>
                </g>
            </g>
            <g transform="matrix(1,0,0,1,879.844971,748.506326)">
                <g transform="matrix(18.917254,0,0,18.917254,224.75858,179.808728)">
                </g>
                <text x="72.096px" y="179.809px" style="font-family:'Poppins-Medium', 'Poppins';font-weight:500;font-size:18.917px;fill:rgb(55,75,60);">Improved Focus</text>
            </g>
        </g>
    </g>
</svg>
