<svg width="370" height="262" viewBox="0 0 370 262" fill="none" xmlns="http://www.w3.org/2000/svg">
<rect width="370" height="261.5" rx="27.5354" fill="#F6F9F2"/>
<path d="M185.419 40C169.288 40 156.25 53.0384 156.25 69.1687C156.25 85.2991 169.288 98.3375 185.419 98.3375C201.549 98.3375 214.587 85.2991 214.587 69.1687C214.587 53.0384 201.549 40 185.419 40Z" fill="#A5C686"/>
<path d="M151.25 120.014H218.75L192.796 65.2192C192.098 63.7426 190.994 62.4948 189.614 61.6209C188.234 60.7471 186.634 60.2832 185 60.2832C183.366 60.2832 181.766 60.7471 180.386 61.6209C179.006 62.4948 177.902 63.7426 177.204 65.2192L151.25 120.014Z" stroke="#374B3C" stroke-width="7.5" stroke-linecap="round" stroke-linejoin="round"/>
<path d="M168.125 86.2646L175.625 95.6396L185 86.2646L192.5 97.5146L201.875 90.0146" stroke="#374B3C" stroke-width="7.5" stroke-linecap="round" stroke-linejoin="round"/>
<path d="M55.4039 175.879C53.2585 175.879 51.4159 175.513 49.8762 174.781C48.3617 174.049 46.9861 172.951 45.7493 171.487L49.1568 168.079C49.9393 169.114 50.848 169.922 51.8828 170.502C52.9177 171.058 54.1798 171.335 55.669 171.335C57.0067 171.335 58.0668 171.07 58.8493 170.54C59.657 170.01 60.0609 169.278 60.0609 168.344C60.0609 167.537 59.8337 166.88 59.3794 166.375C58.925 165.871 58.3192 165.442 57.562 165.088C56.83 164.735 56.0097 164.419 55.101 164.142C54.2176 163.839 53.3216 163.498 52.4129 163.119C51.5295 162.741 50.7091 162.274 49.9519 161.719C49.2199 161.138 48.6268 160.406 48.1724 159.523C47.7181 158.614 47.4909 157.478 47.4909 156.115C47.4909 154.5 47.8822 153.124 48.6646 151.988C49.4471 150.852 50.5198 149.982 51.8828 149.376C53.2458 148.77 54.7855 148.467 56.5019 148.467C58.3192 148.467 59.9599 148.808 61.4239 149.489C62.8878 150.171 64.0868 151.054 65.0207 152.14L61.6132 155.547C60.8307 154.689 60.023 154.058 59.1901 153.654C58.3823 153.25 57.4611 153.048 56.4262 153.048C55.2399 153.048 54.306 153.275 53.6245 153.73C52.943 154.184 52.6022 154.84 52.6022 155.699C52.6022 156.431 52.8294 157.024 53.2837 157.478C53.738 157.932 54.3312 158.324 55.0632 158.652C55.8204 158.98 56.6407 159.295 57.5242 159.598C58.4328 159.901 59.3289 160.242 60.2123 160.621C61.121 160.999 61.9413 161.491 62.6733 162.097C63.4305 162.703 64.0363 163.485 64.4906 164.445C64.945 165.378 65.1721 166.54 65.1721 167.928C65.1721 170.401 64.3013 172.345 62.5597 173.758C60.8181 175.172 58.4328 175.879 55.4039 175.879ZM71.0155 175.5V149.603H75.9753V175.5H71.0155ZM66.7371 161.567V157.213H80.2536V161.567H66.7371ZM90.8151 175.879C88.9725 175.879 87.3066 175.462 85.8174 174.629C84.3535 173.771 83.1798 172.623 82.2963 171.184C81.4381 169.72 81.009 168.092 81.009 166.3C81.009 164.508 81.4381 162.905 82.2963 161.491C83.1545 160.053 84.3282 158.917 85.8174 158.084C87.3066 157.226 88.9599 156.797 90.7772 156.797C92.6451 156.797 94.3109 157.226 95.7749 158.084C97.2641 158.917 98.4378 160.053 99.296 161.491C100.154 162.905 100.583 164.508 100.583 166.3C100.583 168.092 100.154 169.72 99.296 171.184C98.4378 172.623 97.2641 173.771 95.7749 174.629C94.3109 175.462 92.6577 175.879 90.8151 175.879ZM90.7772 171.26C91.7111 171.26 92.5315 171.058 93.2382 170.654C93.9702 170.225 94.5255 169.644 94.9041 168.912C95.308 168.155 95.5099 167.297 95.5099 166.338C95.5099 165.378 95.308 164.533 94.9041 163.801C94.5003 163.069 93.945 162.501 93.2382 162.097C92.5315 161.668 91.7111 161.453 90.7772 161.453C89.8686 161.453 89.0609 161.668 88.3541 162.097C87.6474 162.501 87.0921 163.069 86.6882 163.801C86.2844 164.533 86.0824 165.378 86.0824 166.338C86.0824 167.297 86.2844 168.155 86.6882 168.912C87.0921 169.644 87.6474 170.225 88.3541 170.654C89.0609 171.058 89.8686 171.26 90.7772 171.26ZM115.703 175.5V165.012C115.703 163.927 115.362 163.044 114.68 162.362C113.999 161.681 113.115 161.34 112.03 161.34C111.323 161.34 110.692 161.491 110.137 161.794C109.582 162.097 109.14 162.526 108.812 163.082C108.509 163.637 108.358 164.28 108.358 165.012L106.427 164.028C106.427 162.589 106.73 161.34 107.335 160.28C107.966 159.194 108.825 158.349 109.91 157.743C111.02 157.137 112.27 156.834 113.658 156.834C114.996 156.834 116.195 157.175 117.255 157.857C118.315 158.513 119.148 159.384 119.754 160.469C120.36 161.529 120.662 162.678 120.662 163.914V175.5H115.703ZM103.398 175.5V157.213H108.358V175.5H103.398ZM133.025 175.879C131.107 175.879 129.403 175.475 127.914 174.667C126.425 173.834 125.238 172.698 124.355 171.26C123.497 169.821 123.068 168.18 123.068 166.338C123.068 164.52 123.484 162.905 124.317 161.491C125.175 160.053 126.336 158.917 127.8 158.084C129.264 157.226 130.892 156.797 132.684 156.797C134.451 156.797 136.003 157.2 137.341 158.008C138.704 158.791 139.764 159.876 140.522 161.264C141.304 162.627 141.695 164.18 141.695 165.921C141.695 166.249 141.67 166.59 141.62 166.943C141.594 167.271 141.531 167.65 141.43 168.079L126.059 168.117V164.407L139.121 164.369L137.114 165.921C137.064 164.836 136.862 163.927 136.508 163.195C136.18 162.463 135.688 161.908 135.032 161.529C134.401 161.125 133.618 160.923 132.684 160.923C131.7 160.923 130.842 161.151 130.11 161.605C129.378 162.034 128.81 162.652 128.406 163.46C128.027 164.243 127.838 165.177 127.838 166.262C127.838 167.372 128.04 168.344 128.444 169.177C128.873 169.985 129.479 170.616 130.261 171.07C131.044 171.499 131.952 171.714 132.987 171.714C133.921 171.714 134.767 171.562 135.524 171.26C136.281 170.931 136.937 170.452 137.493 169.821L140.408 172.736C139.525 173.771 138.439 174.553 137.152 175.084C135.89 175.614 134.514 175.879 133.025 175.879ZM145.123 168.079V163.574H158.223V168.079H145.123ZM175.66 175.879C173.767 175.879 171.987 175.538 170.322 174.856C168.681 174.15 167.23 173.165 165.968 171.903C164.731 170.641 163.759 169.19 163.052 167.549C162.371 165.883 162.03 164.091 162.03 162.173C162.03 160.229 162.383 158.437 163.09 156.797C163.797 155.131 164.781 153.679 166.043 152.443C167.305 151.18 168.782 150.209 170.473 149.527C172.164 148.82 173.994 148.467 175.963 148.467C178.159 148.467 180.178 148.884 182.021 149.717C183.863 150.524 185.39 151.673 186.602 153.162L183.119 156.645C182.286 155.56 181.251 154.727 180.014 154.146C178.777 153.566 177.414 153.275 175.925 153.275C174.234 153.275 172.732 153.654 171.42 154.411C170.132 155.143 169.123 156.178 168.391 157.516C167.659 158.828 167.293 160.368 167.293 162.135C167.293 163.902 167.646 165.467 168.353 166.83C169.085 168.168 170.069 169.215 171.306 169.972C172.568 170.729 174.007 171.108 175.622 171.108C177.288 171.108 178.714 170.805 179.9 170.199C181.087 169.568 181.995 168.66 182.626 167.473C183.257 166.262 183.573 164.785 183.573 163.044L186.943 165.353L175.319 165.24V160.772H188.874V161.491C188.874 164.672 188.306 167.335 187.17 169.48C186.034 171.6 184.469 173.203 182.475 174.288C180.506 175.349 178.235 175.879 175.66 175.879ZM191.915 175.5V157.213H196.874V175.5H191.915ZM196.874 165.391L194.943 164.104C195.171 161.857 195.827 160.09 196.912 158.803C197.998 157.491 199.563 156.834 201.607 156.834C202.49 156.834 203.286 156.986 203.992 157.289C204.699 157.566 205.343 158.033 205.923 158.69L202.819 162.249C202.541 161.946 202.2 161.719 201.796 161.567C201.418 161.416 200.976 161.34 200.471 161.34C199.411 161.34 198.54 161.681 197.859 162.362C197.202 163.018 196.874 164.028 196.874 165.391ZM215.364 175.879C213.521 175.879 211.855 175.462 210.366 174.629C208.902 173.771 207.728 172.623 206.845 171.184C205.987 169.72 205.558 168.092 205.558 166.3C205.558 164.508 205.987 162.905 206.845 161.491C207.703 160.053 208.877 158.917 210.366 158.084C211.855 157.226 213.508 156.797 215.326 156.797C217.194 156.797 218.86 157.226 220.323 158.084C221.813 158.917 222.986 160.053 223.845 161.491C224.703 162.905 225.132 164.508 225.132 166.3C225.132 168.092 224.703 169.72 223.845 171.184C222.986 172.623 221.813 173.771 220.323 174.629C218.86 175.462 217.206 175.879 215.364 175.879ZM215.326 171.26C216.26 171.26 217.08 171.058 217.787 170.654C218.519 170.225 219.074 169.644 219.453 168.912C219.857 168.155 220.058 167.297 220.058 166.338C220.058 165.378 219.857 164.533 219.453 163.801C219.049 163.069 218.494 162.501 217.787 162.097C217.08 161.668 216.26 161.453 215.326 161.453C214.417 161.453 213.609 161.668 212.903 162.097C212.196 162.501 211.641 163.069 211.237 163.801C210.833 164.533 210.631 165.378 210.631 166.338C210.631 167.297 210.833 168.155 211.237 168.912C211.641 169.644 212.196 170.225 212.903 170.654C213.609 171.058 214.417 171.26 215.326 171.26ZM235.746 175.879C234.13 175.879 232.692 175.538 231.43 174.856C230.193 174.175 229.221 173.228 228.514 172.017C227.807 170.805 227.454 169.404 227.454 167.814V157.213H232.452V167.701C232.452 168.458 232.578 169.114 232.83 169.669C233.083 170.199 233.461 170.603 233.966 170.881C234.471 171.159 235.064 171.297 235.746 171.297C236.781 171.297 237.588 170.982 238.169 170.351C238.749 169.72 239.04 168.836 239.04 167.701V157.213H243.999V167.814C243.999 169.43 243.646 170.843 242.939 172.055C242.258 173.266 241.286 174.213 240.024 174.894C238.787 175.55 237.361 175.879 235.746 175.879ZM259.875 175.5V165.012C259.875 163.927 259.535 163.044 258.853 162.362C258.172 161.681 257.288 161.34 256.203 161.34C255.496 161.34 254.865 161.491 254.31 161.794C253.755 162.097 253.313 162.526 252.985 163.082C252.682 163.637 252.53 164.28 252.53 165.012L250.599 164.028C250.599 162.589 250.902 161.34 251.508 160.28C252.139 159.194 252.997 158.349 254.083 157.743C255.193 157.137 256.443 156.834 257.831 156.834C259.169 156.834 260.368 157.175 261.428 157.857C262.488 158.513 263.321 159.384 263.927 160.469C264.532 161.529 264.835 162.678 264.835 163.914V175.5H259.875ZM247.571 175.5V157.213H252.53V175.5H247.571ZM276.176 175.879C274.484 175.879 272.97 175.462 271.632 174.629C270.294 173.796 269.234 172.66 268.452 171.222C267.695 169.783 267.316 168.168 267.316 166.375C267.316 164.558 267.695 162.93 268.452 161.491C269.234 160.053 270.282 158.917 271.594 158.084C272.932 157.251 274.459 156.834 276.176 156.834C277.488 156.834 278.662 157.099 279.697 157.63C280.757 158.16 281.602 158.904 282.233 159.863C282.89 160.797 283.243 161.857 283.293 163.044V169.556C283.243 170.742 282.902 171.815 282.271 172.774C281.64 173.733 280.795 174.49 279.734 175.046C278.674 175.601 277.488 175.879 276.176 175.879ZM277.008 171.297C277.942 171.297 278.75 171.095 279.432 170.692C280.138 170.263 280.681 169.682 281.06 168.95C281.463 168.193 281.665 167.322 281.665 166.338C281.665 165.378 281.463 164.533 281.06 163.801C280.681 163.044 280.138 162.463 279.432 162.059C278.75 161.63 277.955 161.416 277.046 161.416C276.112 161.416 275.292 161.63 274.585 162.059C273.904 162.488 273.361 163.069 272.957 163.801C272.579 164.533 272.389 165.378 272.389 166.338C272.389 167.322 272.579 168.193 272.957 168.95C273.361 169.682 273.916 170.263 274.623 170.692C275.33 171.095 276.125 171.297 277.008 171.297ZM286.322 175.5H281.4V170.578L282.195 166.11L281.363 161.719V148.126H286.322V175.5ZM297.348 175.5V157.213H302.345V175.5H297.348ZM299.846 154.26C299.039 154.26 298.37 153.995 297.84 153.465C297.31 152.909 297.045 152.228 297.045 151.42C297.045 150.638 297.31 149.969 297.84 149.414C298.37 148.858 299.039 148.581 299.846 148.581C300.679 148.581 301.348 148.858 301.853 149.414C302.383 149.969 302.648 150.638 302.648 151.42C302.648 152.228 302.383 152.909 301.853 153.465C301.348 153.995 300.679 154.26 299.846 154.26ZM318.665 175.5V165.012C318.665 163.927 318.325 163.044 317.643 162.362C316.962 161.681 316.078 161.34 314.993 161.34C314.286 161.34 313.655 161.491 313.1 161.794C312.544 162.097 312.103 162.526 311.775 163.082C311.472 163.637 311.32 164.28 311.32 165.012L309.389 164.028C309.389 162.589 309.692 161.34 310.298 160.28C310.929 159.194 311.787 158.349 312.873 157.743C313.983 157.137 315.233 156.834 316.621 156.834C317.959 156.834 319.157 157.175 320.218 157.857C321.278 158.513 322.111 159.384 322.716 160.469C323.322 161.529 323.625 162.678 323.625 163.914V175.5H318.665ZM306.36 175.5V157.213H311.32V175.5H306.36ZM140.061 222.879C138.445 222.879 137.019 222.576 135.783 221.97C134.571 221.339 133.561 220.493 132.754 219.433L136.237 216.101C136.691 216.758 137.234 217.263 137.865 217.616C138.521 217.944 139.241 218.108 140.023 218.108C140.805 218.108 141.487 217.944 142.067 217.616C142.673 217.288 143.128 216.808 143.43 216.177C143.759 215.546 143.923 214.776 143.923 213.868V195.884H149.11V213.565C149.11 215.433 148.731 217.073 147.974 218.487C147.242 219.875 146.194 220.96 144.831 221.743C143.494 222.5 141.903 222.879 140.061 222.879ZM160.911 222.879C159.245 222.879 157.743 222.462 156.405 221.629C155.068 220.796 154.02 219.66 153.263 218.222C152.506 216.783 152.127 215.168 152.127 213.375C152.127 211.558 152.506 209.93 153.263 208.491C154.02 207.053 155.068 205.917 156.405 205.084C157.743 204.251 159.245 203.834 160.911 203.834C162.223 203.834 163.397 204.099 164.432 204.63C165.467 205.16 166.287 205.904 166.893 206.863C167.524 207.797 167.865 208.857 167.915 210.044V216.632C167.865 217.843 167.524 218.916 166.893 219.85C166.287 220.784 165.467 221.528 164.432 222.084C163.397 222.614 162.223 222.879 160.911 222.879ZM161.819 218.297C163.208 218.297 164.331 217.843 165.189 216.934C166.047 216 166.476 214.802 166.476 213.338C166.476 212.378 166.274 211.533 165.871 210.801C165.492 210.044 164.949 209.463 164.243 209.059C163.561 208.63 162.753 208.416 161.819 208.416C160.911 208.416 160.103 208.63 159.396 209.059C158.715 209.463 158.172 210.044 157.768 210.801C157.39 211.533 157.2 212.378 157.2 213.338C157.2 214.322 157.39 215.193 157.768 215.95C158.172 216.682 158.715 217.263 159.396 217.692C160.103 218.095 160.911 218.297 161.819 218.297ZM166.211 222.5V217.578L167.006 213.11L166.211 208.719V204.213H171.133V222.5H166.211ZM185.289 222.879C183.977 222.879 182.79 222.614 181.73 222.084C180.67 221.528 179.825 220.784 179.194 219.85C178.563 218.916 178.222 217.843 178.171 216.632V210.157C178.222 208.946 178.563 207.873 179.194 206.939C179.85 205.98 180.695 205.223 181.73 204.667C182.79 204.112 183.977 203.834 185.289 203.834C186.98 203.834 188.495 204.251 189.833 205.084C191.17 205.917 192.218 207.053 192.975 208.491C193.758 209.93 194.149 211.558 194.149 213.375C194.149 215.168 193.758 216.783 192.975 218.222C192.218 219.66 191.17 220.796 189.833 221.629C188.495 222.462 186.98 222.879 185.289 222.879ZM175.142 230.148V204.213H180.102V209.021L179.269 213.451L180.064 217.881V230.148H175.142ZM184.418 218.297C185.327 218.297 186.135 218.095 186.842 217.692C187.548 217.263 188.091 216.682 188.47 215.95C188.873 215.193 189.075 214.322 189.075 213.338C189.075 212.378 188.873 211.533 188.47 210.801C188.091 210.044 187.548 209.463 186.842 209.059C186.135 208.63 185.327 208.416 184.418 208.416C183.535 208.416 182.74 208.63 182.033 209.059C181.326 209.463 180.771 210.044 180.367 210.801C179.989 211.533 179.799 212.378 179.799 213.338C179.799 214.322 179.989 215.193 180.367 215.95C180.771 216.682 181.314 217.263 181.995 217.692C182.702 218.095 183.51 218.297 184.418 218.297ZM204.67 222.879C203.004 222.879 201.502 222.462 200.165 221.629C198.827 220.796 197.779 219.66 197.022 218.222C196.265 216.783 195.886 215.168 195.886 213.375C195.886 211.558 196.265 209.93 197.022 208.491C197.779 207.053 198.827 205.917 200.165 205.084C201.502 204.251 203.004 203.834 204.67 203.834C205.983 203.834 207.156 204.099 208.191 204.63C209.226 205.16 210.046 205.904 210.652 206.863C211.283 207.797 211.624 208.857 211.674 210.044V216.632C211.624 217.843 211.283 218.916 210.652 219.85C210.046 220.784 209.226 221.528 208.191 222.084C207.156 222.614 205.983 222.879 204.67 222.879ZM205.579 218.297C206.967 218.297 208.09 217.843 208.948 216.934C209.807 216 210.236 214.802 210.236 213.338C210.236 212.378 210.034 211.533 209.63 210.801C209.251 210.044 208.709 209.463 208.002 209.059C207.32 208.63 206.513 208.416 205.579 208.416C204.67 208.416 203.862 208.63 203.156 209.059C202.474 209.463 201.931 210.044 201.528 210.801C201.149 211.533 200.96 212.378 200.96 213.338C200.96 214.322 201.149 215.193 201.528 215.95C201.931 216.682 202.474 217.263 203.156 217.692C203.862 218.095 204.67 218.297 205.579 218.297ZM209.971 222.5V217.578L210.766 213.11L209.971 208.719V204.213H214.893V222.5H209.971ZM231.207 222.5V212.012C231.207 210.927 230.866 210.044 230.184 209.362C229.503 208.681 228.619 208.34 227.534 208.34C226.827 208.34 226.196 208.491 225.641 208.794C225.086 209.097 224.644 209.526 224.316 210.082C224.013 210.637 223.862 211.28 223.862 212.012L221.931 211.028C221.931 209.589 222.234 208.34 222.839 207.28C223.47 206.194 224.329 205.349 225.414 204.743C226.524 204.137 227.774 203.834 229.162 203.834C230.5 203.834 231.699 204.175 232.759 204.857C233.819 205.513 234.652 206.384 235.258 207.469C235.864 208.529 236.166 209.678 236.166 210.914V222.5H231.207ZM218.902 222.5V204.213H223.862V222.5H218.902Z" fill="black"/>
</svg>
