<svg width="370" height="262" viewBox="0 0 370 262" fill="none" xmlns="http://www.w3.org/2000/svg">
<rect width="370" height="261.5" rx="27.5354" fill="#F6F9F2"/>
<path d="M213.125 117.5C208.983 117.495 205.011 115.847 202.082 112.918C199.896 110.732 198.424 107.966 197.815 104.981C197.47 103.289 198.901 101.875 200.627 101.875C202.352 101.875 203.701 103.311 204.265 104.941C204.526 105.694 204.883 106.414 205.33 107.083C206.36 108.625 207.824 109.827 209.537 110.536C211.25 111.246 213.135 111.432 214.954 111.07C216.773 110.708 218.443 109.815 219.754 108.504C221.065 107.193 221.958 105.523 222.32 103.704C222.682 101.885 222.496 100 221.786 98.2873C221.077 96.5743 219.875 95.1101 218.333 94.08C216.792 93.0498 214.979 92.5 213.125 92.5H156.875C155.149 92.5 153.75 91.1009 153.75 89.375C153.75 87.6491 155.149 86.25 156.875 86.25H213.125C217.269 86.25 221.243 87.8962 224.174 90.8265C227.104 93.7567 228.75 97.731 228.75 101.875C228.75 106.019 227.104 109.993 224.174 112.924C221.243 115.854 217.269 117.5 213.125 117.5ZM206.875 76.875H169.375C167.649 76.875 166.25 75.4759 166.25 73.75C166.25 72.0241 167.649 70.625 169.375 70.625H206.875C208.729 70.625 210.542 70.0752 212.083 69.045C213.625 68.0149 214.827 66.5507 215.536 64.8377C216.246 63.1246 216.432 61.2396 216.07 59.421C215.708 57.6025 214.815 55.932 213.504 54.6209C212.193 53.3098 210.523 52.4169 208.704 52.0551C206.885 51.6934 205 51.8791 203.287 52.5886C201.574 53.2982 200.11 54.4998 199.08 56.0415C198.633 56.7104 198.276 57.4304 198.016 58.1825C197.451 59.8134 196.101 61.25 194.375 61.25C192.649 61.25 191.219 59.8372 191.561 58.1457C191.963 56.1632 192.748 54.2676 193.883 52.5692C195.6 49.9997 198.04 47.997 200.896 46.8144C203.751 45.6318 206.892 45.3223 209.923 45.9252C212.954 46.5281 215.738 48.0163 217.924 50.2015C220.109 52.3867 221.597 55.1708 222.2 58.2017C222.803 61.2327 222.493 64.3743 221.311 67.2294C220.128 70.0845 218.125 72.5248 215.556 74.2417C212.986 75.9586 209.965 76.875 206.875 76.875Z" fill="#374B3C"/>
<path d="M169.617 117.085C170.046 113.224 171.762 110.222 175.623 108.506" stroke="#A5C686" stroke-width="3.90625" stroke-linecap="round" stroke-linejoin="round"/>
<path d="M173.052 114.511C178.386 114.511 182.06 111.69 182.489 104.216V102.5H179.045C171.324 102.5 168.762 105.932 168.75 110.221C168.75 111.079 168.75 112.795 170.466 114.511H173.04H173.052Z" stroke="#A5C686" stroke-width="3.90625" stroke-linecap="round" stroke-linejoin="round"/>
<path d="M169.437 59.3146C165.683 58.3143 162.97 56.1697 161.849 52.0965" stroke="#A5C686" stroke-width="3.90625" stroke-linecap="round" stroke-linejoin="round"/>
<path d="M167.401 55.5365C168.197 50.262 165.955 46.2088 158.628 44.6691L156.932 44.413L156.418 47.8179C155.267 55.4523 158.278 58.4974 162.518 59.1495C163.366 59.2775 165.063 59.5336 167.016 58.0932L167.4 55.5484L167.401 55.5365Z" stroke="#A5C686" stroke-width="3.90625" stroke-linecap="round" stroke-linejoin="round"/>
<path d="M152.35 108.35C152.192 112.231 150.69 115.347 146.958 117.328" stroke="#A5C686" stroke-width="3.90625" stroke-linecap="round" stroke-linejoin="round"/>
<path d="M149.104 111.157C143.783 111.53 140.315 114.6 140.409 122.086L140.529 123.797L143.964 123.557C151.667 123.017 153.983 119.415 153.695 115.135C153.635 114.279 153.515 112.568 151.684 110.976L149.116 111.156L149.104 111.157Z" stroke="#A5C686" stroke-width="3.90625" stroke-linecap="round" stroke-linejoin="round"/>
<path d="M87.9989 175.879C86.0553 175.879 84.2506 175.538 82.5847 174.856C80.9188 174.15 79.4549 173.178 78.1928 171.941C76.956 170.679 75.9969 169.215 75.3154 167.549C74.6591 165.883 74.331 164.091 74.331 162.173C74.331 160.255 74.6591 158.462 75.3154 156.797C75.9969 155.131 76.956 153.679 78.1928 152.443C79.4549 151.206 80.9062 150.234 82.5469 149.527C84.2128 148.82 86.0301 148.467 87.9989 148.467C90.1191 148.467 91.9869 148.82 93.6023 149.527C95.2177 150.209 96.6438 151.155 97.8806 152.367L94.3974 155.85C93.6654 155.042 92.7694 154.411 91.7093 153.957C90.6492 153.503 89.4124 153.275 87.9989 153.275C86.7621 153.275 85.6262 153.49 84.5914 153.919C83.5817 154.323 82.6983 154.929 81.9411 155.736C81.1839 156.519 80.6033 157.465 80.1995 158.576C79.7956 159.661 79.5937 160.86 79.5937 162.173C79.5937 163.511 79.7956 164.722 80.1995 165.808C80.6033 166.893 81.1839 167.839 81.9411 168.647C82.6983 169.43 83.5817 170.035 84.5914 170.464C85.6262 170.894 86.7621 171.108 87.9989 171.108C89.4881 171.108 90.7627 170.881 91.8229 170.427C92.9082 169.972 93.8169 169.329 94.5489 168.496L98.0321 171.979C96.7953 173.216 95.3566 174.175 93.7159 174.856C92.0753 175.538 90.1696 175.879 87.9989 175.879ZM107.87 175.879C106.204 175.879 104.703 175.462 103.365 174.629C102.027 173.796 100.98 172.66 100.222 171.222C99.4652 169.783 99.0866 168.168 99.0866 166.375C99.0866 164.558 99.4652 162.93 100.222 161.491C100.98 160.053 102.027 158.917 103.365 158.084C104.703 157.251 106.204 156.834 107.87 156.834C109.183 156.834 110.357 157.099 111.391 157.63C112.426 158.16 113.247 158.904 113.852 159.863C114.483 160.797 114.824 161.857 114.875 163.044V169.632C114.824 170.843 114.483 171.916 113.852 172.85C113.247 173.784 112.426 174.528 111.391 175.084C110.357 175.614 109.183 175.879 107.87 175.879ZM108.779 171.297C110.167 171.297 111.291 170.843 112.149 169.934C113.007 169 113.436 167.802 113.436 166.338C113.436 165.378 113.234 164.533 112.83 163.801C112.452 163.044 111.909 162.463 111.202 162.059C110.521 161.63 109.713 161.416 108.779 161.416C107.87 161.416 107.063 161.63 106.356 162.059C105.674 162.463 105.132 163.044 104.728 163.801C104.349 164.533 104.16 165.378 104.16 166.338C104.16 167.322 104.349 168.193 104.728 168.95C105.132 169.682 105.674 170.263 106.356 170.692C107.063 171.095 107.87 171.297 108.779 171.297ZM113.171 175.5V170.578L113.966 166.11L113.171 161.719V157.213H118.093V175.5H113.171ZM122.102 175.5V148.126H127.062V175.5H122.102ZM131.078 175.5V157.213H136.038V175.5H131.078ZM143.004 175.5V164.71C143.004 163.649 142.663 162.829 141.982 162.249C141.326 161.643 140.505 161.34 139.521 161.34C138.865 161.34 138.271 161.479 137.741 161.756C137.211 162.009 136.795 162.387 136.492 162.892C136.189 163.397 136.038 164.003 136.038 164.71L134.107 163.763C134.107 162.35 134.41 161.125 135.015 160.09C135.646 159.056 136.492 158.261 137.552 157.705C138.612 157.125 139.811 156.834 141.149 156.834C142.411 156.834 143.559 157.125 144.594 157.705C145.629 158.261 146.449 159.056 147.055 160.09C147.661 161.1 147.964 162.324 147.964 163.763V175.5H143.004ZM154.93 175.5V164.71C154.93 163.649 154.59 162.829 153.908 162.249C153.252 161.643 152.432 161.34 151.447 161.34C150.816 161.34 150.223 161.479 149.668 161.756C149.138 162.009 148.721 162.387 148.418 162.892C148.115 163.397 147.964 164.003 147.964 164.71L145.124 164.028C145.225 162.564 145.617 161.302 146.298 160.242C146.98 159.157 147.876 158.324 148.986 157.743C150.097 157.137 151.334 156.834 152.697 156.834C154.06 156.834 155.284 157.125 156.369 157.705C157.454 158.261 158.313 159.068 158.944 160.128C159.575 161.188 159.89 162.451 159.89 163.914V175.5H154.93ZM163.494 180.005L166.182 175.008L167.735 174.591C167.558 174.919 167.356 175.197 167.129 175.424C166.902 175.651 166.637 175.765 166.334 175.765C165.703 175.765 165.11 175.487 164.554 174.932C163.999 174.377 163.721 173.683 163.721 172.85C163.721 171.941 164.024 171.171 164.63 170.54C165.236 169.909 165.993 169.594 166.902 169.594C167.735 169.594 168.467 169.909 169.098 170.54C169.729 171.171 170.044 171.941 170.044 172.85C170.044 173.203 169.968 173.632 169.817 174.137C169.665 174.617 169.388 175.235 168.984 175.992L166.069 181.368L163.494 180.005ZM189.035 175.879C186.889 175.879 185.047 175.513 183.507 174.781C181.993 174.049 180.617 172.951 179.38 171.487L182.788 168.079C183.57 169.114 184.479 169.922 185.514 170.502C186.549 171.058 187.811 171.335 189.3 171.335C190.638 171.335 191.698 171.07 192.48 170.54C193.288 170.01 193.692 169.278 193.692 168.344C193.692 167.537 193.465 166.88 193.01 166.375C192.556 165.871 191.95 165.442 191.193 165.088C190.461 164.735 189.641 164.419 188.732 164.142C187.848 163.839 186.952 163.498 186.044 163.119C185.16 162.741 184.34 162.274 183.583 161.719C182.851 161.138 182.258 160.406 181.803 159.523C181.349 158.614 181.122 157.478 181.122 156.115C181.122 154.5 181.513 153.124 182.295 151.988C183.078 150.852 184.151 149.982 185.514 149.376C186.877 148.77 188.416 148.467 190.133 148.467C191.95 148.467 193.591 148.808 195.055 149.489C196.519 150.171 197.718 151.054 198.651 152.14L195.244 155.547C194.462 154.689 193.654 154.058 192.821 153.654C192.013 153.25 191.092 153.048 190.057 153.048C188.871 153.048 187.937 153.275 187.255 153.73C186.574 154.184 186.233 154.84 186.233 155.699C186.233 156.431 186.46 157.024 186.915 157.478C187.369 157.932 187.962 158.324 188.694 158.652C189.451 158.98 190.272 159.295 191.155 159.598C192.064 159.901 192.96 160.242 193.843 160.621C194.752 160.999 195.572 161.491 196.304 162.097C197.061 162.703 197.667 163.485 198.121 164.445C198.576 165.378 198.803 166.54 198.803 167.928C198.803 170.401 197.932 172.345 196.191 173.758C194.449 175.172 192.064 175.879 189.035 175.879ZM204.646 175.5V149.603H209.606V175.5H204.646ZM200.368 161.567V157.213H213.884V161.567H200.368ZM224.597 175.879C222.679 175.879 220.975 175.475 219.486 174.667C217.997 173.834 216.811 172.698 215.927 171.26C215.069 169.821 214.64 168.18 214.64 166.338C214.64 164.52 215.056 162.905 215.889 161.491C216.747 160.053 217.909 158.917 219.372 158.084C220.836 157.226 222.464 156.797 224.257 156.797C226.023 156.797 227.576 157.2 228.914 158.008C230.277 158.791 231.337 159.876 232.094 161.264C232.876 162.627 233.268 164.18 233.268 165.921C233.268 166.249 233.242 166.59 233.192 166.943C233.167 167.271 233.103 167.65 233.003 168.079L217.631 168.117V164.407L230.693 164.369L228.686 165.921C228.636 164.836 228.434 163.927 228.081 163.195C227.752 162.463 227.26 161.908 226.604 161.529C225.973 161.125 225.191 160.923 224.257 160.923C223.272 160.923 222.414 161.151 221.682 161.605C220.95 162.034 220.382 162.652 219.978 163.46C219.6 164.243 219.41 165.177 219.41 166.262C219.41 167.372 219.612 168.344 220.016 169.177C220.445 169.985 221.051 170.616 221.833 171.07C222.616 171.499 223.525 171.714 224.559 171.714C225.493 171.714 226.339 171.562 227.096 171.26C227.853 170.931 228.51 170.452 229.065 169.821L231.98 172.736C231.097 173.771 230.011 174.553 228.724 175.084C227.462 175.614 226.087 175.879 224.597 175.879ZM243.604 175.879C241.938 175.879 240.437 175.462 239.099 174.629C237.761 173.796 236.714 172.66 235.956 171.222C235.199 169.783 234.82 168.168 234.82 166.375C234.82 164.558 235.199 162.93 235.956 161.491C236.714 160.053 237.761 158.917 239.099 158.084C240.437 157.251 241.938 156.834 243.604 156.834C244.917 156.834 246.09 157.099 247.125 157.63C248.16 158.16 248.981 158.904 249.586 159.863C250.217 160.797 250.558 161.857 250.609 163.044V169.632C250.558 170.843 250.217 171.916 249.586 172.85C248.981 173.784 248.16 174.528 247.125 175.084C246.09 175.614 244.917 175.879 243.604 175.879ZM244.513 171.297C245.901 171.297 247.024 170.843 247.883 169.934C248.741 169 249.17 167.802 249.17 166.338C249.17 165.378 248.968 164.533 248.564 163.801C248.185 163.044 247.643 162.463 246.936 162.059C246.255 161.63 245.447 161.416 244.513 161.416C243.604 161.416 242.797 161.63 242.09 162.059C241.408 162.463 240.866 163.044 240.462 163.801C240.083 164.533 239.894 165.378 239.894 166.338C239.894 167.322 240.083 168.193 240.462 168.95C240.866 169.682 241.408 170.263 242.09 170.692C242.797 171.095 243.604 171.297 244.513 171.297ZM248.905 175.5V170.578L249.7 166.11L248.905 161.719V157.213H253.827V175.5H248.905ZM265.56 175.879C263.868 175.879 262.354 175.462 261.016 174.629C259.679 173.796 258.618 172.66 257.836 171.222C257.079 169.783 256.7 168.168 256.7 166.375C256.7 164.558 257.079 162.93 257.836 161.491C258.618 160.053 259.666 158.917 260.978 158.084C262.316 157.251 263.843 156.834 265.56 156.834C266.872 156.834 268.046 157.099 269.081 157.63C270.141 158.16 270.986 158.904 271.617 159.863C272.274 160.797 272.627 161.857 272.678 163.044V169.556C272.627 170.742 272.286 171.815 271.655 172.774C271.024 173.733 270.179 174.49 269.119 175.046C268.058 175.601 266.872 175.879 265.56 175.879ZM266.393 171.297C267.326 171.297 268.134 171.095 268.816 170.692C269.522 170.263 270.065 169.682 270.444 168.95C270.848 168.193 271.049 167.322 271.049 166.338C271.049 165.378 270.848 164.533 270.444 163.801C270.065 163.044 269.522 162.463 268.816 162.059C268.134 161.63 267.339 161.416 266.43 161.416C265.497 161.416 264.676 161.63 263.969 162.059C263.288 162.488 262.745 163.069 262.341 163.801C261.963 164.533 261.773 165.378 261.773 166.338C261.773 167.322 261.963 168.193 262.341 168.95C262.745 169.682 263.301 170.263 264.007 170.692C264.714 171.095 265.509 171.297 266.393 171.297ZM275.706 175.5H270.784V170.578L271.58 166.11L270.747 161.719V148.126H275.706V175.5ZM285.47 175.651L277.822 157.213H283.199L288.272 171.297H286.455L291.718 157.213H297.132L288.992 175.651H285.47ZM280.397 183.148L285.963 171.373L288.992 175.651L285.66 183.148H280.397ZM127.869 222.5V195.884H133.018V222.5H127.869ZM131.655 222.5V217.957H146.383V222.5H131.655ZM131.655 211.104V206.712H145.058V211.104H131.655ZM131.655 200.427V195.884H146.194V200.427H131.655ZM162.041 222.5V212.012C162.041 210.927 161.7 210.044 161.019 209.362C160.337 208.681 159.454 208.34 158.369 208.34C157.662 208.34 157.031 208.491 156.476 208.794C155.92 209.097 155.479 209.526 155.15 210.082C154.848 210.637 154.696 211.28 154.696 212.012L152.765 211.028C152.765 209.589 153.068 208.34 153.674 207.28C154.305 206.194 155.163 205.349 156.248 204.743C157.359 204.137 158.608 203.834 159.997 203.834C161.334 203.834 162.533 204.175 163.593 204.857C164.654 205.513 165.487 206.384 166.092 207.469C166.698 208.529 167.001 209.678 167.001 210.914V222.5H162.041ZM149.736 222.5V204.213H154.696V222.5H149.736ZM179.364 222.879C177.445 222.879 175.742 222.475 174.252 221.667C172.763 220.834 171.577 219.698 170.693 218.26C169.835 216.821 169.406 215.18 169.406 213.338C169.406 211.52 169.823 209.905 170.655 208.491C171.514 207.053 172.675 205.917 174.139 205.084C175.603 204.226 177.231 203.797 179.023 203.797C180.79 203.797 182.342 204.2 183.68 205.008C185.043 205.791 186.103 206.876 186.86 208.264C187.643 209.627 188.034 211.18 188.034 212.921C188.034 213.249 188.009 213.59 187.958 213.943C187.933 214.271 187.87 214.65 187.769 215.079L172.397 215.117V211.407L185.459 211.369L183.453 212.921C183.402 211.836 183.2 210.927 182.847 210.195C182.519 209.463 182.026 208.908 181.37 208.529C180.739 208.125 179.957 207.923 179.023 207.923C178.038 207.923 177.18 208.151 176.448 208.605C175.716 209.034 175.148 209.652 174.744 210.46C174.366 211.243 174.177 212.177 174.177 213.262C174.177 214.372 174.379 215.344 174.782 216.177C175.211 216.985 175.817 217.616 176.6 218.07C177.382 218.499 178.291 218.714 179.326 218.714C180.26 218.714 181.105 218.562 181.862 218.26C182.62 217.931 183.276 217.452 183.831 216.821L186.746 219.736C185.863 220.771 184.778 221.553 183.49 222.084C182.228 222.614 180.853 222.879 179.364 222.879ZM190.723 222.5V204.213H195.682V222.5H190.723ZM195.682 212.391L193.751 211.104C193.979 208.857 194.635 207.09 195.72 205.803C196.806 204.491 198.37 203.834 200.415 203.834C201.298 203.834 202.093 203.986 202.8 204.289C203.507 204.566 204.151 205.033 204.731 205.69L201.627 209.249C201.349 208.946 201.008 208.719 200.604 208.567C200.226 208.416 199.784 208.34 199.279 208.34C198.219 208.34 197.348 208.681 196.667 209.362C196.01 210.018 195.682 211.028 195.682 212.391ZM213.225 230.602C211.282 230.602 209.565 230.249 208.076 229.542C206.587 228.861 205.4 227.889 204.517 226.627L207.659 223.484C208.366 224.317 209.149 224.948 210.007 225.377C210.89 225.832 211.95 226.059 213.187 226.059C214.727 226.059 215.938 225.668 216.822 224.885C217.731 224.103 218.185 223.017 218.185 221.629V217.048L219.018 213.035L218.223 209.021V204.213H223.145V221.553C223.145 223.371 222.716 224.948 221.857 226.286C221.024 227.649 219.863 228.709 218.374 229.466C216.885 230.224 215.169 230.602 213.225 230.602ZM212.998 222.008C211.357 222.008 209.881 221.617 208.568 220.834C207.256 220.026 206.221 218.928 205.464 217.54C204.732 216.152 204.366 214.6 204.366 212.883C204.366 211.167 204.732 209.627 205.464 208.264C206.221 206.901 207.256 205.828 208.568 205.046C209.881 204.238 211.357 203.834 212.998 203.834C214.361 203.834 215.56 204.099 216.595 204.63C217.655 205.16 218.488 205.892 219.094 206.825C219.699 207.734 220.027 208.807 220.078 210.044V215.799C220.027 217.01 219.687 218.095 219.056 219.055C218.45 219.989 217.617 220.721 216.557 221.251C215.522 221.755 214.336 222.008 212.998 222.008ZM213.982 217.502C214.891 217.502 215.673 217.313 216.33 216.934C217.011 216.531 217.541 215.988 217.92 215.306C218.298 214.6 218.488 213.805 218.488 212.921C218.488 212.012 218.298 211.217 217.92 210.536C217.541 209.854 217.011 209.324 216.33 208.946C215.673 208.542 214.891 208.34 213.982 208.34C213.074 208.34 212.279 208.542 211.597 208.946C210.916 209.324 210.385 209.867 210.007 210.574C209.628 211.255 209.439 212.038 209.439 212.921C209.439 213.779 209.628 214.562 210.007 215.269C210.385 215.95 210.916 216.493 211.597 216.897C212.279 217.3 213.074 217.502 213.982 217.502ZM232.879 222.651L225.231 204.213H230.607L235.681 218.297H233.863L239.126 204.213H244.54L236.4 222.651H232.879ZM227.805 230.148L233.371 218.373L236.4 222.651L233.068 230.148H227.805Z" fill="black"/>
</svg>
