<svg width="370" height="262" viewBox="0 0 370 262" fill="none" xmlns="http://www.w3.org/2000/svg">
<rect width="370" height="261.5" rx="27.5354" fill="#F6F9F2"/>
<path d="M147.926 117.076C150.834 119.988 154.993 121.526 159.955 121.526C167.213 121.526 176.018 118.284 185.005 112.663C193.988 118.288 202.797 121.526 210.055 121.526C215.013 121.526 219.172 119.988 222.084 117.076C227.372 111.788 227.963 102.855 223.755 91.9131C222.263 88.0298 220.197 84.0172 217.684 80.0006C220.079 76.23 222.112 72.2414 223.755 68.0881C227.963 57.1464 227.368 48.2089 222.084 42.9256C219.176 40.0131 215.018 38.4756 210.055 38.4756C202.797 38.4756 193.993 41.7173 185.005 47.3381C176.022 41.7131 167.213 38.4756 159.955 38.4756C154.997 38.4756 150.838 40.0131 147.926 42.9256C142.638 48.2131 142.043 57.1464 146.251 68.0881C147.747 71.9714 149.809 75.9839 152.322 80.0006C149.927 83.7711 147.894 87.7597 146.251 91.9131C142.043 102.855 142.638 111.788 147.926 117.076ZM215.972 94.9047C218.843 102.363 218.922 108.451 216.188 111.184C214.855 112.517 212.793 113.192 210.051 113.192C205.188 113.192 199.026 111.096 192.518 107.442C199.982 101.673 206.679 94.9745 212.447 87.5089C213.847 90.0131 215.043 92.4922 215.972 94.9047ZM185.001 102.571C180.651 99.4609 176.563 96.0008 172.776 92.2256C168.982 88.4365 165.498 84.3483 162.359 80.0006C168.63 71.2971 176.278 63.6736 185.001 57.4298C189.35 60.5402 193.439 64.0003 197.226 67.7756C201.02 71.5647 204.504 75.6529 207.643 80.0006C201.371 88.7041 193.724 96.3276 185.001 102.571ZM210.051 46.8089C212.788 46.8089 214.851 47.4839 216.188 48.8173C218.922 51.5506 218.847 57.6381 215.972 65.0964C215.043 67.5089 213.847 69.9881 212.447 72.4922C206.683 65.0237 199.985 58.3247 192.518 52.5589C199.026 48.9089 205.188 46.8089 210.051 46.8089ZM154.03 65.0964C151.159 57.6381 151.08 51.5506 153.813 48.8173C155.147 47.4839 157.209 46.8089 159.951 46.8089C164.813 46.8089 170.976 48.9048 177.484 52.5589C170.017 58.3247 163.319 65.0237 157.555 72.4922C156.208 70.1126 155.03 67.6413 154.03 65.0964ZM154.03 94.9047C154.959 92.4922 156.155 90.0131 157.555 87.5089C163.319 94.9775 170.017 101.676 177.484 107.442C170.972 111.096 164.813 113.192 159.951 113.192C157.213 113.192 155.151 112.517 153.813 111.184C151.08 108.451 151.159 102.363 154.03 94.9047Z" fill="#374B3C"/>
<path d="M185.002 90.7254C190.926 90.7254 195.727 85.9236 195.727 80.0004C195.727 74.0771 190.926 69.2754 185.002 69.2754C179.079 69.2754 174.277 74.0771 174.277 80.0004C174.277 85.9236 179.079 90.7254 185.002 90.7254Z" fill="#A5C686"/>
<path d="M90.1787 165.618V161.416H96.3501C97.1578 161.416 97.8898 161.252 98.546 160.923C99.2023 160.595 99.7197 160.128 100.098 159.523C100.477 158.892 100.666 158.134 100.666 157.251C100.666 156.393 100.477 155.648 100.098 155.017C99.7197 154.386 99.2023 153.906 98.546 153.578C97.8898 153.25 97.1578 153.086 96.3501 153.086H90.1787V148.884H96.8801C98.5713 148.884 100.086 149.224 101.423 149.906C102.786 150.587 103.859 151.559 104.642 152.821C105.424 154.058 105.815 155.535 105.815 157.251C105.815 158.967 105.424 160.456 104.642 161.719C103.859 162.955 102.786 163.914 101.423 164.596C100.086 165.277 98.5713 165.618 96.8801 165.618H90.1787ZM86.3926 175.5V148.884H91.5417V175.5H86.3926ZM115.612 175.879C113.946 175.879 112.444 175.462 111.106 174.629C109.769 173.796 108.721 172.66 107.964 171.222C107.207 169.783 106.828 168.168 106.828 166.375C106.828 164.558 107.207 162.93 107.964 161.491C108.721 160.053 109.769 158.917 111.106 158.084C112.444 157.251 113.946 156.834 115.612 156.834C116.924 156.834 118.098 157.099 119.133 157.63C120.168 158.16 120.988 158.904 121.594 159.863C122.225 160.797 122.566 161.857 122.616 163.044V169.632C122.566 170.843 122.225 171.916 121.594 172.85C120.988 173.784 120.168 174.528 119.133 175.084C118.098 175.614 116.924 175.879 115.612 175.879ZM116.521 171.297C117.909 171.297 119.032 170.843 119.89 169.934C120.748 169 121.178 167.802 121.178 166.338C121.178 165.378 120.976 164.533 120.572 163.801C120.193 163.044 119.65 162.463 118.944 162.059C118.262 161.63 117.455 161.416 116.521 161.416C115.612 161.416 114.804 161.63 114.098 162.059C113.416 162.463 112.873 163.044 112.469 163.801C112.091 164.533 111.902 165.378 111.902 166.338C111.902 167.322 112.091 168.193 112.469 168.95C112.873 169.682 113.416 170.263 114.098 170.692C114.804 171.095 115.612 171.297 116.521 171.297ZM120.913 175.5V170.578L121.708 166.11L120.913 161.719V157.213H125.834V175.5H120.913ZM138.476 175.879C136.608 175.879 134.93 175.462 133.44 174.629C131.951 173.796 130.778 172.66 129.919 171.222C129.061 169.783 128.632 168.168 128.632 166.375C128.632 164.558 129.061 162.93 129.919 161.491C130.778 160.053 131.951 158.917 133.44 158.084C134.955 157.226 136.633 156.797 138.476 156.797C139.915 156.797 141.24 157.062 142.451 157.592C143.663 158.122 144.71 158.879 145.594 159.863L142.414 163.082C141.934 162.551 141.353 162.148 140.672 161.87C140.016 161.592 139.284 161.453 138.476 161.453C137.567 161.453 136.747 161.668 136.015 162.097C135.308 162.501 134.74 163.069 134.311 163.801C133.907 164.508 133.705 165.353 133.705 166.338C133.705 167.297 133.907 168.155 134.311 168.912C134.74 169.644 135.308 170.225 136.015 170.654C136.747 171.058 137.567 171.26 138.476 171.26C139.309 171.26 140.054 171.121 140.71 170.843C141.391 170.54 141.972 170.111 142.451 169.556L145.67 172.774C144.736 173.784 143.663 174.553 142.451 175.084C141.24 175.614 139.915 175.879 138.476 175.879ZM159.761 175.5L152.681 166.073L159.723 157.213H165.44L157.187 167.208L157.376 164.785L165.819 175.5H159.761ZM148.1 175.5V148.126H153.06V175.5H148.1ZM175.62 175.879C173.701 175.879 171.998 175.475 170.508 174.667C169.019 173.834 167.833 172.698 166.949 171.26C166.091 169.821 165.662 168.18 165.662 166.338C165.662 164.52 166.079 162.905 166.912 161.491C167.77 160.053 168.931 158.917 170.395 158.084C171.859 157.226 173.487 156.797 175.279 156.797C177.046 156.797 178.598 157.2 179.936 158.008C181.299 158.791 182.359 159.876 183.116 161.264C183.899 162.627 184.29 164.18 184.29 165.921C184.29 166.249 184.265 166.59 184.214 166.943C184.189 167.271 184.126 167.65 184.025 168.079L168.653 168.117V164.407L181.715 164.369L179.709 165.921C179.658 164.836 179.456 163.927 179.103 163.195C178.775 162.463 178.282 161.908 177.626 161.529C176.995 161.125 176.213 160.923 175.279 160.923C174.294 160.923 173.436 161.151 172.704 161.605C171.972 162.034 171.404 162.652 171.001 163.46C170.622 164.243 170.433 165.177 170.433 166.262C170.433 167.372 170.635 168.344 171.038 169.177C171.467 169.985 172.073 170.616 172.856 171.07C173.638 171.499 174.547 171.714 175.582 171.714C176.516 171.714 177.361 171.562 178.118 171.26C178.876 170.931 179.532 170.452 180.087 169.821L183.003 172.736C182.119 173.771 181.034 174.553 179.746 175.084C178.484 175.614 177.109 175.879 175.62 175.879ZM194.702 175.879C193.011 175.879 191.497 175.462 190.159 174.629C188.821 173.796 187.761 172.66 186.979 171.222C186.221 169.783 185.843 168.168 185.843 166.375C185.843 164.558 186.221 162.93 186.979 161.491C187.761 160.053 188.809 158.917 190.121 158.084C191.459 157.251 192.986 156.834 194.702 156.834C196.015 156.834 197.188 157.099 198.223 157.63C199.283 158.16 200.129 158.904 200.76 159.863C201.416 160.797 201.77 161.857 201.82 163.044V169.556C201.77 170.742 201.429 171.815 200.798 172.774C200.167 173.733 199.321 174.49 198.261 175.046C197.201 175.601 196.015 175.879 194.702 175.879ZM195.535 171.297C196.469 171.297 197.277 171.095 197.958 170.692C198.665 170.263 199.208 169.682 199.586 168.95C199.99 168.193 200.192 167.322 200.192 166.338C200.192 165.378 199.99 164.533 199.586 163.801C199.208 163.044 198.665 162.463 197.958 162.059C197.277 161.63 196.482 161.416 195.573 161.416C194.639 161.416 193.819 161.63 193.112 162.059C192.431 162.488 191.888 163.069 191.484 163.801C191.105 164.533 190.916 165.378 190.916 166.338C190.916 167.322 191.105 168.193 191.484 168.95C191.888 169.682 192.443 170.263 193.15 170.692C193.857 171.095 194.652 171.297 195.535 171.297ZM204.849 175.5H199.927V170.578L200.722 166.11L199.889 161.719V148.126H204.849V175.5ZM220.758 175.5L213.906 157.213H218.903L223.371 170.502L221.856 170.54L226.438 157.213H230.034L234.616 170.54L233.101 170.502L237.569 157.213H242.566L235.751 175.5H232.155L227.536 162.854H228.936L224.317 175.5H220.758ZM244.298 175.5V157.213H249.296V175.5H244.298ZM246.797 154.26C245.989 154.26 245.321 153.995 244.791 153.465C244.26 152.909 243.995 152.228 243.995 151.42C243.995 150.638 244.26 149.969 244.791 149.414C245.321 148.858 245.989 148.581 246.797 148.581C247.63 148.581 248.299 148.858 248.804 149.414C249.334 149.969 249.599 150.638 249.599 151.42C249.599 152.228 249.334 152.909 248.804 153.465C248.299 153.995 247.63 154.26 246.797 154.26ZM255.999 175.5V149.603H260.959V175.5H255.999ZM251.721 161.567V157.213H265.237V161.567H251.721ZM279.953 175.5V165.012C279.953 163.927 279.612 163.044 278.931 162.362C278.249 161.681 277.366 161.34 276.28 161.34C275.574 161.34 274.943 161.491 274.387 161.794C273.832 162.097 273.39 162.526 273.062 163.082C272.759 163.637 272.608 164.28 272.608 165.012L270.677 164.028C270.677 162.589 270.98 161.34 271.586 160.28C272.191 159.194 273.024 158.349 274.084 157.743C275.17 157.137 276.407 156.834 277.795 156.834C279.183 156.834 280.407 157.137 281.467 157.743C282.553 158.349 283.398 159.182 284.004 160.242C284.61 161.302 284.913 162.526 284.913 163.914V175.5H279.953ZM267.648 175.5V148.126H272.608V175.5H267.648ZM78.2307 222.5L88.9454 195.884H93.148L103.825 222.5H98.335L90.0812 200.654H91.9743L83.607 222.5H78.2307ZM83.9099 217.54V213.224H98.2214V217.54H83.9099ZM118.661 222.5V212.012C118.661 210.927 118.32 210.044 117.638 209.362C116.957 208.681 116.073 208.34 114.988 208.34C114.281 208.34 113.65 208.491 113.095 208.794C112.54 209.097 112.098 209.526 111.77 210.082C111.467 210.637 111.315 211.28 111.315 212.012L109.385 211.028C109.385 209.589 109.687 208.34 110.293 207.28C110.924 206.194 111.782 205.349 112.868 204.743C113.978 204.137 115.228 203.834 116.616 203.834C117.954 203.834 119.153 204.175 120.213 204.857C121.273 205.513 122.106 206.384 122.712 207.469C123.317 208.529 123.62 209.678 123.62 210.914V222.5H118.661ZM106.356 222.5V204.213H111.315V222.5H106.356ZM129.703 222.5V196.603H134.663V222.5H129.703ZM125.425 208.567V204.213H138.941V208.567H125.425ZM141.352 222.5V204.213H146.35V222.5H141.352ZM143.851 201.26C143.043 201.26 142.374 200.995 141.844 200.465C141.314 199.909 141.049 199.228 141.049 198.42C141.049 197.638 141.314 196.969 141.844 196.414C142.374 195.858 143.043 195.581 143.851 195.581C144.684 195.581 145.353 195.858 145.858 196.414C146.388 196.969 146.653 197.638 146.653 198.42C146.653 199.228 146.388 199.909 145.858 200.465C145.353 200.995 144.684 201.26 143.851 201.26ZM158.959 222.879C157.117 222.879 155.451 222.462 153.962 221.629C152.498 220.771 151.324 219.623 150.441 218.184C149.582 216.72 149.153 215.092 149.153 213.3C149.153 211.508 149.582 209.905 150.441 208.491C151.299 207.053 152.472 205.917 153.962 205.084C155.451 204.226 157.104 203.797 158.921 203.797C160.789 203.797 162.455 204.226 163.919 205.084C165.408 205.917 166.582 207.053 167.44 208.491C168.298 209.905 168.728 211.508 168.728 213.3C168.728 215.092 168.298 216.72 167.44 218.184C166.582 219.623 165.408 220.771 163.919 221.629C162.455 222.462 160.802 222.879 158.959 222.879ZM158.921 218.26C159.855 218.26 160.676 218.058 161.382 217.654C162.114 217.225 162.67 216.644 163.048 215.912C163.452 215.155 163.654 214.297 163.654 213.338C163.654 212.378 163.452 211.533 163.048 210.801C162.644 210.069 162.089 209.501 161.382 209.097C160.676 208.668 159.855 208.453 158.921 208.453C158.013 208.453 157.205 208.668 156.498 209.097C155.792 209.501 155.236 210.069 154.832 210.801C154.429 211.533 154.227 212.378 154.227 213.338C154.227 214.297 154.429 215.155 154.832 215.912C155.236 216.644 155.792 217.225 156.498 217.654C157.205 218.058 158.013 218.26 158.921 218.26ZM182.495 222.5L177.687 215.079L176.665 214.322L169.547 204.213H175.415L179.845 210.914L180.792 211.634L188.326 222.5H182.495ZM169.168 222.5L176.627 212.05L179.466 215.42L174.772 222.5H169.168ZM180.981 214.284L178.066 210.952L182.42 204.213H187.985L180.981 214.284ZM190.501 222.5V204.213H195.498V222.5H190.501ZM193 201.26C192.192 201.26 191.523 200.995 190.993 200.465C190.463 199.909 190.198 199.228 190.198 198.42C190.198 197.638 190.463 196.969 190.993 196.414C191.523 195.858 192.192 195.581 193 195.581C193.832 195.581 194.501 195.858 195.006 196.414C195.536 196.969 195.801 197.638 195.801 198.42C195.801 199.228 195.536 199.909 195.006 200.465C194.501 200.995 193.832 201.26 193 201.26ZM207.237 222.879C205.546 222.879 204.032 222.462 202.694 221.629C201.356 220.796 200.296 219.66 199.513 218.222C198.756 216.783 198.378 215.168 198.378 213.375C198.378 211.558 198.756 209.93 199.513 208.491C200.296 207.053 201.343 205.917 202.656 205.084C203.994 204.251 205.521 203.834 207.237 203.834C208.55 203.834 209.723 204.099 210.758 204.63C211.818 205.16 212.664 205.904 213.295 206.863C213.951 207.797 214.305 208.857 214.355 210.044V216.556C214.305 217.742 213.964 218.815 213.333 219.774C212.702 220.733 211.856 221.49 210.796 222.046C209.736 222.601 208.55 222.879 207.237 222.879ZM208.07 218.297C209.004 218.297 209.812 218.095 210.493 217.692C211.2 217.263 211.743 216.682 212.121 215.95C212.525 215.193 212.727 214.322 212.727 213.338C212.727 212.378 212.525 211.533 212.121 210.801C211.743 210.044 211.2 209.463 210.493 209.059C209.812 208.63 209.017 208.416 208.108 208.416C207.174 208.416 206.354 208.63 205.647 209.059C204.965 209.488 204.423 210.069 204.019 210.801C203.64 211.533 203.451 212.378 203.451 213.338C203.451 214.322 203.64 215.193 204.019 215.95C204.423 216.682 204.978 217.263 205.685 217.692C206.392 218.095 207.187 218.297 208.07 218.297ZM217.384 222.5H212.462V217.578L213.257 213.11L212.424 208.719V195.126H217.384V222.5ZM229.041 222.879C227.375 222.879 225.873 222.462 224.536 221.629C223.198 220.796 222.15 219.66 221.393 218.222C220.636 216.783 220.257 215.168 220.257 213.375C220.257 211.558 220.636 209.93 221.393 208.491C222.15 207.053 223.198 205.917 224.536 205.084C225.873 204.251 227.375 203.834 229.041 203.834C230.354 203.834 231.527 204.099 232.562 204.63C233.597 205.16 234.417 205.904 235.023 206.863C235.654 207.797 235.995 208.857 236.045 210.044V216.632C235.995 217.843 235.654 218.916 235.023 219.85C234.417 220.784 233.597 221.528 232.562 222.084C231.527 222.614 230.354 222.879 229.041 222.879ZM229.95 218.297C231.338 218.297 232.461 217.843 233.319 216.934C234.177 216 234.607 214.802 234.607 213.338C234.607 212.378 234.405 211.533 234.001 210.801C233.622 210.044 233.08 209.463 232.373 209.059C231.691 208.63 230.884 208.416 229.95 208.416C229.041 208.416 228.233 208.63 227.527 209.059C226.845 209.463 226.302 210.044 225.899 210.801C225.52 211.533 225.331 212.378 225.331 213.338C225.331 214.322 225.52 215.193 225.899 215.95C226.302 216.682 226.845 217.263 227.527 217.692C228.233 218.095 229.041 218.297 229.95 218.297ZM234.342 222.5V217.578L235.137 213.11L234.342 208.719V204.213H239.264V222.5H234.342ZM255.578 222.5V212.012C255.578 210.927 255.237 210.044 254.555 209.362C253.874 208.681 252.99 208.34 251.905 208.34C251.198 208.34 250.567 208.491 250.012 208.794C249.457 209.097 249.015 209.526 248.687 210.082C248.384 210.637 248.232 211.28 248.232 212.012L246.302 211.028C246.302 209.589 246.604 208.34 247.21 207.28C247.841 206.194 248.699 205.349 249.785 204.743C250.895 204.137 252.145 203.834 253.533 203.834C254.871 203.834 256.07 204.175 257.13 204.857C258.19 205.513 259.023 206.384 259.629 207.469C260.234 208.529 260.537 209.678 260.537 210.914V222.5H255.578ZM243.273 222.5V204.213H248.232V222.5H243.273ZM266.62 222.5V196.603H271.58V222.5H266.62ZM262.342 208.567V204.213H275.858V208.567H262.342ZM284.184 222.916C283.149 222.916 282.127 222.778 281.118 222.5C280.133 222.222 279.225 221.844 278.392 221.364C277.559 220.859 276.839 220.254 276.234 219.547L279.187 216.556C279.818 217.263 280.55 217.793 281.383 218.146C282.216 218.499 283.137 218.676 284.147 218.676C284.954 218.676 285.56 218.562 285.964 218.335C286.393 218.108 286.607 217.767 286.607 217.313C286.607 216.808 286.38 216.417 285.926 216.139C285.497 215.862 284.929 215.635 284.222 215.458C283.515 215.256 282.771 215.041 281.988 214.814C281.231 214.562 280.499 214.246 279.792 213.868C279.086 213.464 278.505 212.921 278.051 212.24C277.622 211.533 277.407 210.624 277.407 209.514C277.407 208.353 277.685 207.343 278.24 206.485C278.821 205.627 279.641 204.958 280.701 204.478C281.761 203.998 283.011 203.759 284.449 203.759C285.964 203.759 287.327 204.024 288.538 204.554C289.775 205.084 290.797 205.879 291.605 206.939L288.614 209.93C288.059 209.249 287.428 208.756 286.721 208.453C286.04 208.151 285.295 207.999 284.487 207.999C283.755 207.999 283.187 208.113 282.784 208.34C282.405 208.567 282.216 208.883 282.216 209.286C282.216 209.741 282.43 210.094 282.859 210.347C283.314 210.599 283.894 210.826 284.601 211.028C285.308 211.205 286.04 211.419 286.797 211.672C287.579 211.899 288.311 212.227 288.993 212.656C289.699 213.085 290.267 213.653 290.696 214.36C291.151 215.067 291.378 215.975 291.378 217.086C291.378 218.878 290.734 220.304 289.447 221.364C288.16 222.399 286.406 222.916 284.184 222.916Z" fill="black"/>
</svg>
