<svg width="1032" height="688" viewBox="0 0 1032 688" fill="none" xmlns="http://www.w3.org/2000/svg">
<rect width="1032" height="688" fill="#374B3C"/>
<path d="M64.2852 201.33C64.2852 192.454 71.4806 185.252 80.3566 185.252H147.08C155.956 185.252 163.151 192.448 163.151 201.324V279.717C163.151 288.593 155.956 295.788 147.08 295.788H80.3565C71.4805 295.788 64.2852 288.586 64.2852 279.71C64.2852 251.043 64.2852 229.997 64.2852 201.33Z" fill="#A5C686"/>
<path d="M64.2852 319.899C64.2852 311.023 71.4806 303.824 80.3566 303.824H147.08C155.956 303.824 163.151 311.019 163.151 319.895V358.109C163.151 366.985 155.956 374.181 147.08 374.181H80.3565C71.4805 374.181 64.2852 366.982 64.2852 358.106C64.2852 344.601 64.2852 333.404 64.2852 319.899Z" fill="#F6F9F2"/>
<path d="M64.2852 398.289C64.2852 389.413 71.4806 382.216 80.3566 382.216H147.08C155.956 382.216 163.151 389.412 163.151 398.288V406.323C163.151 415.199 155.956 422.395 147.08 422.395H80.3565C71.4805 422.395 64.2852 415.198 64.2852 406.322C64.2852 403.621 64.2852 400.99 64.2852 398.289Z" fill="#F5DAA3"/>
<path d="M179.223 40.8159C179.223 31.9399 186.418 24.7168 195.294 24.7168H262.017C270.893 24.7168 278.089 31.9122 278.089 40.7882V279.895C278.089 288.771 270.893 295.966 262.017 295.966H195.294C186.418 295.966 179.223 288.743 179.223 279.867C179.223 189.01 179.223 131.674 179.223 40.8159Z" fill="#A5C686"/>
<path d="M179.223 320.075C179.223 311.199 186.418 304.002 195.294 304.002H262.017C270.893 304.002 278.089 311.198 278.089 320.074V338.199C278.089 347.075 270.893 354.27 262.017 354.27H195.294C186.418 354.27 179.223 347.073 179.223 338.197C179.223 331.987 179.223 326.285 179.223 320.075Z" fill="#F6F9F2"/>
<path d="M179.223 377.35C179.223 369.041 185.958 362.306 194.267 362.306H263.044C271.353 362.306 278.089 369.041 278.089 377.35C278.089 385.659 271.353 392.395 263.044 392.395H194.267C185.958 392.395 179.223 385.659 179.223 377.35Z" fill="#F5DAA3"/>
<path d="M294.16 210.346C294.16 201.47 301.356 194.27 310.232 194.27H376.955C385.831 194.27 393.026 201.466 393.026 210.342V268.645C393.026 277.521 385.831 284.717 376.955 284.717H310.232C301.356 284.717 294.16 277.517 294.16 268.641C294.16 247.611 294.16 231.376 294.16 210.346Z" fill="#A5C686"/>
<path d="M294.16 308.828C294.16 299.952 301.356 292.752 310.232 292.752H376.955C385.831 292.752 393.026 299.948 393.026 308.824V367.127C393.026 376.003 385.831 383.198 376.955 383.198H310.232C301.356 383.198 294.16 375.999 294.16 367.123C294.16 346.093 294.16 329.858 294.16 308.828Z" fill="#F6F9F2"/>
<path d="M294.16 407.31C294.16 398.434 301.356 391.234 310.232 391.234H376.955C385.831 391.234 393.026 398.43 393.026 407.306V465.609C393.026 474.485 385.831 481.68 376.955 481.68H310.232C301.356 481.68 294.16 474.48 294.16 465.604C294.16 444.575 294.16 428.34 294.16 407.31Z" fill="#F5DAA3"/>
<path d="M409.098 261.638C409.098 252.762 416.293 245.565 425.169 245.565H491.892C500.768 245.565 507.964 252.76 507.964 261.636V279.761C507.964 288.637 500.768 295.832 491.892 295.832H425.169C416.293 295.832 409.098 288.635 409.098 279.759C409.098 273.55 409.098 267.847 409.098 261.638Z" fill="#A5C686"/>
<path d="M409.098 319.956C409.098 311.08 416.293 303.868 425.169 303.868H491.892C500.768 303.868 507.964 311.064 507.964 319.94V458.6C507.964 467.476 500.768 474.671 491.892 474.671H425.169C416.293 474.671 409.098 467.46 409.098 458.584C409.098 406.719 409.098 371.821 409.098 319.956Z" fill="#F6F9F2"/>
<path d="M409.098 498.781C409.098 489.905 416.293 482.707 425.169 482.707H491.892C500.768 482.707 507.964 489.903 507.964 498.779V546.904C507.964 555.78 500.768 562.975 491.892 562.975H425.169C416.293 562.975 409.098 555.777 409.098 546.901C409.098 529.702 409.098 515.98 409.098 498.781Z" fill="#F5DAA3"/>
<path d="M524.035 315.832C524.035 307.499 530.791 300.743 539.124 300.743H607.812C616.146 300.743 622.901 307.499 622.901 315.832C622.901 324.166 616.146 330.922 607.812 330.922H539.124C530.791 330.922 524.035 324.166 524.035 315.832Z" fill="#A5C686"/>
<path d="M524.035 355.042C524.035 346.166 531.231 338.958 540.107 338.958H606.83C615.706 338.958 622.901 346.153 622.901 355.029V453.511C622.901 462.387 615.706 469.582 606.83 469.582H540.107C531.231 469.582 524.035 462.374 524.035 453.498C524.035 417.135 524.035 391.405 524.035 355.042Z" fill="#F6F9F2"/>
<path d="M524.035 493.694C524.035 484.818 531.231 477.618 540.107 477.618H606.83C615.706 477.618 622.901 484.814 622.901 493.69V551.993C622.901 560.869 615.706 568.064 606.83 568.064H540.107C531.231 568.064 524.035 560.865 524.035 551.989C524.035 530.959 524.035 514.724 524.035 493.694Z" fill="#F5DAA3"/>
<path d="M638.973 325.877C638.973 317.544 645.728 310.788 654.062 310.788H722.75C731.083 310.788 737.839 317.544 737.839 325.877C737.839 334.211 731.083 340.966 722.75 340.966H654.062C645.728 340.966 638.973 334.211 638.973 325.877Z" fill="#A5C686"/>
<path d="M638.973 365.086C638.973 356.21 646.168 349.002 655.044 349.002H721.767C730.643 349.002 737.839 356.198 737.839 365.074V463.556C737.839 472.432 730.643 479.627 721.767 479.627H655.044C646.168 479.627 638.973 472.419 638.973 463.543C638.973 427.18 638.973 401.45 638.973 365.086Z" fill="#F6F9F2"/>
<path d="M638.973 503.747C638.973 494.871 646.168 487.663 655.044 487.663H721.767C730.643 487.663 737.839 494.858 737.839 503.734V602.216C737.839 611.092 730.643 618.287 721.767 618.287H655.044C646.168 618.287 638.973 611.079 638.973 602.203C638.973 565.84 638.973 540.11 638.973 503.747Z" fill="#F5DAA3"/>
<path d="M753.91 370.922C753.91 362.613 760.646 355.877 768.955 355.877H837.732C846.041 355.877 852.776 362.613 852.776 370.922C852.776 379.231 846.041 385.966 837.732 385.966H768.955C760.646 385.966 753.91 379.231 753.91 370.922Z" fill="#A5C686"/>
<path d="M753.91 410.078C753.91 401.202 761.106 394.002 769.982 394.002H836.705C845.581 394.002 852.776 401.198 852.776 410.074V468.377C852.776 477.253 845.581 484.448 836.705 484.448H769.982C761.106 484.448 753.91 477.249 753.91 468.373C753.91 447.343 753.91 431.108 753.91 410.078Z" fill="#F6F9F2"/>
<path d="M753.91 508.572C753.91 499.696 761.106 492.484 769.982 492.484H836.705C845.581 492.484 852.776 499.68 852.776 508.556V647.216C852.776 656.092 845.581 663.287 836.705 663.287H769.982C761.106 663.287 753.91 656.076 753.91 647.2C753.91 595.335 753.91 560.437 753.91 508.572Z" fill="#F5DAA3"/>
<path d="M868.848 370.922C868.848 362.613 875.583 355.877 883.892 355.877H952.669C960.978 355.877 967.714 362.613 967.714 370.922C967.714 379.231 960.978 385.966 952.669 385.966H883.892C875.583 385.966 868.848 379.231 868.848 370.922Z" fill="#A5C686"/>
<path d="M868.848 410.078C868.848 401.202 876.043 394.002 884.919 394.002H951.642C960.518 394.002 967.714 401.198 967.714 410.074V468.377C967.714 477.253 960.518 484.448 951.642 484.448H884.919C876.043 484.448 868.848 477.249 868.848 468.373C868.848 447.343 868.848 431.108 868.848 410.078Z" fill="#F6F9F2"/>
<path d="M868.848 508.572C868.848 499.696 876.043 492.484 884.919 492.484H951.642C960.518 492.484 967.714 499.68 967.714 508.556V647.216C967.714 656.092 960.518 663.287 951.642 663.287H884.919C876.043 663.287 868.848 656.076 868.848 647.2C868.848 595.335 868.848 560.437 868.848 508.572Z" fill="#F5DAA3"/>
<rect x="24" y="338" width="984" height="12" rx="6" fill="#080A07"/>
</svg>
