<?xml version="1.0" encoding="UTF-8" standalone="no"?><!DOCTYPE svg PUBLIC "-//W3C//DTD SVG 1.1//EN" "http://www.w3.org/Graphics/SVG/1.1/DTD/svg11.dtd"><svg width="100%" height="100%" viewBox="0 0 1217 1217" version="1.1" xmlns="http://www.w3.org/2000/svg" xmlns:xlink="http://www.w3.org/1999/xlink" xml:space="preserve" xmlns:serif="http://www.serif.com/" style="fill-rule:evenodd;clip-rule:evenodd;stroke-linejoin:round;stroke-miterlimit:2;"><g><g><path d="M1216.667,607.917l0,0c0,335.518 -272.398,607.917 -607.917,607.917l-0.042,0c-335.518,0 -607.917,-272.398 -607.917,-607.917c0,-335.518 272.398,-607.917 607.917,-607.917l0.042,0c335.518,0 607.917,272.398 607.917,607.917Z" style="fill:#f6f9f2;"/><path d="M118.505,491.767c-23.511,-5.6 -38.202,-29.271 -30.746,-52.258c26.535,-81.82 72.033,-156.453 133.029,-217.679c71.317,-71.586 161.041,-122.056 259.253,-145.83c98.213,-23.774 201.083,-19.927 297.246,11.118c96.158,31.045 181.862,88.076 247.633,164.79c65.771,76.714 109.046,170.122 125.042,269.897c15.996,99.771 4.088,202.025 -34.408,295.454c-38.492,93.429 -102.071,174.396 -183.708,233.942c-69.825,50.933 -150.529,84.5 -235.442,98.229c-23.858,3.854 -45.008,-14.279 -46.95,-38.367l-1.771,-21.992c-1.942,-24.092 16.079,-44.971 39.854,-49.304c64.767,-11.804 126.242,-38.083 179.729,-77.1c65.308,-47.638 116.175,-112.408 146.971,-187.154c30.792,-74.742 40.317,-156.546 27.521,-236.363c-12.796,-79.821 -47.417,-154.547 -100.029,-215.917c-52.617,-61.371 -121.179,-106.997 -198.108,-131.832c-76.929,-24.836 -159.229,-27.914 -237.796,-8.895c-78.571,19.019 -150.35,59.395 -207.404,116.665c-46.727,46.903 -82.086,103.641 -103.64,165.846c-7.913,22.833 -31.301,37.454 -54.812,31.858l-21.463,-5.108Z" style="fill:#374b3c;fill-rule:nonzero;"/><path d="M1112.971,608.042c24.171,0 43.942,19.621 42.017,43.712c-5.712,71.337 -25.354,141.017 -57.975,205.033c-39.254,77.046 -96.188,143.704 -166.138,194.525c-69.954,50.825 -150.946,84.371 -236.346,97.9c-85.404,13.525 -172.796,6.646 -255.029,-20.071c-82.235,-26.721 -156.978,-72.525 -218.12,-133.667c-61.141,-61.142 -106.944,-135.883 -133.664,-218.121c-26.72,-82.233 -33.598,-169.625 -20.071,-255.025c11.24,-70.967 36.303,-138.884 73.615,-199.954c12.6,-20.623 40.132,-24.876 59.684,-10.67l17.85,12.968c19.552,14.206 23.675,41.478 11.489,62.349c-27.378,46.887 -45.871,98.57 -54.404,152.449c-10.821,68.321 -5.319,138.233 16.057,204.021c21.376,65.788 58.018,125.583 106.931,174.496c48.913,48.913 108.708,85.558 174.495,106.933c65.787,21.375 135.7,26.879 204.025,16.058c68.321,-10.825 133.113,-37.663 189.075,-78.321c55.963,-40.658 101.508,-93.983 132.913,-155.621c24.763,-48.6 40.179,-101.283 45.592,-155.308c2.408,-24.05 21.775,-43.687 45.942,-43.687l22.062,0Z" style="fill:#a5c686;fill-rule:nonzero;"/><path d="M370.905,639.579c-14.514,0 -26.965,-3.054 -37.354,-9.167c-10.389,-6.263 -18.333,-15.275 -23.833,-27.042c-5.5,-11.763 -8.25,-26.275 -8.25,-43.542c0,-18.333 3.285,-33.838 9.854,-46.521c6.722,-12.679 15.965,-22.304 27.729,-28.875c11.917,-6.567 25.59,-9.854 41.021,-9.854c8.097,0 15.813,0.842 23.146,2.521c7.486,1.683 13.826,4.279 19.02,7.792l-10.999,22.458c-4.43,-2.9 -9.243,-4.887 -14.438,-5.958c-5.042,-1.221 -10.389,-1.833 -16.042,-1.833c-15.125,0 -27.118,4.663 -35.979,13.979c-8.861,9.321 -13.292,23.071 -13.292,41.25c0,2.904 0.076,6.342 0.229,10.312c0.153,3.821 0.688,7.717 1.604,11.688l-9.167,-10.083c2.75,-6.262 6.493,-11.458 11.229,-15.583c4.889,-4.275 10.618,-7.483 17.188,-9.625c6.722,-2.138 13.979,-3.208 21.771,-3.208c10.542,0 19.938,2.062 28.188,6.188c8.25,3.975 14.82,9.704 19.708,17.188c4.892,7.333 7.333,15.967 7.333,25.896c0,10.542 -2.596,19.708 -7.792,27.5c-5.194,7.792 -12.221,13.829 -21.083,18.104c-8.861,4.279 -18.792,6.417 -29.792,6.417Zm-1.604,-23.375c6.111,0 11.535,-1.067 16.271,-3.208c4.736,-2.292 8.403,-5.5 11,-9.625c2.75,-4.125 4.125,-8.938 4.125,-14.438c0,-8.4 -2.903,-15.046 -8.708,-19.938c-5.805,-4.888 -13.597,-7.333 -23.375,-7.333c-6.417,0 -12.07,1.225 -16.958,3.667c-4.736,2.292 -8.555,5.5 -11.458,9.625c-2.75,4.125 -4.125,8.862 -4.125,14.208c0,4.892 1.299,9.396 3.896,13.521c2.597,4.125 6.34,7.413 11.229,9.854c5.042,2.446 11.076,3.667 18.104,3.667Zm142.762,23.375c-12.683,0 -24.142,-3.208 -34.375,-9.625c-10.083,-6.417 -18.029,-15.733 -23.833,-27.958c-5.808,-12.375 -8.708,-27.346 -8.708,-44.917c0,-17.567 2.9,-32.463 8.708,-44.688c5.804,-12.375 13.75,-21.771 23.833,-28.188c10.233,-6.417 21.692,-9.625 34.375,-9.625c12.833,0 24.292,3.208 34.375,9.625c10.083,6.417 18.025,15.812 23.833,28.188c5.958,12.225 8.937,27.121 8.937,44.688c0,17.571 -2.979,32.542 -8.937,44.917c-5.808,12.225 -13.75,21.542 -23.833,27.958c-10.083,6.417 -21.542,9.625 -34.375,9.625Zm0,-25.896c7.483,0 13.979,-1.983 19.479,-5.958c5.5,-4.125 9.775,-10.388 12.833,-18.792c3.208,-8.4 4.812,-19.021 4.812,-31.854c0,-12.983 -1.604,-23.604 -4.812,-31.854c-3.058,-8.4 -7.333,-14.587 -12.833,-18.562c-5.5,-4.125 -11.996,-6.188 -19.479,-6.188c-7.183,0 -13.6,2.062 -19.25,6.188c-5.5,3.975 -9.854,10.162 -13.062,18.562c-3.058,8.25 -4.583,18.871 -4.583,31.854c0,12.833 1.525,23.454 4.583,31.854c3.208,8.404 7.562,14.667 13.062,18.792c5.65,3.975 12.067,5.958 19.25,5.958Zm109.733,23.604l109.542,-160.417l22.458,0l-109.542,160.417l-22.458,0Zm13.292,-74.021c-7.483,0 -14.129,-1.833 -19.938,-5.5c-5.804,-3.667 -10.312,-8.783 -13.521,-15.354c-3.208,-6.567 -4.812,-14.283 -4.812,-23.146c0,-8.858 1.604,-16.575 4.812,-23.146c3.208,-6.567 7.717,-11.688 13.521,-15.354c5.808,-3.667 12.454,-5.5 19.938,-5.5c7.792,0 14.517,1.833 20.167,5.5c5.808,3.667 10.312,8.787 13.521,15.354c3.208,6.571 4.812,14.288 4.812,23.146c0,8.863 -1.604,16.579 -4.812,23.146c-3.208,6.571 -7.712,11.688 -13.521,15.354c-5.65,3.667 -12.375,5.5 -20.167,5.5Zm0.229,-16.042c6.112,0 10.85,-2.367 14.208,-7.104c3.517,-4.887 5.271,-11.837 5.271,-20.854c0,-9.012 -1.754,-15.887 -5.271,-20.625c-3.358,-4.887 -8.096,-7.333 -14.208,-7.333c-6.108,0 -11,2.446 -14.667,7.333c-3.512,4.892 -5.271,11.767 -5.271,20.625c0,8.863 1.758,15.738 5.271,20.625c3.667,4.892 8.558,7.333 14.667,7.333Zm104.958,91.667c-7.483,0 -14.129,-1.833 -19.938,-5.5c-5.804,-3.667 -10.312,-8.783 -13.521,-15.354c-3.208,-6.567 -4.812,-14.283 -4.812,-23.146c0,-8.858 1.604,-16.575 4.812,-23.146c3.208,-6.567 7.717,-11.688 13.521,-15.354c5.808,-3.667 12.454,-5.5 19.938,-5.5c7.792,0 14.517,1.833 20.167,5.5c5.808,3.667 10.312,8.788 13.521,15.354c3.208,6.571 4.812,14.287 4.812,23.146c0,8.862 -1.604,16.579 -4.812,23.146c-3.208,6.571 -7.713,11.688 -13.521,15.354c-5.65,3.667 -12.375,5.5 -20.167,5.5Zm0,-16.042c6.113,0 10.925,-2.442 14.438,-7.333c3.517,-4.888 5.271,-11.762 5.271,-20.625c0,-8.858 -1.754,-15.733 -5.271,-20.625c-3.512,-4.888 -8.325,-7.333 -14.438,-7.333c-5.958,0 -10.771,2.446 -14.438,7.333c-3.512,4.737 -5.271,11.612 -5.271,20.625c0,9.017 1.758,15.967 5.271,20.854c3.667,4.737 8.479,7.104 14.438,7.104Zm106.079,-14.208l0,-103.125l24.521,0l0,103.125l-24.521,0Zm-40.563,-40.104l0,-22.917l105.646,0l0,22.917l-105.646,0Z" style="fill:#374b3c;fill-rule:nonzero;"/><g><g transform="matrix(74.020745,0,0,74.020745,904.956717,748.843411)"></g><text x="327.609px" y="748.843px" style="font-family:'ArialRoundedMTBold', 'Arial Rounded MT Bold', sans-serif;font-size:74.021px;fill:#374b3c;">Impr<tspan x="492.132px 535.865px 575.008px 618.994px " y="748.843px 748.843px 748.843px 748.843px ">oved</tspan> Slee<tspan x="840.189px " y="748.843px ">p</tspan></text></g></g></g></svg>