<?xml version="1.0" encoding="UTF-8" standalone="no"?>
<!DOCTYPE svg PUBLIC "-//W3C//DTD SVG 1.1//EN" "http://www.w3.org/Graphics/SVG/1.1/DTD/svg11.dtd">
<svg width="100%" height="100%" viewBox="0 0 292 292" version="1.1" xmlns="http://www.w3.org/2000/svg" xmlns:xlink="http://www.w3.org/1999/xlink" xml:space="preserve" xmlns:serif="http://www.serif.com/" style="fill-rule:evenodd;clip-rule:evenodd;stroke-linejoin:round;stroke-miterlimit:2;">
    <g transform="matrix(1,0,0,1,-428.326114,-630.448148)">
        <g transform="matrix(1,0,0,1,574.326114,776.448148)">
            <g transform="matrix(1,0,0,1,-146,-146)">
                <path d="M291.81,145.9L291.81,145.9C291.81,226.424 226.434,291.8 145.91,291.8L145.9,291.8C65.376,291.8 0,226.424 0,145.9C0,65.376 65.376,0 145.9,0L145.91,0C226.434,0 291.81,65.376 291.81,145.9Z" style="fill:rgb(246,249,242);"/>
                <g transform="matrix(1,0,0,1,2.327255,-0.746219)">
                    <g transform="matrix(12,0,0,12,220.2782,172.758918)">
                    </g>
                    <text x="72.162px" y="172.759px" style="font-family:'Poppins-Medium', 'Poppins';font-weight:500;font-size:12px;fill:rgb(55,75,60);">Enhanced Mental Clarity</text>
                </g>
                <path d="M28.251,118.024C22.609,116.68 19.083,110.999 20.872,105.482C27.241,85.845 38.16,67.933 52.799,53.239C69.915,36.058 91.449,23.945 115.02,18.24C138.591,12.534 163.28,13.457 186.359,20.908C209.437,28.359 230.006,42.046 245.791,60.458C261.576,78.869 271.962,101.287 275.801,125.233C279.64,149.178 276.782,173.719 267.543,196.142C258.305,218.565 243.046,237.997 223.453,252.288C206.695,264.512 187.326,272.568 166.947,275.863C161.221,276.788 156.145,272.436 155.679,266.655L155.254,261.377C154.788,255.595 159.113,250.584 164.819,249.544C180.363,246.711 195.117,240.404 207.954,231.04C223.628,219.607 235.836,204.062 243.227,186.123C250.617,168.185 252.903,148.552 249.832,129.396C246.761,110.239 238.452,92.305 225.825,77.576C213.197,62.847 196.742,51.897 178.279,45.936C159.816,39.975 140.064,39.237 121.208,43.801C102.351,48.366 85.124,58.056 71.431,71.801C60.217,83.058 51.73,96.675 46.557,111.604C44.658,117.084 39.045,120.593 33.403,119.25L28.251,118.024Z" style="fill:rgb(55,75,60);fill-rule:nonzero;"/>
                <path d="M266.923,145.93C272.724,145.93 277.469,150.639 277.007,156.421C275.636,173.542 270.922,190.265 263.093,205.629C253.672,224.12 240.008,240.118 223.22,252.315C206.431,264.513 186.993,272.564 166.497,275.811C146,279.057 125.026,277.406 105.29,270.994C85.554,264.581 67.615,253.588 52.941,238.914C38.267,224.24 27.275,206.302 20.862,186.565C14.449,166.829 12.798,145.855 16.045,125.359C18.742,108.327 24.757,92.027 33.712,77.37C36.736,72.421 43.344,71.4 48.037,74.809L52.321,77.921C57.013,81.331 58.003,87.876 55.078,92.885C48.507,104.138 44.069,116.542 42.021,129.473C39.424,145.87 40.744,162.649 45.875,178.438C51.005,194.227 59.799,208.578 71.538,220.317C83.277,232.056 97.628,240.851 113.417,245.981C129.206,251.111 145.985,252.432 162.383,249.835C178.78,247.237 194.33,240.796 207.761,231.038C221.192,221.28 232.123,208.482 239.66,193.689C245.603,182.025 249.303,169.381 250.602,156.415C251.18,150.643 255.828,145.93 261.628,145.93L266.923,145.93Z" style="fill:rgb(165,198,134);fill-rule:nonzero;"/>
                <path d="M88.827,153.499C85.344,153.499 82.356,152.766 79.862,151.299C77.369,149.796 75.462,147.633 74.142,144.809C72.822,141.986 72.162,138.503 72.162,134.359C72.162,129.959 72.951,126.238 74.527,123.194C76.141,120.151 78.359,117.841 81.182,116.264C84.042,114.688 87.324,113.899 91.027,113.899C92.971,113.899 94.822,114.101 96.582,114.504C98.379,114.908 99.9,115.531 101.147,116.374L98.507,121.764C97.444,121.068 96.289,120.591 95.042,120.334C93.832,120.041 92.549,119.894 91.192,119.894C87.562,119.894 84.684,121.013 82.557,123.249C80.43,125.486 79.367,128.786 79.367,133.149C79.367,133.846 79.385,134.671 79.422,135.624C79.459,136.541 79.587,137.476 79.807,138.429L77.607,136.009C78.267,134.506 79.165,133.259 80.302,132.269C81.475,131.243 82.85,130.473 84.427,129.959C86.04,129.446 87.782,129.189 89.652,129.189C92.182,129.189 94.437,129.684 96.417,130.674C98.397,131.628 99.974,133.003 101.147,134.799C102.321,136.559 102.907,138.631 102.907,141.014C102.907,143.544 102.284,145.744 101.037,147.614C99.79,149.484 98.104,150.933 95.977,151.959C93.85,152.986 91.467,153.499 88.827,153.499ZM88.442,147.889C89.909,147.889 91.21,147.633 92.347,147.119C93.484,146.569 94.364,145.799 94.987,144.809C95.647,143.819 95.977,142.664 95.977,141.344C95.977,139.328 95.281,137.733 93.887,136.559C92.494,135.386 90.624,134.799 88.277,134.799C86.737,134.799 85.38,135.093 84.207,135.679C83.07,136.229 82.154,136.999 81.457,137.989C80.797,138.979 80.467,140.116 80.467,141.399C80.467,142.573 80.779,143.654 81.402,144.644C82.025,145.634 82.924,146.423 84.097,147.009C85.307,147.596 86.755,147.889 88.442,147.889ZM122.705,153.499C119.661,153.499 116.911,152.729 114.455,151.189C112.035,149.649 110.128,147.413 108.735,144.479C107.341,141.509 106.645,137.916 106.645,133.699C106.645,129.483 107.341,125.908 108.735,122.974C110.128,120.004 112.035,117.749 114.455,116.209C116.911,114.669 119.661,113.899 122.705,113.899C125.785,113.899 128.535,114.669 130.955,116.209C133.375,117.749 135.281,120.004 136.675,122.974C138.105,125.908 138.82,129.483 138.82,133.699C138.82,137.916 138.105,141.509 136.675,144.479C135.281,147.413 133.375,149.649 130.955,151.189C128.535,152.729 125.785,153.499 122.705,153.499ZM122.705,147.284C124.501,147.284 126.06,146.808 127.38,145.854C128.7,144.864 129.726,143.361 130.46,141.344C131.23,139.328 131.615,136.779 131.615,133.699C131.615,130.583 131.23,128.034 130.46,126.054C129.726,124.038 128.7,122.553 127.38,121.599C126.06,120.609 124.501,120.114 122.705,120.114C120.981,120.114 119.441,120.609 118.085,121.599C116.765,122.553 115.72,124.038 114.95,126.054C114.216,128.034 113.85,130.583 113.85,133.699C113.85,136.779 114.216,139.328 114.95,141.344C115.72,143.361 116.765,144.864 118.085,145.854C119.441,146.808 120.981,147.284 122.705,147.284ZM149.041,152.949L175.331,114.449L180.721,114.449L154.431,152.949L149.041,152.949ZM152.231,135.184C150.435,135.184 148.84,134.744 147.446,133.864C146.053,132.984 144.971,131.756 144.201,130.179C143.431,128.603 143.046,126.751 143.046,124.624C143.046,122.498 143.431,120.646 144.201,119.069C144.971,117.493 146.053,116.264 147.446,115.384C148.84,114.504 150.435,114.064 152.231,114.064C154.101,114.064 155.715,114.504 157.071,115.384C158.465,116.264 159.546,117.493 160.316,119.069C161.086,120.646 161.471,122.498 161.471,124.624C161.471,126.751 161.086,128.603 160.316,130.179C159.546,131.756 158.465,132.984 157.071,133.864C155.715,134.744 154.101,135.184 152.231,135.184ZM152.286,131.334C153.753,131.334 154.89,130.766 155.696,129.629C156.54,128.456 156.961,126.788 156.961,124.624C156.961,122.461 156.54,120.811 155.696,119.674C154.89,118.501 153.753,117.914 152.286,117.914C150.82,117.914 149.646,118.501 148.766,119.674C147.923,120.848 147.501,122.498 147.501,124.624C147.501,126.751 147.923,128.401 148.766,129.574C149.646,130.748 150.82,131.334 152.286,131.334ZM177.476,153.334C175.68,153.334 174.085,152.894 172.691,152.014C171.298,151.134 170.216,149.906 169.446,148.329C168.676,146.753 168.291,144.901 168.291,142.774C168.291,140.648 168.676,138.796 169.446,137.219C170.216,135.643 171.298,134.414 172.691,133.534C174.085,132.654 175.68,132.214 177.476,132.214C179.346,132.214 180.96,132.654 182.316,133.534C183.71,134.414 184.791,135.643 185.561,137.219C186.331,138.796 186.716,140.648 186.716,142.774C186.716,144.901 186.331,146.753 185.561,148.329C184.791,149.906 183.71,151.134 182.316,152.014C180.96,152.894 179.346,153.334 177.476,153.334ZM177.476,149.484C178.943,149.484 180.098,148.898 180.941,147.724C181.785,146.551 182.206,144.901 182.206,142.774C182.206,140.648 181.785,138.998 180.941,137.824C180.098,136.651 178.943,136.064 177.476,136.064C176.046,136.064 174.891,136.651 174.011,137.824C173.168,138.961 172.746,140.611 172.746,142.774C172.746,144.938 173.168,146.606 174.011,147.779C174.891,148.916 176.046,149.484 177.476,149.484ZM202.935,146.074L202.935,121.324L208.82,121.324L208.82,146.074L202.935,146.074ZM193.2,136.449L193.2,130.949L218.555,130.949L218.555,136.449L193.2,136.449Z" style="fill:rgb(55,75,60);fill-rule:nonzero;"/>
            </g>
        </g>
    </g>
</svg>
