<svg width="675" height="574" viewBox="0 0 675 574" fill="none" xmlns="http://www.w3.org/2000/svg">
<rect x="89.8828" y="77.8008" width="177.171" height="41.886" rx="11.1166" fill="#F6F9F2"/>
<path d="M104.382 104.244V93.498H106.461V104.244H104.382ZM105.91 99.8415V97.9919H111.321V99.8415H105.91ZM105.91 95.3323V93.498H111.581V95.3323H105.91ZM115.686 104.397C115.013 104.397 114.407 104.228 113.867 103.892C113.327 103.556 112.904 103.097 112.598 102.516C112.292 101.936 112.139 101.283 112.139 100.56C112.139 99.8262 112.292 99.1689 112.598 98.5881C112.904 98.0072 113.327 97.5487 113.867 97.2124C114.407 96.8761 115.013 96.708 115.686 96.708C116.216 96.708 116.689 96.815 117.107 97.029C117.525 97.243 117.856 97.5436 118.101 97.9308C118.356 98.3078 118.493 98.7358 118.513 99.2148V101.874C118.493 102.364 118.356 102.797 118.101 103.174C117.856 103.551 117.525 103.851 117.107 104.076C116.689 104.29 116.216 104.397 115.686 104.397ZM116.053 102.547C116.613 102.547 117.066 102.364 117.413 101.997C117.759 101.62 117.933 101.136 117.933 100.545C117.933 100.157 117.851 99.816 117.688 99.5205C117.535 99.2148 117.316 98.9804 117.031 98.8174C116.756 98.6441 116.43 98.5575 116.053 98.5575C115.686 98.5575 115.36 98.6441 115.074 98.8174C114.799 98.9804 114.58 99.2148 114.417 99.5205C114.264 99.816 114.188 100.157 114.188 100.545C114.188 100.942 114.264 101.294 114.417 101.599C114.58 101.895 114.799 102.129 115.074 102.302C115.36 102.465 115.686 102.547 116.053 102.547ZM117.826 104.244V102.257L118.147 100.453L117.826 98.6798V96.8608H119.813V104.244H117.826ZM123.969 104.412C123.551 104.412 123.138 104.356 122.731 104.244C122.333 104.132 121.966 103.979 121.63 103.785C121.294 103.581 121.003 103.337 120.759 103.051L121.951 101.844C122.206 102.129 122.501 102.343 122.838 102.486C123.174 102.628 123.546 102.7 123.953 102.7C124.279 102.7 124.524 102.654 124.687 102.562C124.86 102.471 124.947 102.333 124.947 102.15C124.947 101.946 124.855 101.788 124.672 101.676C124.499 101.564 124.269 101.472 123.984 101.401C123.699 101.319 123.398 101.232 123.082 101.141C122.776 101.039 122.481 100.911 122.196 100.759C121.91 100.596 121.676 100.376 121.492 100.101C121.319 99.816 121.233 99.4491 121.233 99.0008C121.233 98.532 121.345 98.1244 121.569 97.7779C121.803 97.4315 122.134 97.1614 122.562 96.9678C122.99 96.7742 123.495 96.6774 124.076 96.6774C124.687 96.6774 125.237 96.7844 125.726 96.9984C126.226 97.2124 126.639 97.5334 126.965 97.9614L125.757 99.1689C125.533 98.8938 125.278 98.6951 124.993 98.5728C124.718 98.4505 124.417 98.3894 124.091 98.3894C123.795 98.3894 123.566 98.4352 123.403 98.5269C123.25 98.6186 123.174 98.746 123.174 98.9091C123.174 99.0925 123.26 99.2352 123.434 99.3371C123.617 99.439 123.851 99.5307 124.137 99.6122C124.422 99.6835 124.718 99.7701 125.023 99.872C125.339 99.9638 125.635 100.096 125.91 100.269C126.195 100.443 126.425 100.672 126.598 100.957C126.781 101.243 126.873 101.609 126.873 102.058C126.873 102.781 126.613 103.357 126.093 103.785C125.574 104.203 124.865 104.412 123.969 104.412ZM129.156 104.244V93.7885H131.158V104.244H129.156ZM127.428 98.6186V96.8608H132.885V98.6186H127.428ZM141.888 104.397C141.103 104.397 140.375 104.259 139.702 103.984C139.03 103.698 138.439 103.306 137.929 102.807C137.43 102.297 137.043 101.706 136.767 101.034C136.502 100.361 136.37 99.6377 136.37 98.8632C136.37 98.0887 136.502 97.3652 136.767 96.6927C137.043 96.0201 137.43 95.4342 137.929 94.9349C138.439 94.4355 139.025 94.0432 139.687 93.7579C140.359 93.4726 141.093 93.3299 141.888 93.3299C142.744 93.3299 143.498 93.4726 144.15 93.7579C144.802 94.033 145.378 94.4152 145.877 94.9043L144.471 96.3106C144.176 95.9845 143.814 95.7297 143.386 95.5463C142.958 95.3629 142.459 95.2711 141.888 95.2711C141.389 95.2711 140.93 95.3578 140.512 95.531C140.105 95.694 139.748 95.9386 139.442 96.2647C139.137 96.5806 138.902 96.9627 138.739 97.4111C138.576 97.8493 138.495 98.3333 138.495 98.8632C138.495 99.4033 138.576 99.8924 138.739 100.331C138.902 100.769 139.137 101.151 139.442 101.477C139.748 101.793 140.105 102.037 140.512 102.211C140.93 102.384 141.389 102.471 141.888 102.471C142.489 102.471 143.004 102.379 143.432 102.195C143.87 102.012 144.237 101.752 144.532 101.416L145.939 102.822C145.439 103.321 144.858 103.709 144.196 103.984C143.534 104.259 142.764 104.397 141.888 104.397ZM147.017 104.244V96.8608H149.019V104.244H147.017ZM149.019 100.162L148.24 99.6428C148.331 98.7358 148.596 98.0225 149.035 97.5028C149.473 96.9729 150.105 96.708 150.93 96.708C151.287 96.708 151.608 96.7691 151.893 96.8914C152.178 97.0035 152.438 97.192 152.673 97.457L151.419 98.8938C151.307 98.7715 151.169 98.6798 151.006 98.6186C150.854 98.5575 150.675 98.5269 150.471 98.5269C150.043 98.5269 149.692 98.6645 149.417 98.9396C149.152 99.2046 149.019 99.6122 149.019 100.162ZM156.102 104.397C155.429 104.397 154.823 104.228 154.283 103.892C153.743 103.556 153.32 103.097 153.014 102.516C152.708 101.936 152.556 101.283 152.556 100.56C152.556 99.8262 152.708 99.1689 153.014 98.5881C153.32 98.0072 153.743 97.5487 154.283 97.2124C154.823 96.8761 155.429 96.708 156.102 96.708C156.632 96.708 157.105 96.815 157.523 97.029C157.941 97.243 158.272 97.5436 158.517 97.9308C158.772 98.3078 158.909 98.7358 158.93 99.2148V101.874C158.909 102.364 158.772 102.797 158.517 103.174C158.272 103.551 157.941 103.851 157.523 104.076C157.105 104.29 156.632 104.397 156.102 104.397ZM156.469 102.547C157.029 102.547 157.482 102.364 157.829 101.997C158.175 101.62 158.349 101.136 158.349 100.545C158.349 100.157 158.267 99.816 158.104 99.5205C157.951 99.2148 157.732 98.9804 157.447 98.8174C157.172 98.6441 156.846 98.5575 156.469 98.5575C156.102 98.5575 155.776 98.6441 155.49 98.8174C155.215 98.9804 154.996 99.2148 154.833 99.5205C154.68 99.816 154.604 100.157 154.604 100.545C154.604 100.942 154.68 101.294 154.833 101.599C154.996 101.895 155.215 102.129 155.49 102.302C155.776 102.465 156.102 102.547 156.469 102.547ZM158.242 104.244V102.257L158.563 100.453L158.242 98.6798V96.8608H160.229V104.244H158.242ZM164.385 104.412C163.967 104.412 163.554 104.356 163.147 104.244C162.749 104.132 162.382 103.979 162.046 103.785C161.71 103.581 161.419 103.337 161.175 103.051L162.367 101.844C162.622 102.129 162.917 102.343 163.254 102.486C163.59 102.628 163.962 102.7 164.369 102.7C164.696 102.7 164.94 102.654 165.103 102.562C165.276 102.471 165.363 102.333 165.363 102.15C165.363 101.946 165.271 101.788 165.088 101.676C164.915 101.564 164.685 101.472 164.4 101.401C164.115 101.319 163.814 101.232 163.498 101.141C163.192 101.039 162.897 100.911 162.612 100.759C162.326 100.596 162.092 100.376 161.908 100.101C161.735 99.816 161.649 99.4491 161.649 99.0008C161.649 98.532 161.761 98.1244 161.985 97.7779C162.219 97.4315 162.55 97.1614 162.978 96.9678C163.406 96.7742 163.911 96.6774 164.492 96.6774C165.103 96.6774 165.653 96.7844 166.143 96.9984C166.642 97.2124 167.055 97.5334 167.381 97.9614L166.173 99.1689C165.949 98.8938 165.694 98.6951 165.409 98.5728C165.134 98.4505 164.833 98.3894 164.507 98.3894C164.211 98.3894 163.982 98.4352 163.819 98.5269C163.666 98.6186 163.59 98.746 163.59 98.9091C163.59 99.0925 163.676 99.2352 163.85 99.3371C164.033 99.439 164.268 99.5307 164.553 99.6122C164.838 99.6835 165.134 99.7701 165.439 99.872C165.755 99.9638 166.051 100.096 166.326 100.269C166.611 100.443 166.841 100.672 167.014 100.957C167.197 101.243 167.289 101.609 167.289 102.058C167.289 102.781 167.029 103.357 166.509 103.785C165.99 104.203 165.281 104.412 164.385 104.412ZM173.454 104.244V100.01C173.454 99.5714 173.316 99.2148 173.041 98.9396C172.766 98.6645 172.41 98.5269 171.971 98.5269C171.686 98.5269 171.431 98.5881 171.207 98.7104C170.983 98.8326 170.805 99.0059 170.672 99.2301C170.55 99.4542 170.489 99.7141 170.489 100.01L169.709 99.6122C169.709 99.0313 169.831 98.5269 170.076 98.0989C170.321 97.6608 170.657 97.3194 171.085 97.0748C171.523 96.8303 172.022 96.708 172.583 96.708C173.143 96.708 173.637 96.8303 174.065 97.0748C174.504 97.3194 174.845 97.6557 175.09 98.0837C175.334 98.5116 175.456 99.0059 175.456 99.5663V104.244H173.454ZM168.486 104.244V93.1923H170.489V104.244H168.486Z" fill="black"/>
<path d="M245.736 108.65L242.647 105.553C242.411 105.322 242.293 105.054 242.293 104.748C242.293 104.442 242.408 104.172 242.639 103.935C242.87 103.699 243.14 103.583 243.452 103.586C243.763 103.588 244.034 103.705 244.264 103.935L245.423 105.095V87.9803C245.423 87.6514 245.533 87.3819 245.752 87.1719C245.971 86.9616 246.248 86.8564 246.582 86.8564C246.911 86.8564 247.185 86.9674 247.403 87.1892C247.623 87.4109 247.732 87.6861 247.732 88.015V105.113L248.909 103.935C249.146 103.699 249.417 103.581 249.722 103.581C250.028 103.581 250.299 103.699 250.535 103.935C250.765 104.172 250.881 104.442 250.881 104.748C250.881 105.054 250.765 105.322 250.535 105.553L247.438 108.65C247.202 108.886 246.918 109.004 246.587 109.004C246.256 109.004 245.972 108.886 245.736 108.65Z" fill="#A5C686"/>
<path d="M227.282 100.126C227.218 100.126 227.218 100.126 227.154 100.119C226.45 100.041 225.936 99.343 226.006 98.5602L226.685 90.282C226.752 89.556 227.303 89 227.961 89H232.924C233.066 89 233.206 89.0256 233.341 89.0778C234.01 89.3336 234.366 90.143 234.136 90.8869L232.479 95.4513H235.534C235.76 95.4513 235.981 95.518 236.177 95.6436C236.789 96.0395 236.998 96.9112 236.642 97.5895C236.181 98.4968 231.549 106.28 230.053 108.792C229.934 108.992 229.629 108.894 229.641 108.662L230.144 100.119L227.283 100.126H227.282Z" stroke="#374B3C" stroke-width="2" stroke-linecap="round" stroke-linejoin="round"/>
</svg>
