<svg width="675" height="574" viewBox="0 0 675 574" fill="none" xmlns="http://www.w3.org/2000/svg">
<rect x="413.746" y="393" width="177.171" height="41.886" rx="11.1166" fill="#F6F9F2"/>
<path d="M428.245 419.443V408.697H430.324V419.443H428.245ZM429.774 419.443V417.593H435.246V419.443H429.774ZM439.265 419.596C438.593 419.596 437.986 419.428 437.446 419.091C436.906 418.755 436.483 418.296 436.178 417.716C435.872 417.135 435.719 416.483 435.719 415.759C435.719 415.025 435.872 414.368 436.178 413.787C436.483 413.206 436.906 412.748 437.446 412.412C437.986 412.075 438.593 411.907 439.265 411.907C439.795 411.907 440.269 412.014 440.687 412.228C441.105 412.442 441.436 412.743 441.68 413.13C441.935 413.507 442.073 413.935 442.093 414.414V417.074C442.073 417.563 441.935 417.996 441.68 418.373C441.436 418.75 441.105 419.051 440.687 419.275C440.269 419.489 439.795 419.596 439.265 419.596ZM439.632 417.746C440.193 417.746 440.646 417.563 440.993 417.196C441.339 416.819 441.512 416.335 441.512 415.744C441.512 415.357 441.431 415.015 441.268 414.72C441.115 414.414 440.896 414.18 440.61 414.017C440.335 413.843 440.009 413.757 439.632 413.757C439.265 413.757 438.939 413.843 438.654 414.017C438.379 414.18 438.16 414.414 437.997 414.72C437.844 415.015 437.767 415.357 437.767 415.744C437.767 416.141 437.844 416.493 437.997 416.799C438.16 417.094 438.379 417.328 438.654 417.502C438.939 417.665 439.265 417.746 439.632 417.746ZM441.405 419.443V417.456L441.726 415.652L441.405 413.879V412.06H443.392V419.443H441.405ZM447.548 419.611C447.131 419.611 446.718 419.555 446.31 419.443C445.913 419.331 445.546 419.178 445.21 418.984C444.873 418.781 444.583 418.536 444.338 418.251L445.531 417.043C445.785 417.328 446.081 417.542 446.417 417.685C446.753 417.828 447.125 417.899 447.533 417.899C447.859 417.899 448.104 417.853 448.267 417.761C448.44 417.67 448.527 417.532 448.527 417.349C448.527 417.145 448.435 416.987 448.251 416.875C448.078 416.763 447.849 416.671 447.564 416.6C447.278 416.518 446.978 416.432 446.662 416.34C446.356 416.238 446.061 416.111 445.775 415.958C445.49 415.795 445.256 415.576 445.072 415.301C444.899 415.015 444.812 414.648 444.812 414.2C444.812 413.731 444.924 413.324 445.149 412.977C445.383 412.631 445.714 412.361 446.142 412.167C446.57 411.973 447.074 411.877 447.655 411.877C448.267 411.877 448.817 411.984 449.306 412.198C449.805 412.412 450.218 412.733 450.544 413.161L449.337 414.368C449.113 414.093 448.858 413.894 448.572 413.772C448.297 413.65 447.997 413.589 447.671 413.589C447.375 413.589 447.146 413.634 446.983 413.726C446.83 413.818 446.753 413.945 446.753 414.108C446.753 414.292 446.84 414.434 447.013 414.536C447.197 414.638 447.431 414.73 447.716 414.811C448.002 414.883 448.297 414.969 448.603 415.071C448.919 415.163 449.214 415.295 449.49 415.469C449.775 415.642 450.004 415.871 450.177 416.157C450.361 416.442 450.453 416.809 450.453 417.257C450.453 417.981 450.193 418.556 449.673 418.984C449.153 419.402 448.445 419.611 447.548 419.611ZM452.735 419.443V408.988H454.738V419.443H452.735ZM451.008 413.818V412.06H456.465V413.818H451.008ZM457.438 419.443V412.06H459.456V419.443H457.438ZM458.447 410.868C458.121 410.868 457.851 410.761 457.637 410.547C457.423 410.323 457.316 410.047 457.316 409.721C457.316 409.405 457.423 409.135 457.637 408.911C457.851 408.687 458.121 408.575 458.447 408.575C458.783 408.575 459.053 408.687 459.257 408.911C459.471 409.135 459.578 409.405 459.578 409.721C459.578 410.047 459.471 410.323 459.257 410.547C459.053 410.761 458.783 410.868 458.447 410.868ZM466.044 419.443V415.209C466.044 414.771 465.907 414.414 465.632 414.139C465.357 413.864 465 413.726 464.562 413.726C464.276 413.726 464.022 413.787 463.798 413.91C463.573 414.032 463.395 414.205 463.263 414.429C463.14 414.653 463.079 414.913 463.079 415.209L462.3 414.811C462.3 414.231 462.422 413.726 462.666 413.298C462.921 412.86 463.268 412.519 463.706 412.274C464.154 412.029 464.659 411.907 465.219 411.907C465.759 411.907 466.243 412.045 466.671 412.32C467.099 412.585 467.435 412.936 467.68 413.375C467.925 413.803 468.047 414.266 468.047 414.766V419.443H466.044ZM461.077 419.443V412.06H463.079V419.443H461.077ZM472.595 422.714C471.81 422.714 471.117 422.571 470.516 422.286C469.915 422.011 469.436 421.618 469.079 421.109L470.348 419.84C470.633 420.177 470.949 420.431 471.295 420.605C471.652 420.788 472.08 420.88 472.579 420.88C473.201 420.88 473.69 420.722 474.047 420.406C474.414 420.09 474.597 419.652 474.597 419.091V417.242L474.933 415.622L474.612 414.001V412.06H476.599V419.061C476.599 419.794 476.426 420.431 476.08 420.971C475.743 421.522 475.275 421.95 474.673 422.255C474.072 422.561 473.379 422.714 472.595 422.714ZM472.503 419.244C471.841 419.244 471.244 419.086 470.714 418.77C470.185 418.444 469.767 418.001 469.461 417.44C469.166 416.88 469.018 416.253 469.018 415.56C469.018 414.867 469.166 414.246 469.461 413.696C469.767 413.145 470.185 412.712 470.714 412.396C471.244 412.07 471.841 411.907 472.503 411.907C473.053 411.907 473.537 412.014 473.955 412.228C474.383 412.442 474.719 412.738 474.964 413.115C475.208 413.482 475.341 413.915 475.361 414.414V416.737C475.341 417.226 475.203 417.665 474.949 418.052C474.704 418.429 474.368 418.724 473.94 418.938C473.522 419.142 473.043 419.244 472.503 419.244ZM472.9 417.425C473.267 417.425 473.583 417.349 473.848 417.196C474.123 417.033 474.337 416.814 474.49 416.539C474.643 416.253 474.719 415.932 474.719 415.576C474.719 415.209 474.643 414.888 474.49 414.613C474.337 414.338 474.123 414.124 473.848 413.971C473.583 413.808 473.267 413.726 472.9 413.726C472.533 413.726 472.212 413.808 471.937 413.971C471.662 414.124 471.448 414.343 471.295 414.628C471.142 414.903 471.066 415.219 471.066 415.576C471.066 415.922 471.142 416.238 471.295 416.523C471.448 416.799 471.662 417.018 471.937 417.181C472.212 417.344 472.533 417.425 472.9 417.425ZM481.252 419.443V408.697H483.331V419.443H481.252ZM482.781 415.041V413.191H488.192V415.041H482.781ZM482.781 410.532V408.697H488.452V410.532H482.781ZM492.938 419.596C492.195 419.596 491.522 419.428 490.921 419.091C490.33 418.745 489.856 418.281 489.499 417.7C489.153 417.109 488.98 416.452 488.98 415.729C488.98 415.005 489.153 414.358 489.499 413.787C489.846 413.206 490.32 412.748 490.921 412.412C491.522 412.065 492.189 411.892 492.923 411.892C493.677 411.892 494.35 412.065 494.941 412.412C495.542 412.748 496.016 413.206 496.362 413.787C496.709 414.358 496.882 415.005 496.882 415.729C496.882 416.452 496.709 417.109 496.362 417.7C496.016 418.281 495.542 418.745 494.941 419.091C494.35 419.428 493.682 419.596 492.938 419.596ZM492.923 417.731C493.3 417.731 493.631 417.649 493.917 417.486C494.212 417.313 494.436 417.079 494.589 416.783C494.752 416.478 494.834 416.131 494.834 415.744C494.834 415.357 494.752 415.015 494.589 414.72C494.426 414.424 494.202 414.195 493.917 414.032C493.631 413.859 493.3 413.772 492.923 413.772C492.556 413.772 492.23 413.859 491.945 414.032C491.66 414.195 491.435 414.424 491.272 414.72C491.109 415.015 491.028 415.357 491.028 415.744C491.028 416.131 491.109 416.478 491.272 416.783C491.435 417.079 491.66 417.313 491.945 417.486C492.23 417.649 492.556 417.731 492.923 417.731ZM501.503 419.596C500.749 419.596 500.072 419.428 499.47 419.091C498.869 418.755 498.395 418.296 498.049 417.716C497.702 417.135 497.529 416.483 497.529 415.759C497.529 415.025 497.702 414.368 498.049 413.787C498.395 413.206 498.869 412.748 499.47 412.412C500.082 412.065 500.759 411.892 501.503 411.892C502.084 411.892 502.619 411.999 503.108 412.213C503.597 412.427 504.02 412.733 504.377 413.13L503.093 414.429C502.899 414.215 502.665 414.052 502.39 413.94C502.125 413.828 501.829 413.772 501.503 413.772C501.137 413.772 500.805 413.859 500.51 414.032C500.224 414.195 499.995 414.424 499.822 414.72C499.659 415.005 499.577 415.346 499.577 415.744C499.577 416.131 499.659 416.478 499.822 416.783C499.995 417.079 500.224 417.313 500.51 417.486C500.805 417.649 501.137 417.731 501.503 417.731C501.84 417.731 502.14 417.675 502.405 417.563C502.68 417.44 502.915 417.267 503.108 417.043L504.408 418.342C504.031 418.75 503.597 419.061 503.108 419.275C502.619 419.489 502.084 419.596 501.503 419.596ZM508.538 419.596C507.885 419.596 507.304 419.458 506.795 419.183C506.296 418.908 505.903 418.526 505.618 418.037C505.333 417.547 505.19 416.982 505.19 416.34V412.06H507.208V416.294C507.208 416.6 507.259 416.865 507.361 417.089C507.462 417.303 507.615 417.466 507.819 417.578C508.023 417.69 508.262 417.746 508.538 417.746C508.955 417.746 509.281 417.619 509.516 417.364C509.75 417.109 509.867 416.753 509.867 416.294V412.06H511.87V416.34C511.87 416.992 511.727 417.563 511.442 418.052C511.167 418.541 510.774 418.923 510.265 419.198C509.765 419.463 509.19 419.596 508.538 419.596ZM515.849 419.611C515.431 419.611 515.018 419.555 514.611 419.443C514.213 419.331 513.846 419.178 513.51 418.984C513.174 418.781 512.883 418.536 512.639 418.251L513.831 417.043C514.086 417.328 514.381 417.542 514.718 417.685C515.054 417.828 515.426 417.899 515.834 417.899C516.16 417.899 516.404 417.853 516.567 417.761C516.74 417.67 516.827 417.532 516.827 417.349C516.827 417.145 516.735 416.987 516.552 416.875C516.379 416.763 516.149 416.671 515.864 416.6C515.579 416.518 515.278 416.432 514.962 416.34C514.657 416.238 514.361 416.111 514.076 415.958C513.79 415.795 513.556 415.576 513.373 415.301C513.199 415.015 513.113 414.648 513.113 414.2C513.113 413.731 513.225 413.324 513.449 412.977C513.683 412.631 514.015 412.361 514.443 412.167C514.871 411.973 515.375 411.877 515.956 411.877C516.567 411.877 517.117 411.984 517.607 412.198C518.106 412.412 518.519 412.733 518.845 413.161L517.637 414.368C517.413 414.093 517.158 413.894 516.873 413.772C516.598 413.65 516.297 413.589 515.971 413.589C515.676 413.589 515.446 413.634 515.283 413.726C515.13 413.818 515.054 413.945 515.054 414.108C515.054 414.292 515.141 414.434 515.314 414.536C515.497 414.638 515.732 414.73 516.017 414.811C516.302 414.883 516.598 414.969 516.903 415.071C517.219 415.163 517.515 415.295 517.79 415.469C518.075 415.642 518.305 415.871 518.478 416.157C518.661 416.442 518.753 416.809 518.753 417.257C518.753 417.981 518.493 418.556 517.973 418.984C517.454 419.402 516.746 419.611 515.849 419.611Z" fill="black"/>
<path d="M569.599 402.41L566.511 405.507C566.274 405.737 566.156 406.005 566.156 406.311C566.156 406.617 566.272 406.887 566.502 407.124C566.733 407.36 567.004 407.476 567.315 407.474C567.626 407.471 567.897 407.354 568.127 407.124L569.287 405.964V423.079C569.287 423.408 569.396 423.677 569.615 423.887C569.834 424.097 570.111 424.203 570.445 424.203C570.774 424.203 571.048 424.092 571.267 423.87C571.486 423.648 571.595 423.373 571.595 423.044V405.946L572.773 407.124C573.009 407.36 573.28 407.478 573.585 407.478C573.891 407.478 574.162 407.36 574.398 407.124C574.629 406.887 574.744 406.617 574.744 406.311C574.744 406.005 574.629 405.737 574.398 405.507L571.301 402.41C571.065 402.174 570.781 402.056 570.45 402.056C570.119 402.056 569.836 402.174 569.599 402.41Z" fill="#A5C686"/>
<path d="M551.891 414C551.891 414.294 552.008 414.577 552.216 414.785C552.424 414.994 552.707 415.111 553.002 415.111C553.296 415.111 553.579 414.994 553.787 414.785C553.996 414.577 554.113 414.294 554.113 414C554.113 413.705 553.996 413.422 553.787 413.214C553.579 413.006 553.296 412.889 553.002 412.889C552.707 412.889 552.424 413.006 552.216 413.214C552.008 413.422 551.891 413.705 551.891 414Z" stroke="#374B3C" stroke-width="2" stroke-linecap="round" stroke-linejoin="round"/>
<path d="M547.445 414C547.445 415.473 548.031 416.886 549.072 417.928C550.114 418.97 551.527 419.555 553.001 419.555C554.474 419.555 555.887 418.97 556.929 417.928C557.971 416.886 558.556 415.473 558.556 414C558.556 412.526 557.971 411.113 556.929 410.072C555.887 409.03 554.474 408.444 553.001 408.444C551.527 408.444 550.114 409.03 549.072 410.072C548.031 411.113 547.445 412.526 547.445 414Z" stroke="#374B3C" stroke-width="2" stroke-linecap="round" stroke-linejoin="round"/>
<path d="M543 414C543 415.313 543.259 416.614 543.761 417.827C544.264 419.04 545 420.142 545.929 421.071C546.858 422 547.96 422.736 549.173 423.239C550.386 423.741 551.687 424 553 424C554.313 424 555.614 423.741 556.827 423.239C558.04 422.736 559.142 422 560.071 421.071C561 420.142 561.736 419.04 562.239 417.827C562.741 416.614 563 415.313 563 414C563 412.687 562.741 411.386 562.239 410.173C561.736 408.96 561 407.858 560.071 406.929C559.142 406 558.04 405.264 556.827 404.761C555.614 404.259 554.313 404 553 404C551.687 404 550.386 404.259 549.173 404.761C547.96 405.264 546.858 406 545.929 406.929C545 407.858 544.264 408.96 543.761 410.173C543.259 411.386 543 412.687 543 414Z" stroke="#374B3C" stroke-width="2" stroke-linecap="round" stroke-linejoin="round"/>
</svg>
