<svg width="902" height="452" viewBox="0 0 902 452" fill="none" xmlns="http://www.w3.org/2000/svg">
<rect x="253" y="65" width="177.171" height="41.886" rx="11.1166" fill="#F6F9F2"/>
<path d="M267.499 91.4431V80.6975H269.578V91.4431H267.499ZM269.028 87.0409V85.1914H274.439V87.0409H269.028ZM269.028 82.5318V80.6975H274.698V82.5318H269.028ZM278.803 91.596C278.13 91.596 277.524 91.4278 276.984 91.0916C276.444 90.7553 276.021 90.2967 275.715 89.7159C275.41 89.135 275.257 88.4829 275.257 87.7593C275.257 87.0256 275.41 86.3684 275.715 85.7875C276.021 85.2067 276.444 84.7481 276.984 84.4119C277.524 84.0756 278.13 83.9074 278.803 83.9074C279.333 83.9074 279.807 84.0144 280.224 84.2284C280.642 84.4424 280.973 84.743 281.218 85.1303C281.473 85.5073 281.61 85.9353 281.631 86.4142V89.0739C281.61 89.563 281.473 89.9961 281.218 90.3731C280.973 90.7502 280.642 91.0508 280.224 91.275C279.807 91.489 279.333 91.596 278.803 91.596ZM279.17 89.7464C279.73 89.7464 280.184 89.563 280.53 89.1962C280.877 88.8191 281.05 88.3351 281.05 87.7441C281.05 87.3568 280.968 87.0155 280.805 86.7199C280.652 86.4142 280.433 86.1799 280.148 86.0168C279.873 85.8436 279.547 85.757 279.17 85.757C278.803 85.757 278.477 85.8436 278.191 86.0168C277.916 86.1799 277.697 86.4142 277.534 86.7199C277.381 87.0155 277.305 87.3568 277.305 87.7441C277.305 88.1415 277.381 88.493 277.534 88.7987C277.697 89.0943 277.916 89.3286 278.191 89.5019C278.477 89.6649 278.803 89.7464 279.17 89.7464ZM280.943 91.4431V89.456L281.264 87.6523L280.943 85.8792V84.0603H282.93V91.4431H280.943ZM287.086 91.6113C286.668 91.6113 286.255 91.5552 285.848 91.4431C285.45 91.331 285.083 91.1782 284.747 90.9846C284.411 90.7807 284.12 90.5362 283.876 90.2509L285.068 89.0433C285.323 89.3286 285.618 89.5426 285.955 89.6853C286.291 89.828 286.663 89.8993 287.071 89.8993C287.397 89.8993 287.641 89.8534 287.804 89.7617C287.977 89.67 288.064 89.5324 288.064 89.349C288.064 89.1452 287.972 88.9873 287.789 88.8752C287.616 88.7631 287.386 88.6714 287.101 88.6C286.816 88.5185 286.515 88.4319 286.199 88.3402C285.894 88.2383 285.598 88.1109 285.313 87.9581C285.027 87.795 284.793 87.5759 284.61 87.3008C284.436 87.0155 284.35 86.6486 284.35 86.2002C284.35 85.7315 284.462 85.3239 284.686 84.9774C284.92 84.6309 285.252 84.3609 285.68 84.1673C286.108 83.9737 286.612 83.8769 287.193 83.8769C287.804 83.8769 288.355 83.9839 288.844 84.1979C289.343 84.4119 289.756 84.7328 290.082 85.1608L288.874 86.3684C288.65 86.0932 288.395 85.8945 288.11 85.7722C287.835 85.65 287.534 85.5888 287.208 85.5888C286.913 85.5888 286.683 85.6347 286.52 85.7264C286.367 85.8181 286.291 85.9455 286.291 86.1085C286.291 86.2919 286.378 86.4346 286.551 86.5365C286.734 86.6384 286.969 86.7301 287.254 86.8117C287.539 86.883 287.835 86.9696 288.141 87.0715C288.456 87.1632 288.752 87.2957 289.027 87.4689C289.312 87.6422 289.542 87.8714 289.715 88.1568C289.898 88.4421 289.99 88.8089 289.99 89.2573C289.99 89.9808 289.73 90.5566 289.211 90.9846C288.691 91.4024 287.983 91.6113 287.086 91.6113ZM292.273 91.4431V80.9879H294.275V91.4431H292.273ZM290.545 85.8181V84.0603H296.002V85.8181H290.545ZM305.005 91.596C304.221 91.596 303.492 91.4584 302.819 91.1833C302.147 90.8979 301.556 90.5056 301.046 90.0063C300.547 89.4968 300.16 88.9057 299.885 88.2332C299.62 87.5606 299.487 86.8371 299.487 86.0627C299.487 85.2882 299.62 84.5647 299.885 83.8921C300.16 83.2196 300.547 82.6337 301.046 82.1343C301.556 81.635 302.142 81.2427 302.804 80.9574C303.477 80.672 304.21 80.5294 305.005 80.5294C305.861 80.5294 306.615 80.672 307.267 80.9574C307.92 81.2325 308.495 81.6146 308.995 82.1038L307.588 83.51C307.293 83.1839 306.931 82.9292 306.503 82.7457C306.075 82.5623 305.576 82.4706 305.005 82.4706C304.506 82.4706 304.047 82.5572 303.63 82.7305C303.222 82.8935 302.865 83.1381 302.56 83.4642C302.254 83.7801 302.019 84.1622 301.856 84.6106C301.693 85.0487 301.612 85.5328 301.612 86.0627C301.612 86.6028 301.693 87.0919 301.856 87.5301C302.019 87.9682 302.254 88.3504 302.56 88.6765C302.865 88.9924 303.222 89.2369 303.63 89.4102C304.047 89.5834 304.506 89.67 305.005 89.67C305.606 89.67 306.121 89.5783 306.549 89.3949C306.987 89.2115 307.354 88.9516 307.65 88.6153L309.056 90.0216C308.556 90.5209 307.976 90.9081 307.313 91.1833C306.651 91.4584 305.882 91.596 305.005 91.596ZM310.134 91.4431V84.0603H312.137V91.4431H310.134ZM312.137 87.3619L311.357 86.8422C311.449 85.9353 311.714 85.222 312.152 84.7023C312.59 84.1724 313.222 83.9074 314.047 83.9074C314.404 83.9074 314.725 83.9686 315.01 84.0909C315.295 84.203 315.555 84.3915 315.79 84.6564L314.536 86.0932C314.424 85.971 314.287 85.8792 314.124 85.8181C313.971 85.757 313.792 85.7264 313.589 85.7264C313.161 85.7264 312.809 85.864 312.534 86.1391C312.269 86.404 312.137 86.8117 312.137 87.3619ZM319.219 91.596C318.546 91.596 317.94 91.4278 317.4 91.0916C316.86 90.7553 316.437 90.2967 316.131 89.7159C315.826 89.135 315.673 88.4829 315.673 87.7593C315.673 87.0256 315.826 86.3684 316.131 85.7875C316.437 85.2067 316.86 84.7481 317.4 84.4119C317.94 84.0756 318.546 83.9074 319.219 83.9074C319.749 83.9074 320.223 84.0144 320.64 84.2284C321.058 84.4424 321.389 84.743 321.634 85.1303C321.889 85.5073 322.026 85.9353 322.047 86.4142V89.0739C322.026 89.563 321.889 89.9961 321.634 90.3731C321.389 90.7502 321.058 91.0508 320.64 91.275C320.223 91.489 319.749 91.596 319.219 91.596ZM319.586 89.7464C320.146 89.7464 320.6 89.563 320.946 89.1962C321.293 88.8191 321.466 88.3351 321.466 87.7441C321.466 87.3568 321.384 87.0155 321.221 86.7199C321.068 86.4142 320.849 86.1799 320.564 86.0168C320.289 85.8436 319.963 85.757 319.586 85.757C319.219 85.757 318.893 85.8436 318.607 86.0168C318.332 86.1799 318.113 86.4142 317.95 86.7199C317.797 87.0155 317.721 87.3568 317.721 87.7441C317.721 88.1415 317.797 88.493 317.95 88.7987C318.113 89.0943 318.332 89.3286 318.607 89.5019C318.893 89.6649 319.219 89.7464 319.586 89.7464ZM321.359 91.4431V89.456L321.68 87.6523L321.359 85.8792V84.0603H323.346V91.4431H321.359ZM327.502 91.6113C327.084 91.6113 326.671 91.5552 326.264 91.4431C325.866 91.331 325.5 91.1782 325.163 90.9846C324.827 90.7807 324.537 90.5362 324.292 90.2509L325.484 89.0433C325.739 89.3286 326.034 89.5426 326.371 89.6853C326.707 89.828 327.079 89.8993 327.487 89.8993C327.813 89.8993 328.057 89.8534 328.22 89.7617C328.394 89.67 328.48 89.5324 328.48 89.349C328.48 89.1452 328.388 88.9873 328.205 88.8752C328.032 88.7631 327.803 88.6714 327.517 88.6C327.232 88.5185 326.931 88.4319 326.615 88.3402C326.31 88.2383 326.014 88.1109 325.729 87.9581C325.443 87.795 325.209 87.5759 325.026 87.3008C324.852 87.0155 324.766 86.6486 324.766 86.2002C324.766 85.7315 324.878 85.3239 325.102 84.9774C325.336 84.6309 325.668 84.3609 326.096 84.1673C326.524 83.9737 327.028 83.8769 327.609 83.8769C328.22 83.8769 328.771 83.9839 329.26 84.1979C329.759 84.4119 330.172 84.7328 330.498 85.1608L329.29 86.3684C329.066 86.0932 328.811 85.8945 328.526 85.7722C328.251 85.65 327.95 85.5888 327.624 85.5888C327.329 85.5888 327.099 85.6347 326.936 85.7264C326.783 85.8181 326.707 85.9455 326.707 86.1085C326.707 86.2919 326.794 86.4346 326.967 86.5365C327.15 86.6384 327.385 86.7301 327.67 86.8117C327.955 86.883 328.251 86.9696 328.557 87.0715C328.872 87.1632 329.168 87.2957 329.443 87.4689C329.728 87.6422 329.958 87.8714 330.131 88.1568C330.314 88.4421 330.406 88.8089 330.406 89.2573C330.406 89.9808 330.146 90.5566 329.627 90.9846C329.107 91.4024 328.399 91.6113 327.502 91.6113ZM336.571 91.4431V87.2091C336.571 86.7709 336.434 86.4142 336.159 86.1391C335.883 85.864 335.527 85.7264 335.089 85.7264C334.803 85.7264 334.548 85.7875 334.324 85.9098C334.1 86.0321 333.922 86.2053 333.789 86.4295C333.667 86.6537 333.606 86.9136 333.606 87.2091L332.826 86.8117C332.826 86.2308 332.949 85.7264 333.193 85.2984C333.438 84.8602 333.774 84.5188 334.202 84.2743C334.64 84.0297 335.14 83.9074 335.7 83.9074C336.26 83.9074 336.755 84.0297 337.183 84.2743C337.621 84.5188 337.962 84.8551 338.207 85.2831C338.451 85.7111 338.574 86.2053 338.574 86.7658V91.4431H336.571ZM331.604 91.4431V80.3918H333.606V91.4431H331.604Z" fill="black"/>
<path d="M408.853 95.849L405.765 92.752C405.528 92.5213 405.41 92.2531 405.41 91.9474C405.41 91.6419 405.525 91.3711 405.756 91.1349C405.987 90.8989 406.258 90.7823 406.569 90.785C406.88 90.7878 407.151 90.9044 407.381 91.1349L408.541 92.2941V75.1797C408.541 74.8509 408.65 74.5814 408.869 74.3713C409.088 74.1611 409.365 74.0559 409.699 74.0559C410.028 74.0559 410.302 74.1668 410.521 74.3887C410.74 74.6103 410.849 74.8856 410.849 75.2145V92.3122L412.027 91.1349C412.263 90.8989 412.534 90.7809 412.839 90.7809C413.145 90.7809 413.416 90.8989 413.652 91.1349C413.882 91.3711 413.998 91.6419 413.998 91.9474C413.998 92.2531 413.882 92.5213 413.652 92.752L410.555 95.849C410.319 96.085 410.035 96.203 409.704 96.203C409.373 96.203 409.089 96.085 408.853 95.849Z" fill="#A5C686"/>
<path d="M390.399 87.325C390.336 87.325 390.336 87.325 390.271 87.3183C389.567 87.2404 389.054 86.5422 389.124 85.7594L389.802 77.4812C389.87 76.7552 390.42 76.1992 391.078 76.1992H396.041C396.183 76.1992 396.323 76.2248 396.458 76.2771C397.127 76.5328 397.483 77.3423 397.253 78.0861L395.596 82.6505H398.652C398.877 82.6505 399.098 82.7172 399.294 82.8429C399.906 83.2387 400.115 84.1104 399.759 84.7887C399.299 85.696 394.666 93.4794 393.17 95.9912C393.051 96.1913 392.746 96.0934 392.758 95.8611L393.261 87.3183L390.4 87.325H390.399Z" stroke="#374B3C" stroke-width="2" stroke-linecap="round" stroke-linejoin="round"/>
</svg>
