<svg width="675" height="574" viewBox="0 0 675 574" fill="none" xmlns="http://www.w3.org/2000/svg">
<g clip-path="url(#clip0_8839_209)">
<rect x="601" y="574" width="574" height="74" transform="rotate(-90 601 574)" fill="url(#paint0_linear_8839_209)"/>
<rect width="574" height="74" transform="matrix(0 -1 -1 0 74 574)" fill="url(#paint1_linear_8839_209)"/>
<rect y="412" width="675" height="162" fill="url(#paint2_linear_8839_209)"/>
<path d="M40 354.675H27.1638V352.192H40V354.675ZM40 352.85H37.8089V345.747H40V352.85ZM34.504 352.85H32.3859V346.386H34.504V352.85ZM29.3549 352.85H27.1638V345.838H29.3549V352.85ZM40 343.874H27.1638V342.139L29.647 341.391H40V343.874ZM40 335L30.14 342.614L27.1638 342.139L37.0238 334.525L40 335ZM40 335L37.5898 335.712H27.1638V333.211H40V335ZM40 330.79H27.1638V328.307H40V330.79ZM40 328.964H37.8089V321.861H40V328.964ZM34.504 328.964H32.3859V322.5H34.504V328.964ZM29.3549 328.964H27.1638V321.953H29.3549V328.964ZM34.6318 318.163H32.6963V315.187C32.6963 314.578 32.5442 314.109 32.2398 313.781C31.9234 313.44 31.4912 313.269 30.9434 313.269C30.4444 313.269 30.0305 313.44 29.7018 313.781C29.361 314.109 29.1906 314.578 29.1906 315.187V318.163H27.1638V314.967C27.1638 314.14 27.3281 313.415 27.6568 312.795C27.9733 312.162 28.4115 311.675 28.9715 311.334C29.5314 310.981 30.1766 310.804 30.9069 310.804C31.6616 310.804 32.319 310.981 32.8789 311.334C33.4267 311.675 33.8588 312.162 34.1753 312.795C34.4796 313.428 34.6318 314.164 34.6318 315.004V318.163ZM40 319.989H27.1638L27.1638 317.505H40V319.989ZM40 312.977L34.4492 317.213L33.7371 314.931L40 309.964V312.977ZM40.1826 302.914C40.1826 303.827 40.0183 304.685 39.6896 305.489C39.3488 306.28 38.874 306.98 38.2654 307.589C37.6567 308.185 36.9568 308.654 36.1656 308.995C35.3622 309.323 34.4979 309.488 33.5728 309.488C32.6355 309.488 31.7712 309.317 30.98 308.976C30.1766 308.635 29.4766 308.161 28.8802 307.552C28.2715 306.943 27.8029 306.231 27.4742 305.416C27.1334 304.6 26.9629 303.718 26.9629 302.768C26.9629 301.709 27.1638 300.735 27.5655 299.847C27.955 298.958 28.5089 298.222 29.2271 297.637L30.9069 299.317C30.3835 299.719 29.9818 300.218 29.7018 300.814C29.4218 301.411 29.2819 302.068 29.2819 302.786C29.2819 303.602 29.4644 304.326 29.8296 304.959C30.1826 305.58 30.6817 306.067 31.3269 306.42C31.9599 306.773 32.7024 306.95 33.5545 306.95C34.4066 306.95 35.1613 306.779 35.8186 306.438C36.4638 306.085 36.969 305.611 37.3342 305.014C37.6993 304.405 37.8819 303.712 37.8819 302.932C37.8819 302.129 37.7359 301.441 37.4437 300.869C37.1394 300.297 36.7012 299.859 36.1291 299.555C35.5448 299.25 34.8326 299.098 33.9927 299.098L35.1065 297.473L35.0518 303.079H32.8972V296.542H33.2441C34.7779 296.542 36.0621 296.816 37.0968 297.363C38.1193 297.911 38.8923 298.666 39.4157 299.628C39.927 300.577 40.1826 301.673 40.1826 302.914ZM35.0518 291.57L27.1638 296.537V293.67L33.4815 289.817V291.461L27.1638 287.608V284.778L35.0518 289.799V291.57ZM40 291.899H33.7188V289.397H40V291.899ZM40 280.474H27.1638V277.991H40V280.474ZM40 278.648H37.7906V272.111H40V278.648ZM40 270.511H27.1638V268.027H40L40 270.511ZM40 268.685H37.8089L37.8089 261.582H40L40 268.685ZM34.504 268.685H32.3859V262.221H34.504V268.685ZM29.3549 268.685H27.1638V261.673H29.3549V268.685ZM40 255.85L27.1638 260.908V258.224L37.5533 254.317V255.357L27.1638 251.413V248.766L40 253.878V255.85ZM40 247.267H27.1638V244.784H40V247.267ZM40 245.441H37.8089V238.338H40V245.441ZM34.504 245.441H32.3859V238.978H34.504V245.441ZM29.3549 245.441H27.1638V238.43H29.3549V245.441ZM40 236.466H27.1638V233.983H40V236.466ZM40 234.64H37.7906V228.103H40V234.64ZM40.1826 223.366C40.1826 224.401 40.0061 225.289 39.6531 226.032C39.3001 226.762 38.7705 227.426 38.0645 228.022L36.4212 226.379C36.9203 226.001 37.3098 225.563 37.5898 225.064C37.8576 224.565 37.9915 223.956 37.9915 223.238C37.9915 222.593 37.8637 222.082 37.608 221.704C37.3524 221.315 36.9994 221.12 36.549 221.12C36.1595 221.12 35.843 221.23 35.5995 221.449C35.3561 221.668 35.1491 221.96 34.9787 222.325C34.8083 222.678 34.6561 223.074 34.5222 223.512C34.3762 223.938 34.2118 224.37 34.0292 224.808C33.8467 225.234 33.6215 225.63 33.3537 225.995C33.0737 226.348 32.7207 226.634 32.2946 226.853C31.8564 227.073 31.3086 227.182 30.6513 227.182C29.8722 227.182 29.2088 226.993 28.661 226.616C28.1133 226.239 27.6933 225.721 27.4012 225.064C27.109 224.407 26.9629 223.664 26.9629 222.836C26.9629 221.96 27.1273 221.169 27.4559 220.463C27.7846 219.757 28.2107 219.179 28.7341 218.728L30.3774 220.371C29.9635 220.749 29.6592 221.138 29.4644 221.54C29.2697 221.93 29.1723 222.374 29.1723 222.873C29.1723 223.445 29.2819 223.895 29.501 224.224C29.7201 224.553 30.0366 224.717 30.4504 224.717C30.8035 224.717 31.0895 224.608 31.3086 224.388C31.5277 224.169 31.7164 223.883 31.8747 223.53C32.0329 223.165 32.1851 222.769 32.3311 222.343C32.4772 221.905 32.6415 221.473 32.8241 221.047C33.0067 220.609 33.2441 220.213 33.5362 219.86C33.8284 219.495 34.2058 219.203 34.6683 218.984C35.1187 218.765 35.6787 218.655 36.3482 218.655C37.5411 218.655 38.4784 219.075 39.1601 219.915C39.8418 220.755 40.1826 221.905 40.1826 223.366Z" fill="#F6F9F2"/>
<path d="M308.315 548V535.164H310.798V548H308.315ZM316.367 548V535.164H318.85V548H316.367ZM309.885 542.467V540.276H317.061V542.467H309.885ZM327.299 548.201C326.361 548.201 325.485 548.03 324.669 547.69C323.866 547.349 323.16 546.88 322.551 546.284C321.955 545.675 321.486 544.969 321.145 544.166C320.805 543.35 320.634 542.48 320.634 541.555C320.634 540.629 320.799 539.771 321.127 538.98C321.468 538.177 321.937 537.477 322.533 536.88C323.142 536.272 323.848 535.803 324.651 535.474C325.455 535.133 326.325 534.963 327.262 534.963C328.212 534.963 329.088 535.133 329.892 535.474C330.695 535.803 331.395 536.272 331.991 536.88C332.6 537.477 333.075 538.177 333.416 538.98C333.756 539.783 333.927 540.648 333.927 541.573C333.927 542.498 333.756 543.362 333.416 544.166C333.075 544.969 332.6 545.675 331.991 546.284C331.395 546.88 330.695 547.349 329.892 547.69C329.1 548.03 328.236 548.201 327.299 548.201ZM327.262 545.882C328.09 545.882 328.808 545.699 329.417 545.334C330.026 544.969 330.5 544.464 330.841 543.819C331.194 543.173 331.371 542.419 331.371 541.555C331.371 540.922 331.273 540.343 331.078 539.82C330.884 539.296 330.604 538.846 330.239 538.469C329.873 538.079 329.441 537.781 328.942 537.574C328.443 537.367 327.883 537.264 327.262 537.264C326.459 537.264 325.747 537.446 325.126 537.811C324.517 538.164 324.036 538.663 323.683 539.309C323.343 539.954 323.172 540.702 323.172 541.555C323.172 542.2 323.27 542.79 323.464 543.326C323.671 543.861 323.951 544.318 324.304 544.695C324.669 545.072 325.102 545.365 325.601 545.572C326.112 545.778 326.666 545.882 327.262 545.882ZM340.771 548.183C339.76 548.183 338.859 547.963 338.068 547.525C337.289 547.075 336.674 546.46 336.224 545.681C335.774 544.902 335.548 544.019 335.548 543.034V535.164H338.032V543.107C338.032 543.679 338.147 544.172 338.379 544.586C338.622 544.999 338.951 545.322 339.365 545.553C339.791 545.772 340.259 545.882 340.771 545.882C341.294 545.882 341.757 545.772 342.158 545.553C342.56 545.322 342.876 544.999 343.108 544.586C343.351 544.172 343.473 543.685 343.473 543.125V535.164H345.974V543.052C345.974 544.038 345.749 544.92 345.299 545.699C344.848 546.466 344.234 547.075 343.455 547.525C342.688 547.963 341.793 548.183 340.771 548.183ZM350.07 542.632V540.696H353.046C353.655 540.696 354.123 540.544 354.452 540.24C354.793 539.923 354.963 539.491 354.963 538.943C354.963 538.444 354.793 538.03 354.452 537.702C354.123 537.361 353.655 537.191 353.046 537.191H350.07V535.164H353.265C354.093 535.164 354.817 535.328 355.438 535.657C356.071 535.973 356.558 536.412 356.899 536.971C357.252 537.531 357.428 538.177 357.428 538.907C357.428 539.662 357.252 540.319 356.899 540.879C356.558 541.427 356.071 541.859 355.438 542.175C354.805 542.48 354.068 542.632 353.229 542.632H350.07ZM348.244 548V535.164H350.727V548H348.244ZM355.255 548L351.019 542.449L353.302 541.737L358.268 548H355.255ZM362.877 548.183C361.842 548.183 360.954 548.006 360.211 547.653C359.481 547.3 358.817 546.771 358.221 546.065L359.864 544.421C360.242 544.92 360.68 545.31 361.179 545.59C361.678 545.858 362.287 545.991 363.005 545.991C363.65 545.991 364.161 545.864 364.539 545.608C364.928 545.352 365.123 544.999 365.123 544.549C365.123 544.159 365.013 543.843 364.794 543.6C364.575 543.356 364.283 543.149 363.918 542.979C363.565 542.808 363.169 542.656 362.731 542.522C362.305 542.376 361.873 542.212 361.435 542.029C361.009 541.847 360.613 541.621 360.248 541.354C359.895 541.074 359.609 540.721 359.39 540.295C359.17 539.856 359.061 539.309 359.061 538.651C359.061 537.872 359.25 537.209 359.627 536.661C360.004 536.113 360.522 535.693 361.179 535.401C361.836 535.109 362.579 534.963 363.407 534.963C364.283 534.963 365.074 535.127 365.78 535.456C366.486 535.785 367.065 536.211 367.515 536.734L365.872 538.377C365.494 537.964 365.105 537.659 364.703 537.464C364.313 537.27 363.869 537.172 363.37 537.172C362.798 537.172 362.348 537.282 362.019 537.501C361.69 537.72 361.526 538.037 361.526 538.45C361.526 538.803 361.635 539.09 361.855 539.309C362.074 539.528 362.36 539.716 362.713 539.875C363.078 540.033 363.474 540.185 363.9 540.331C364.338 540.477 364.77 540.642 365.196 540.824C365.634 541.007 366.03 541.244 366.383 541.536C366.748 541.828 367.04 542.206 367.259 542.668C367.478 543.119 367.588 543.679 367.588 544.348C367.588 545.541 367.168 546.478 366.328 547.16C365.488 547.842 364.338 548.183 362.877 548.183Z" fill="#F6F9F2"/>
<rect x="192" y="30" width="21" height="21" rx="6" fill="#A5C686"/>
<path d="M222.101 46V35.2544H223.568L227.924 42.2245H227.084L231.425 35.2544H232.892V46H230.828V38.8159L231.226 38.9382L228.199 43.7989H226.793L223.767 38.9382L224.179 38.8159V46H222.101ZM237.808 46.1529C237.135 46.1529 236.529 45.9847 235.989 45.6484C235.449 45.3122 235.026 44.8536 234.72 44.2728C234.415 43.6919 234.262 43.0397 234.262 42.3162C234.262 41.5825 234.415 40.9253 234.72 40.3444C235.026 39.7636 235.449 39.305 235.989 38.9687C236.529 38.6325 237.135 38.4643 237.808 38.4643C238.338 38.4643 238.812 38.5713 239.229 38.7853C239.647 38.9993 239.978 39.2999 240.223 39.6871C240.478 40.0642 240.615 40.4922 240.636 40.9711V43.6308C240.615 44.1199 240.478 44.553 240.223 44.93C239.978 45.3071 239.647 45.6077 239.229 45.8319C238.812 46.0459 238.338 46.1529 237.808 46.1529ZM238.175 44.3033C238.735 44.3033 239.189 44.1199 239.535 43.7531C239.882 43.376 240.055 42.892 240.055 42.3009C240.055 41.9137 239.973 41.5723 239.81 41.2768C239.657 40.9711 239.438 40.7367 239.153 40.5737C238.878 40.4005 238.552 40.3138 238.175 40.3138C237.808 40.3138 237.482 40.4005 237.197 40.5737C236.921 40.7367 236.702 40.9711 236.539 41.2768C236.386 41.5723 236.31 41.9137 236.31 42.3009C236.31 42.6984 236.386 43.0499 236.539 43.3556C236.702 43.6512 236.921 43.8855 237.197 44.0588C237.482 44.2218 237.808 44.3033 238.175 44.3033ZM239.948 46V44.0129L240.269 42.2092L239.948 40.4361V38.6172H241.935V46H239.948ZM244.639 46V35.5448H246.641V46H244.639ZM242.912 40.375V38.6172H248.368V40.375H242.912ZM252.648 46.1529C251.894 46.1529 251.216 45.9847 250.615 45.6484C250.013 45.3122 249.54 44.8536 249.193 44.2728C248.847 43.6919 248.673 43.0397 248.673 42.3162C248.673 41.5825 248.847 40.9253 249.193 40.3444C249.54 39.7636 250.013 39.305 250.615 38.9687C251.226 38.6223 251.904 38.449 252.648 38.449C253.228 38.449 253.763 38.556 254.253 38.77C254.742 38.984 255.165 39.2897 255.521 39.6871L254.237 40.9864C254.044 40.7724 253.809 40.6094 253.534 40.4973C253.269 40.3852 252.974 40.3291 252.648 40.3291C252.281 40.3291 251.95 40.4157 251.654 40.589C251.369 40.752 251.139 40.9813 250.966 41.2768C250.803 41.5622 250.722 41.9035 250.722 42.3009C250.722 42.6882 250.803 43.0346 250.966 43.3403C251.139 43.6359 251.369 43.8702 251.654 44.0435C251.95 44.2065 252.281 44.288 252.648 44.288C252.984 44.288 253.285 44.232 253.549 44.1199C253.825 43.9976 254.059 43.8244 254.253 43.6002L255.552 44.8995C255.175 45.3071 254.742 45.6179 254.253 45.8319C253.763 46.0459 253.228 46.1529 252.648 46.1529ZM261.501 46V41.766C261.501 41.3278 261.363 40.9711 261.088 40.696C260.813 40.4208 260.456 40.2833 260.018 40.2833C259.733 40.2833 259.478 40.3444 259.254 40.4667C259.03 40.589 258.851 40.7622 258.719 40.9864C258.596 41.2106 258.535 41.4704 258.535 41.766L257.756 41.3685C257.756 40.7877 257.878 40.2833 258.123 39.8553C258.367 39.4171 258.703 39.0757 259.131 38.8312C259.57 38.5866 260.069 38.4643 260.629 38.4643C261.19 38.4643 261.684 38.5866 262.112 38.8312C262.55 39.0757 262.892 39.412 263.136 39.84C263.381 40.268 263.503 40.7622 263.503 41.3227V46H261.501ZM256.533 46V34.9487H258.535V46H256.533ZM268.051 46.1529C267.378 46.1529 266.772 45.9847 266.232 45.6484C265.692 45.3122 265.269 44.8536 264.963 44.2728C264.657 43.6919 264.505 43.0397 264.505 42.3162C264.505 41.5825 264.657 40.9253 264.963 40.3444C265.269 39.7636 265.692 39.305 266.232 38.9687C266.772 38.6325 267.378 38.4643 268.051 38.4643C268.581 38.4643 269.055 38.5713 269.472 38.7853C269.89 38.9993 270.221 39.2999 270.466 39.6871C270.721 40.0642 270.858 40.4922 270.879 40.9711V43.6308C270.858 44.1199 270.721 44.553 270.466 44.93C270.221 45.3071 269.89 45.6077 269.472 45.8319C269.055 46.0459 268.581 46.1529 268.051 46.1529ZM268.418 44.3033C268.978 44.3033 269.432 44.1199 269.778 43.7531C270.125 43.376 270.298 42.892 270.298 42.3009C270.298 41.9137 270.216 41.5723 270.053 41.2768C269.9 40.9711 269.681 40.7367 269.396 40.5737C269.121 40.4005 268.795 40.3138 268.418 40.3138C268.051 40.3138 267.725 40.4005 267.439 40.5737C267.164 40.7367 266.945 40.9711 266.782 41.2768C266.629 41.5723 266.553 41.9137 266.553 42.3009C266.553 42.6984 266.629 43.0499 266.782 43.3556C266.945 43.6512 267.164 43.8855 267.439 44.0588C267.725 44.2218 268.051 44.3033 268.418 44.3033ZM270.191 46V44.0129L270.512 42.2092L270.191 40.4361V38.6172H272.178V46H270.191Z" fill="#F6F9F2"/>
<rect x="306" y="30" width="21" height="21" rx="6" fill="#F5DAA3"/>
<path d="M341.129 46.1681C340.345 46.1681 339.611 46.0255 338.928 45.7401C338.256 45.4548 337.665 45.0625 337.155 44.5632C336.656 44.0537 336.264 43.4626 335.978 42.7901C335.693 42.1073 335.55 41.3787 335.55 40.6043C335.55 39.8298 335.688 39.1114 335.963 38.449C336.248 37.7765 336.641 37.1905 337.14 36.6912C337.649 36.1817 338.24 35.7894 338.913 35.5142C339.586 35.2289 340.314 35.0863 341.099 35.0863C341.894 35.0863 342.627 35.2289 343.3 35.5142C343.973 35.7894 344.558 36.1817 345.058 36.6912C345.567 37.1905 345.965 37.7765 346.25 38.449C346.535 39.1216 346.678 39.8451 346.678 40.6196C346.678 41.394 346.535 42.1175 346.25 42.7901C345.965 43.4626 345.567 44.0537 345.058 44.5632C344.558 45.0625 343.973 45.4548 343.3 45.7401C342.638 46.0255 341.914 46.1681 341.129 46.1681ZM341.099 44.2269C341.792 44.2269 342.393 44.074 342.903 43.7683C343.412 43.4626 343.809 43.0397 344.095 42.4997C344.39 41.9596 344.538 41.3278 344.538 40.6043C344.538 40.0744 344.457 39.5903 344.293 39.1522C344.13 38.714 343.896 38.3369 343.59 38.021C343.285 37.695 342.923 37.4453 342.505 37.2721C342.087 37.0988 341.619 37.0122 341.099 37.0122C340.426 37.0122 339.83 37.1651 339.31 37.4708C338.801 37.7663 338.398 38.1841 338.103 38.7242C337.818 39.2643 337.675 39.891 337.675 40.6043C337.675 41.1444 337.756 41.6386 337.92 42.0869C338.093 42.5353 338.327 42.9175 338.623 43.2334C338.928 43.5492 339.29 43.7938 339.708 43.967C340.136 44.1403 340.6 44.2269 341.099 44.2269ZM349.044 46V35.5448H351.047V46H349.044ZM347.317 40.375V38.6172H352.774V40.375H347.317ZM358.715 46V41.766C358.715 41.3278 358.577 40.9711 358.302 40.696C358.027 40.4208 357.67 40.2833 357.232 40.2833C356.947 40.2833 356.692 40.3444 356.468 40.4667C356.244 40.589 356.065 40.7622 355.933 40.9864C355.811 41.2106 355.75 41.4704 355.75 41.766L354.97 41.3685C354.97 40.7877 355.092 40.2833 355.337 39.8553C355.581 39.4171 355.918 39.0757 356.346 38.8312C356.784 38.5866 357.283 38.4643 357.844 38.4643C358.404 38.4643 358.898 38.5866 359.326 38.8312C359.764 39.0757 360.106 39.412 360.35 39.84C360.595 40.268 360.717 40.7622 360.717 41.3227V46H358.715ZM353.747 46V34.9487H355.75V46H353.747ZM365.708 46.1529C364.934 46.1529 364.246 45.9898 363.645 45.6637C363.044 45.3274 362.565 44.8689 362.208 44.288C361.861 43.7072 361.688 43.0448 361.688 42.3009C361.688 41.5672 361.856 40.9151 362.193 40.3444C362.539 39.7636 363.008 39.305 363.599 38.9687C364.19 38.6223 364.847 38.449 365.571 38.449C366.284 38.449 366.911 38.6121 367.451 38.9382C368.001 39.2541 368.429 39.6922 368.735 40.2527C369.051 40.803 369.209 41.4297 369.209 42.1328C369.209 42.2653 369.198 42.4028 369.178 42.5455C369.168 42.678 369.142 42.8308 369.102 43.0041L362.896 43.0194V41.5214L368.169 41.5061L367.359 42.1328C367.339 41.6946 367.257 41.3278 367.115 41.0323C366.982 40.7367 366.783 40.5126 366.518 40.3597C366.264 40.1967 365.948 40.1151 365.571 40.1151C365.173 40.1151 364.827 40.2068 364.531 40.3903C364.236 40.5635 364.007 40.8132 363.843 41.1393C363.691 41.4552 363.614 41.8322 363.614 42.2704C363.614 42.7187 363.696 43.1111 363.859 43.4473C364.032 43.7734 364.277 44.0282 364.592 44.2116C364.908 44.3848 365.275 44.4715 365.693 44.4715C366.07 44.4715 366.411 44.4103 366.717 44.288C367.023 44.1556 367.288 43.962 367.512 43.7072L368.689 44.8842C368.332 45.302 367.894 45.6179 367.374 45.8319C366.865 46.0459 366.31 46.1529 365.708 46.1529ZM370.294 46V38.6172H372.297V46H370.294ZM372.297 41.9188L371.517 41.3991C371.609 40.4922 371.874 39.7789 372.312 39.2592C372.75 38.7293 373.382 38.4643 374.207 38.4643C374.564 38.4643 374.885 38.5255 375.17 38.6477C375.455 38.7598 375.715 38.9484 375.95 39.2133L374.696 40.6501C374.584 40.5278 374.447 40.4361 374.284 40.375C374.131 40.3138 373.952 40.2833 373.749 40.2833C373.321 40.2833 372.969 40.4208 372.694 40.696C372.429 40.9609 372.297 41.3685 372.297 41.9188ZM379.815 46V35.2544H381.894V46H379.815ZM381.344 46V44.1658H387.29V46H381.344ZM381.344 41.3991V39.626H386.755V41.3991H381.344ZM381.344 37.0886V35.2544H387.214V37.0886H381.344ZM393.611 46V41.766C393.611 41.3278 393.474 40.9711 393.199 40.696C392.924 40.4208 392.567 40.2833 392.129 40.2833C391.843 40.2833 391.589 40.3444 391.365 40.4667C391.14 40.589 390.962 40.7622 390.83 40.9864C390.707 41.2106 390.646 41.4704 390.646 41.766L389.867 41.3685C389.867 40.7877 389.989 40.2833 390.233 39.8553C390.488 39.4171 390.835 39.0757 391.273 38.8312C391.721 38.5866 392.226 38.4643 392.786 38.4643C393.326 38.4643 393.81 38.6019 394.238 38.877C394.666 39.142 395.002 39.4935 395.247 39.9317C395.492 40.3597 395.614 40.8234 395.614 41.3227V46H393.611ZM388.644 46V38.6172H390.646V46H388.644ZM400.605 46.1529C399.83 46.1529 399.143 45.9898 398.541 45.6637C397.94 45.3274 397.461 44.8689 397.105 44.288C396.758 43.7072 396.585 43.0448 396.585 42.3009C396.585 41.5672 396.753 40.9151 397.089 40.3444C397.436 39.7636 397.904 39.305 398.495 38.9687C399.087 38.6223 399.744 38.449 400.467 38.449C401.181 38.449 401.807 38.6121 402.347 38.9382C402.898 39.2541 403.326 39.6922 403.631 40.2527C403.947 40.803 404.105 41.4297 404.105 42.1328C404.105 42.2653 404.095 42.4028 404.075 42.5455C404.064 42.678 404.039 42.8308 403.998 43.0041L397.792 43.0194V41.5214L403.066 41.5061L402.256 42.1328C402.235 41.6946 402.154 41.3278 402.011 41.0323C401.879 40.7367 401.68 40.5126 401.415 40.3597C401.16 40.1967 400.844 40.1151 400.467 40.1151C400.07 40.1151 399.723 40.2068 399.428 40.3903C399.132 40.5635 398.903 40.8132 398.74 41.1393C398.587 41.4552 398.511 41.8322 398.511 42.2704C398.511 42.7187 398.592 43.1111 398.755 43.4473C398.929 43.7734 399.173 44.0282 399.489 44.2116C399.805 44.3848 400.172 44.4715 400.59 44.4715C400.967 44.4715 401.308 44.4103 401.614 44.288C401.919 44.1556 402.184 43.962 402.409 43.7072L403.586 44.8842C403.229 45.302 402.791 45.6179 402.271 45.8319C401.761 46.0459 401.206 46.1529 400.605 46.1529ZM405.191 46V38.6172H407.193V46H405.191ZM407.193 41.9188L406.414 41.3991C406.505 40.4922 406.77 39.7789 407.208 39.2592C407.647 38.7293 408.278 38.4643 409.104 38.4643C409.46 38.4643 409.781 38.5255 410.067 38.6477C410.352 38.7598 410.612 38.9484 410.846 39.2133L409.593 40.6501C409.481 40.5278 409.343 40.4361 409.18 40.375C409.027 40.3138 408.849 40.2833 408.645 40.2833C408.217 40.2833 407.866 40.4208 407.591 40.696C407.326 40.9609 407.193 41.3685 407.193 41.9188ZM414.275 49.2711C413.491 49.2711 412.798 49.1284 412.197 48.8431C411.595 48.5679 411.116 48.1756 410.76 47.6661L412.029 46.3974C412.314 46.7337 412.63 46.9885 412.976 47.1617C413.333 47.3451 413.761 47.4368 414.26 47.4368C414.882 47.4368 415.371 47.2789 415.728 46.963C416.094 46.6471 416.278 46.2089 416.278 45.6484V43.7989L416.614 42.1787L416.293 40.5584V38.6172H418.28V45.6179C418.28 46.3516 418.107 46.9885 417.761 47.5285C417.424 48.0788 416.956 48.5068 416.354 48.8125C415.753 49.1182 415.06 49.2711 414.275 49.2711ZM414.184 45.8013C413.521 45.8013 412.925 45.6433 412.395 45.3274C411.865 45.0014 411.448 44.5581 411.142 43.9976C410.846 43.4372 410.699 42.8105 410.699 42.1175C410.699 41.4246 410.846 40.803 411.142 40.2527C411.448 39.7024 411.865 39.2693 412.395 38.9535C412.925 38.6274 413.521 38.4643 414.184 38.4643C414.734 38.4643 415.218 38.5713 415.636 38.7853C416.064 38.9993 416.4 39.2948 416.645 39.6719C416.889 40.0387 417.022 40.4718 417.042 40.9711V43.2945C417.022 43.7836 416.884 44.2218 416.629 44.609C416.385 44.9861 416.049 45.2816 415.621 45.4956C415.203 45.6994 414.724 45.8013 414.184 45.8013ZM414.581 43.9823C414.948 43.9823 415.264 43.9059 415.529 43.7531C415.804 43.59 416.018 43.3709 416.171 43.0958C416.324 42.8105 416.4 42.4895 416.4 42.1328C416.4 41.766 416.324 41.445 416.171 41.1698C416.018 40.8947 415.804 40.6807 415.529 40.5278C415.264 40.3648 414.948 40.2833 414.581 40.2833C414.214 40.2833 413.893 40.3648 413.618 40.5278C413.343 40.6807 413.129 40.8998 412.976 41.1851C412.823 41.4602 412.747 41.7761 412.747 42.1328C412.747 42.4793 412.823 42.7952 412.976 43.0805C413.129 43.3556 413.343 43.5747 413.618 43.7378C413.893 43.9008 414.214 43.9823 414.581 43.9823ZM422.21 46.0611L419.122 38.6172H421.293L423.341 44.3033H422.608L424.732 38.6172H426.918L423.632 46.0611H422.21ZM420.162 49.0876L422.409 44.3339L423.632 46.0611L422.287 49.0876H420.162ZM433.944 46.1529C433.078 46.1529 432.334 46.0051 431.713 45.7096C431.101 45.4141 430.546 44.9708 430.047 44.3798L431.422 43.0041C431.738 43.4219 432.105 43.748 432.523 43.9823C432.941 44.2065 433.45 44.3186 434.051 44.3186C434.591 44.3186 435.019 44.2116 435.335 43.9976C435.661 43.7836 435.824 43.4881 435.824 43.1111C435.824 42.785 435.733 42.52 435.549 42.3162C435.366 42.1124 435.121 41.9392 434.816 41.7965C434.52 41.6539 434.189 41.5265 433.822 41.4144C433.465 41.2921 433.104 41.1545 432.737 41.0017C432.38 40.8488 432.049 40.6603 431.743 40.4361C431.448 40.2018 431.208 39.9062 431.025 39.5496C430.841 39.1827 430.75 38.7242 430.75 38.1739C430.75 37.5217 430.908 36.9664 431.224 36.5078C431.539 36.0492 431.973 35.6977 432.523 35.4531C433.073 35.2085 433.695 35.0863 434.388 35.0863C435.121 35.0863 435.784 35.2238 436.375 35.499C436.966 35.7741 437.45 36.1308 437.827 36.5689L436.451 37.9446C436.135 37.5981 435.809 37.3434 435.473 37.1803C435.147 37.0173 434.775 36.9358 434.357 36.9358C433.878 36.9358 433.501 37.0275 433.226 37.2109C432.951 37.3943 432.813 37.6593 432.813 38.0058C432.813 38.3013 432.905 38.5407 433.088 38.7242C433.272 38.9076 433.511 39.0655 433.807 39.198C434.113 39.3305 434.444 39.4579 434.8 39.5802C435.167 39.7024 435.529 39.84 435.886 39.9929C436.252 40.1457 436.584 40.3444 436.879 40.589C437.185 40.8335 437.429 41.1494 437.613 41.5367C437.796 41.9137 437.888 42.3825 437.888 42.9429C437.888 43.9416 437.536 44.7262 436.833 45.2969C436.13 45.8675 435.167 46.1529 433.944 46.1529ZM442.572 46.1529C441.828 46.1529 441.155 45.9847 440.554 45.6484C439.963 45.302 439.489 44.8383 439.133 44.2575C438.786 43.6664 438.613 43.0092 438.613 42.2857C438.613 41.5622 438.786 40.9151 439.133 40.3444C439.479 39.7636 439.953 39.305 440.554 38.9687C441.155 38.6223 441.823 38.449 442.557 38.449C443.311 38.449 443.983 38.6223 444.574 38.9687C445.176 39.305 445.649 39.7636 445.996 40.3444C446.342 40.9151 446.516 41.5622 446.516 42.2857C446.516 43.0092 446.342 43.6664 445.996 44.2575C445.649 44.8383 445.176 45.302 444.574 45.6484C443.983 45.9847 443.316 46.1529 442.572 46.1529ZM442.557 44.288C442.934 44.288 443.265 44.2065 443.55 44.0435C443.846 43.8702 444.07 43.6359 444.223 43.3403C444.386 43.0346 444.467 42.6882 444.467 42.3009C444.467 41.9137 444.386 41.5723 444.223 41.2768C444.06 40.9813 443.835 40.752 443.55 40.589C443.265 40.4157 442.934 40.3291 442.557 40.3291C442.19 40.3291 441.864 40.4157 441.578 40.589C441.293 40.752 441.069 40.9813 440.906 41.2768C440.743 41.5723 440.661 41.9137 440.661 42.3009C440.661 42.6882 440.743 43.0346 440.906 43.3403C441.069 43.6359 441.293 43.8702 441.578 44.0435C441.864 44.2065 442.19 44.288 442.557 44.288ZM450.801 46.1529C450.148 46.1529 449.568 46.0153 449.058 45.7401C448.559 45.465 448.166 45.0829 447.881 44.5937C447.596 44.1046 447.453 43.5391 447.453 42.8971V38.6172H449.471V42.8512C449.471 43.1569 449.522 43.4219 449.624 43.6461C449.725 43.8601 449.878 44.0231 450.082 44.1352C450.286 44.2473 450.525 44.3033 450.801 44.3033C451.218 44.3033 451.544 44.1759 451.779 43.9212C452.013 43.6664 452.13 43.3098 452.13 42.8512V38.6172H454.133V42.8971C454.133 43.5492 453.99 44.1199 453.705 44.609C453.43 45.0982 453.037 45.4803 452.528 45.7554C452.028 46.0204 451.453 46.1529 450.801 46.1529ZM455.574 46V38.6172H457.577V46H455.574ZM457.577 41.9188L456.797 41.3991C456.889 40.4922 457.154 39.7789 457.592 39.2592C458.03 38.7293 458.662 38.4643 459.488 38.4643C459.844 38.4643 460.165 38.5255 460.451 38.6477C460.736 38.7598 460.996 38.9484 461.23 39.2133L459.977 40.6501C459.865 40.5278 459.727 40.4361 459.564 40.375C459.411 40.3138 459.233 40.2833 459.029 40.2833C458.601 40.2833 458.249 40.4208 457.974 40.696C457.709 40.9609 457.577 41.3685 457.577 41.9188ZM465.057 46.1529C464.303 46.1529 463.625 45.9847 463.024 45.6484C462.422 45.3122 461.949 44.8536 461.602 44.2728C461.256 43.6919 461.082 43.0397 461.082 42.3162C461.082 41.5825 461.256 40.9253 461.602 40.3444C461.949 39.7636 462.422 39.305 463.024 38.9687C463.635 38.6223 464.313 38.449 465.057 38.449C465.637 38.449 466.172 38.556 466.662 38.77C467.151 38.984 467.574 39.2897 467.93 39.6871L466.646 40.9864C466.453 40.7724 466.218 40.6094 465.943 40.4973C465.678 40.3852 465.383 40.3291 465.057 40.3291C464.69 40.3291 464.359 40.4157 464.063 40.589C463.778 40.752 463.549 40.9813 463.375 41.2768C463.212 41.5622 463.131 41.9035 463.131 42.3009C463.131 42.6882 463.212 43.0346 463.375 43.3403C463.549 43.6359 463.778 43.8702 464.063 44.0435C464.359 44.2065 464.69 44.288 465.057 44.288C465.393 44.288 465.694 44.232 465.958 44.1199C466.234 43.9976 466.468 43.8244 466.662 43.6002L467.961 44.8995C467.584 45.3071 467.151 45.6179 466.662 45.8319C466.172 46.0459 465.637 46.1529 465.057 46.1529ZM472.309 46.1529C471.534 46.1529 470.846 45.9898 470.245 45.6637C469.644 45.3274 469.165 44.8689 468.808 44.288C468.462 43.7072 468.289 43.0448 468.289 42.3009C468.289 41.5672 468.457 40.9151 468.793 40.3444C469.14 39.7636 469.608 39.305 470.199 38.9687C470.79 38.6223 471.448 38.449 472.171 38.449C472.884 38.449 473.511 38.6121 474.051 38.9382C474.602 39.2541 475.03 39.6922 475.335 40.2527C475.651 40.803 475.809 41.4297 475.809 42.1328C475.809 42.2653 475.799 42.4028 475.778 42.5455C475.768 42.678 475.743 42.8308 475.702 43.0041L469.496 43.0194V41.5214L474.77 41.5061L473.96 42.1328C473.939 41.6946 473.858 41.3278 473.715 41.0323C473.582 40.7367 473.384 40.5126 473.119 40.3597C472.864 40.1967 472.548 40.1151 472.171 40.1151C471.774 40.1151 471.427 40.2068 471.132 40.3903C470.836 40.5635 470.607 40.8132 470.444 41.1393C470.291 41.4552 470.215 41.8322 470.215 42.2704C470.215 42.7187 470.296 43.1111 470.459 43.4473C470.632 43.7734 470.877 44.0282 471.193 44.2116C471.509 44.3848 471.876 44.4715 472.293 44.4715C472.67 44.4715 473.012 44.4103 473.318 44.288C473.623 44.1556 473.888 43.962 474.112 43.7072L475.289 44.8842C474.933 45.302 474.495 45.6179 473.975 45.8319C473.465 46.0459 472.91 46.1529 472.309 46.1529ZM479.432 46.1681C479.014 46.1681 478.601 46.1121 478.194 46C477.796 45.8879 477.43 45.7351 477.093 45.5414C476.757 45.3376 476.467 45.0931 476.222 44.8077L477.414 43.6002C477.669 43.8855 477.965 44.0995 478.301 44.2422C478.637 44.3848 479.009 44.4562 479.417 44.4562C479.743 44.4562 479.987 44.4103 480.15 44.3186C480.324 44.2269 480.41 44.0893 480.41 43.9059C480.41 43.7021 480.318 43.5442 480.135 43.4321C479.962 43.32 479.733 43.2283 479.447 43.1569C479.162 43.0754 478.861 42.9888 478.545 42.8971C478.24 42.7952 477.944 42.6678 477.659 42.5149C477.374 42.3519 477.139 42.1328 476.956 41.8577C476.782 41.5723 476.696 41.2055 476.696 40.7571C476.696 40.2884 476.808 39.8808 477.032 39.5343C477.267 39.1878 477.598 38.9178 478.026 38.7242C478.454 38.5306 478.958 38.4337 479.539 38.4337C480.15 38.4337 480.701 38.5407 481.19 38.7547C481.689 38.9687 482.102 39.2897 482.428 39.7177L481.22 40.9253C480.996 40.6501 480.741 40.4514 480.456 40.3291C480.181 40.2068 479.88 40.1457 479.554 40.1457C479.259 40.1457 479.029 40.1916 478.866 40.2833C478.714 40.375 478.637 40.5024 478.637 40.6654C478.637 40.8488 478.724 40.9915 478.897 41.0934C479.08 41.1953 479.315 41.287 479.6 41.3685C479.885 41.4399 480.181 41.5265 480.487 41.6284C480.803 41.7201 481.098 41.8526 481.373 42.0258C481.658 42.199 481.888 42.4283 482.061 42.7136C482.244 42.999 482.336 43.3658 482.336 43.8142C482.336 44.5377 482.076 45.1134 481.557 45.5414C481.037 45.9592 480.329 46.1681 479.432 46.1681Z" fill="#F6F9F2"/>
</g>
<defs>
<linearGradient id="paint0_linear_8839_209" x1="888.099" y1="648" x2="886.872" y2="574.017" gradientUnits="userSpaceOnUse">
<stop stop-color="#374B3C"/>
<stop offset="1" stop-color="#374B3C" stop-opacity="0"/>
</linearGradient>
<linearGradient id="paint1_linear_8839_209" x1="287.099" y1="74" x2="285.872" y2="0.0170764" gradientUnits="userSpaceOnUse">
<stop stop-color="#374B3C"/>
<stop offset="1" stop-color="#374B3C" stop-opacity="0"/>
</linearGradient>
<linearGradient id="paint2_linear_8839_209" x1="337.5" y1="412" x2="337.5" y2="574" gradientUnits="userSpaceOnUse">
<stop stop-color="#374B3C" stop-opacity="0"/>
<stop offset="1" stop-color="#374B3C"/>
</linearGradient>
<clipPath id="clip0_8839_209">
<rect width="675" height="574" fill="white"/>
</clipPath>
</defs>
</svg>
