<svg width="903" height="452" viewBox="0 0 903 452" fill="none" xmlns="http://www.w3.org/2000/svg">
<g clip-path="url(#clip0_8818_260)">
<rect x="804.695" y="452" width="452" height="99" transform="rotate(-90 804.695 452)" fill="url(#paint0_linear_8818_260)"/>
<rect width="452" height="99" transform="matrix(0 -1 -1 0 99 452)" fill="url(#paint1_linear_8818_260)"/>
<rect x="0.695312" y="300" width="902" height="152" fill="url(#paint2_linear_8818_260)"/>
<path d="M30.6953 293.675H17.8591V291.192H30.6953V293.675ZM30.6953 291.85H28.5042V284.747H30.6953V291.85ZM25.1993 291.85H23.0812V285.386H25.1993V291.85ZM20.0502 291.85H17.8591V284.838H20.0502V291.85ZM30.6953 282.874H17.8591V281.139L20.3424 280.391H30.6953V282.874ZM30.6953 274L20.8354 281.614L17.8591 281.139L27.7191 273.525L30.6953 274ZM30.6953 274L28.2851 274.712H17.8591V272.211H30.6953V274ZM30.6953 269.79H17.8591L17.8591 267.307H30.6953V269.79ZM30.6953 267.964H28.5042V260.861H30.6953V267.964ZM25.1993 267.964H23.0812L23.0812 261.5H25.1993L25.1993 267.964ZM20.0502 267.964H17.8591V260.953H20.0502L20.0502 267.964ZM25.3271 257.163H23.3916V254.187C23.3916 253.578 23.2395 253.109 22.9352 252.781C22.6187 252.44 22.1865 252.269 21.6388 252.269C21.1397 252.269 20.7258 252.44 20.3971 252.781C20.0563 253.109 19.8859 253.578 19.8859 254.187V257.163H17.8591V253.967C17.8591 253.14 18.0234 252.415 18.3521 251.795C18.6686 251.162 19.1068 250.675 19.6668 250.334C20.2267 249.981 20.8719 249.804 21.6022 249.804C22.3569 249.804 23.0143 249.981 23.5742 250.334C24.122 250.675 24.5541 251.162 24.8706 251.795C25.175 252.428 25.3271 253.164 25.3271 254.004V257.163ZM30.6953 258.989H17.8591V256.505H30.6953V258.989ZM30.6953 251.977L25.1445 256.213L24.4324 253.931L30.6953 248.964V251.977ZM30.8779 241.914C30.8779 242.827 30.7136 243.685 30.3849 244.489C30.0441 245.28 29.5693 245.98 28.9607 246.589C28.352 247.185 27.6521 247.654 26.8609 247.995C26.0575 248.323 25.1932 248.488 24.2681 248.488C23.3308 248.488 22.4665 248.317 21.6753 247.976C20.8719 247.635 20.1719 247.161 19.5755 246.552C18.9668 245.943 18.4982 245.231 18.1695 244.416C17.8287 243.6 17.6583 242.718 17.6583 241.768C17.6583 240.709 17.8591 239.735 18.2608 238.847C18.6503 237.958 19.2042 237.222 19.9224 236.637L21.6022 238.317C21.0788 238.719 20.6771 239.218 20.3971 239.814C20.1172 240.411 19.9772 241.068 19.9772 241.786C19.9772 242.602 20.1598 243.326 20.5249 243.959C20.878 244.58 21.377 245.067 22.0222 245.42C22.6552 245.773 23.3977 245.95 24.2498 245.95C25.1019 245.95 25.8566 245.779 26.514 245.438C27.1591 245.085 27.6643 244.611 28.0295 244.014C28.3947 243.405 28.5772 242.712 28.5772 241.932C28.5772 241.129 28.4312 240.441 28.139 239.869C27.8347 239.297 27.3965 238.859 26.8244 238.555C26.2401 238.25 25.528 238.098 24.688 238.098L25.8019 236.473L25.7471 242.079H23.5925V235.542H23.9394C25.4732 235.542 26.7574 235.816 27.7921 236.363C28.8146 236.911 29.5876 237.666 30.111 238.628C30.6223 239.577 30.8779 240.673 30.8779 241.914ZM25.7471 230.57L17.8591 235.537V232.67L24.1768 228.817V230.461L17.8591 226.608V223.778L25.7471 228.799V230.57ZM30.6953 230.899H24.4142V228.397H30.6953V230.899ZM30.6953 219.474H17.8591V216.991H30.6953V219.474ZM30.6953 217.648H28.486V211.111H30.6953V217.648ZM30.6953 209.511H17.8591V207.027H30.6953V209.511ZM30.6953 207.685H28.5042V200.582H30.6953V207.685ZM25.1993 207.685H23.0812V201.221H25.1993V207.685ZM20.0502 207.685H17.8591V200.673H20.0502V207.685ZM30.6953 194.85L17.8591 199.908V197.224L28.2486 193.317V194.357L17.8591 190.413L17.8591 187.766L30.6953 192.878L30.6953 194.85ZM30.6953 186.267H17.8591V183.784H30.6953V186.267ZM30.6953 184.441H28.5042V177.338H30.6953V184.441ZM25.1993 184.441H23.0812L23.0812 177.978H25.1993L25.1993 184.441ZM20.0502 184.441H17.8591V177.43H20.0502L20.0502 184.441ZM30.6953 175.466H17.8591V172.983H30.6953V175.466ZM30.6953 173.64H28.486V167.103H30.6953V173.64ZM30.8779 162.366C30.8779 163.401 30.7014 164.289 30.3484 165.032C29.9954 165.762 29.4659 166.426 28.7598 167.022L27.1165 165.379C27.6156 165.001 28.0051 164.563 28.2851 164.064C28.5529 163.565 28.6868 162.956 28.6868 162.238C28.6868 161.593 28.559 161.082 28.3034 160.704C28.0477 160.315 27.6947 160.12 27.2443 160.12C26.8548 160.12 26.5383 160.23 26.2948 160.449C26.0514 160.668 25.8445 160.96 25.674 161.325C25.5036 161.678 25.3515 162.074 25.2176 162.512C25.0715 162.938 24.9071 163.37 24.7246 163.808C24.542 164.234 24.3168 164.63 24.049 164.995C23.769 165.348 23.416 165.634 22.9899 165.853C22.5517 166.073 22.0039 166.182 21.3466 166.182C20.5675 166.182 19.9041 165.993 19.3564 165.616C18.8086 165.239 18.3886 164.721 18.0965 164.064C17.8043 163.407 17.6583 162.664 17.6583 161.836C17.6583 160.96 17.8226 160.169 18.1512 159.463C18.4799 158.757 18.906 158.179 19.4294 157.728L21.0727 159.371C20.6588 159.749 20.3545 160.138 20.1598 160.54C19.965 160.93 19.8676 161.374 19.8676 161.873C19.8676 162.445 19.9772 162.895 20.1963 163.224C20.4154 163.553 20.7319 163.717 21.1458 163.717C21.4988 163.717 21.7848 163.608 22.0039 163.388C22.223 163.169 22.4117 162.883 22.57 162.53C22.7282 162.165 22.8804 161.769 23.0265 161.343C23.1725 160.905 23.3369 160.473 23.5195 160.047C23.702 159.609 23.9394 159.213 24.2316 158.86C24.5237 158.495 24.9011 158.203 25.3636 157.984C25.814 157.765 26.374 157.655 27.0435 157.655C28.2364 157.655 29.1737 158.075 29.8554 158.915C30.5371 159.755 30.8779 160.905 30.8779 162.366Z" fill="#F6F9F2"/>
<path d="M422.315 438V425.164H424.798V438H422.315ZM430.367 438V425.164H432.85V438H430.367ZM423.885 432.467V430.276H431.061V432.467H423.885ZM441.299 438.201C440.361 438.201 439.485 438.03 438.669 437.69C437.866 437.349 437.16 436.88 436.551 436.284C435.955 435.675 435.486 434.969 435.145 434.166C434.805 433.35 434.634 432.48 434.634 431.555C434.634 430.629 434.799 429.771 435.127 428.98C435.468 428.177 435.937 427.477 436.533 426.88C437.142 426.272 437.848 425.803 438.651 425.474C439.455 425.133 440.325 424.963 441.262 424.963C442.212 424.963 443.088 425.133 443.892 425.474C444.695 425.803 445.395 426.272 445.991 426.88C446.6 427.477 447.075 428.177 447.416 428.98C447.756 429.783 447.927 430.648 447.927 431.573C447.927 432.498 447.756 433.362 447.416 434.166C447.075 434.969 446.6 435.675 445.991 436.284C445.395 436.88 444.695 437.349 443.892 437.69C443.1 438.03 442.236 438.201 441.299 438.201ZM441.262 435.882C442.09 435.882 442.808 435.699 443.417 435.334C444.026 434.969 444.5 434.464 444.841 433.819C445.194 433.173 445.371 432.419 445.371 431.555C445.371 430.922 445.273 430.343 445.078 429.82C444.884 429.296 444.604 428.846 444.239 428.469C443.873 428.079 443.441 427.781 442.942 427.574C442.443 427.367 441.883 427.264 441.262 427.264C440.459 427.264 439.747 427.446 439.126 427.811C438.517 428.164 438.036 428.663 437.683 429.309C437.343 429.954 437.172 430.702 437.172 431.555C437.172 432.2 437.27 432.79 437.464 433.326C437.671 433.861 437.951 434.318 438.304 434.695C438.669 435.072 439.102 435.365 439.601 435.572C440.112 435.778 440.666 435.882 441.262 435.882ZM454.771 438.183C453.76 438.183 452.859 437.963 452.068 437.525C451.289 437.075 450.674 436.46 450.224 435.681C449.774 434.902 449.548 434.019 449.548 433.034V425.164H452.032V433.107C452.032 433.679 452.147 434.172 452.379 434.586C452.622 434.999 452.951 435.322 453.365 435.553C453.791 435.772 454.259 435.882 454.771 435.882C455.294 435.882 455.757 435.772 456.158 435.553C456.56 435.322 456.876 434.999 457.108 434.586C457.351 434.172 457.473 433.685 457.473 433.125V425.164H459.974V433.052C459.974 434.038 459.749 434.92 459.299 435.699C458.848 436.466 458.234 437.075 457.455 437.525C456.688 437.963 455.793 438.183 454.771 438.183ZM464.07 432.632V430.696H467.046C467.655 430.696 468.123 430.544 468.452 430.24C468.793 429.923 468.963 429.491 468.963 428.943C468.963 428.444 468.793 428.03 468.452 427.702C468.123 427.361 467.655 427.191 467.046 427.191H464.07V425.164H467.265C468.093 425.164 468.817 425.328 469.438 425.657C470.071 425.973 470.558 426.412 470.899 426.971C471.252 427.531 471.428 428.177 471.428 428.907C471.428 429.662 471.252 430.319 470.899 430.879C470.558 431.427 470.071 431.859 469.438 432.175C468.805 432.48 468.068 432.632 467.229 432.632H464.07ZM462.244 438V425.164H464.727V438H462.244ZM469.255 438L465.019 432.449L467.302 431.737L472.268 438H469.255ZM476.877 438.183C475.842 438.183 474.954 438.006 474.211 437.653C473.481 437.3 472.817 436.771 472.221 436.065L473.864 434.421C474.242 434.92 474.68 435.31 475.179 435.59C475.678 435.858 476.287 435.991 477.005 435.991C477.65 435.991 478.161 435.864 478.539 435.608C478.928 435.352 479.123 434.999 479.123 434.549C479.123 434.159 479.013 433.843 478.794 433.6C478.575 433.356 478.283 433.149 477.918 432.979C477.565 432.808 477.169 432.656 476.731 432.522C476.305 432.376 475.873 432.212 475.435 432.029C475.009 431.847 474.613 431.621 474.248 431.354C473.895 431.074 473.609 430.721 473.39 430.295C473.17 429.856 473.061 429.309 473.061 428.651C473.061 427.872 473.25 427.209 473.627 426.661C474.004 426.113 474.522 425.693 475.179 425.401C475.836 425.109 476.579 424.963 477.407 424.963C478.283 424.963 479.074 425.127 479.78 425.456C480.486 425.785 481.065 426.211 481.515 426.734L479.872 428.377C479.494 427.964 479.105 427.659 478.703 427.464C478.313 427.27 477.869 427.172 477.37 427.172C476.798 427.172 476.348 427.282 476.019 427.501C475.69 427.72 475.526 428.037 475.526 428.45C475.526 428.803 475.635 429.09 475.855 429.309C476.074 429.528 476.36 429.716 476.713 429.875C477.078 430.033 477.474 430.185 477.9 430.331C478.338 430.477 478.77 430.642 479.196 430.824C479.634 431.007 480.03 431.244 480.383 431.536C480.748 431.828 481.04 432.206 481.259 432.668C481.478 433.119 481.588 433.679 481.588 434.348C481.588 435.541 481.168 436.478 480.328 437.16C479.488 437.842 478.338 438.183 476.877 438.183Z" fill="#F6F9F2"/>
<rect x="306.5" y="19" width="21" height="21" rx="6" fill="#A5C686"/>
<path d="M336.601 35V24.2544H338.068L342.424 31.2245H341.584L345.925 24.2544H347.392V35H345.328V27.8159L345.726 27.9382L342.699 32.7989H341.293L338.267 27.9382L338.679 27.8159V35H336.601ZM352.308 35.1529C351.635 35.1529 351.029 34.9847 350.489 34.6484C349.949 34.3122 349.526 33.8536 349.22 33.2728C348.915 32.6919 348.762 32.0397 348.762 31.3162C348.762 30.5825 348.915 29.9253 349.22 29.3444C349.526 28.7636 349.949 28.305 350.489 27.9687C351.029 27.6325 351.635 27.4643 352.308 27.4643C352.838 27.4643 353.312 27.5713 353.729 27.7853C354.147 27.9993 354.478 28.2999 354.723 28.6871C354.978 29.0642 355.115 29.4922 355.136 29.9711V32.6308C355.115 33.1199 354.978 33.553 354.723 33.93C354.478 34.3071 354.147 34.6077 353.729 34.8319C353.312 35.0459 352.838 35.1529 352.308 35.1529ZM352.675 33.3033C353.235 33.3033 353.689 33.1199 354.035 32.7531C354.382 32.376 354.555 31.892 354.555 31.3009C354.555 30.9137 354.473 30.5723 354.31 30.2768C354.157 29.9711 353.938 29.7367 353.653 29.5737C353.378 29.4005 353.052 29.3138 352.675 29.3138C352.308 29.3138 351.982 29.4005 351.697 29.5737C351.421 29.7367 351.202 29.9711 351.039 30.2768C350.886 30.5723 350.81 30.9137 350.81 31.3009C350.81 31.6984 350.886 32.0499 351.039 32.3556C351.202 32.6512 351.421 32.8855 351.697 33.0588C351.982 33.2218 352.308 33.3033 352.675 33.3033ZM354.448 35V33.0129L354.769 31.2092L354.448 29.4361V27.6172H356.435V35H354.448ZM359.139 35V24.5448H361.141V35H359.139ZM357.412 29.375V27.6172H362.868V29.375H357.412ZM367.148 35.1529C366.394 35.1529 365.716 34.9847 365.115 34.6484C364.513 34.3122 364.04 33.8536 363.693 33.2728C363.347 32.6919 363.173 32.0397 363.173 31.3162C363.173 30.5825 363.347 29.9253 363.693 29.3444C364.04 28.7636 364.513 28.305 365.115 27.9687C365.726 27.6223 366.404 27.449 367.148 27.449C367.728 27.449 368.263 27.556 368.753 27.77C369.242 27.984 369.665 28.2897 370.021 28.6871L368.737 29.9864C368.544 29.7724 368.309 29.6094 368.034 29.4973C367.769 29.3852 367.474 29.3291 367.148 29.3291C366.781 29.3291 366.45 29.4157 366.154 29.589C365.869 29.752 365.639 29.9813 365.466 30.2768C365.303 30.5622 365.222 30.9035 365.222 31.3009C365.222 31.6882 365.303 32.0346 365.466 32.3403C365.639 32.6359 365.869 32.8702 366.154 33.0435C366.45 33.2065 366.781 33.288 367.148 33.288C367.484 33.288 367.785 33.232 368.049 33.1199C368.325 32.9976 368.559 32.8244 368.753 32.6002L370.052 33.8995C369.675 34.3071 369.242 34.6179 368.753 34.8319C368.263 35.0459 367.728 35.1529 367.148 35.1529ZM376.001 35V30.766C376.001 30.3278 375.863 29.9711 375.588 29.696C375.313 29.4208 374.956 29.2833 374.518 29.2833C374.233 29.2833 373.978 29.3444 373.754 29.4667C373.53 29.589 373.351 29.7622 373.219 29.9864C373.096 30.2106 373.035 30.4704 373.035 30.766L372.256 30.3685C372.256 29.7877 372.378 29.2833 372.623 28.8553C372.867 28.4171 373.203 28.0757 373.631 27.8312C374.07 27.5866 374.569 27.4643 375.129 27.4643C375.69 27.4643 376.184 27.5866 376.612 27.8312C377.05 28.0757 377.392 28.412 377.636 28.84C377.881 29.268 378.003 29.7622 378.003 30.3227V35H376.001ZM371.033 35V23.9487H373.035V35H371.033ZM382.551 35.1529C381.878 35.1529 381.272 34.9847 380.732 34.6484C380.192 34.3122 379.769 33.8536 379.463 33.2728C379.157 32.6919 379.005 32.0397 379.005 31.3162C379.005 30.5825 379.157 29.9253 379.463 29.3444C379.769 28.7636 380.192 28.305 380.732 27.9687C381.272 27.6325 381.878 27.4643 382.551 27.4643C383.081 27.4643 383.555 27.5713 383.972 27.7853C384.39 27.9993 384.721 28.2999 384.966 28.6871C385.221 29.0642 385.358 29.4922 385.379 29.9711V32.6308C385.358 33.1199 385.221 33.553 384.966 33.93C384.721 34.3071 384.39 34.6077 383.972 34.8319C383.555 35.0459 383.081 35.1529 382.551 35.1529ZM382.918 33.3033C383.478 33.3033 383.932 33.1199 384.278 32.7531C384.625 32.376 384.798 31.892 384.798 31.3009C384.798 30.9137 384.716 30.5723 384.553 30.2768C384.4 29.9711 384.181 29.7367 383.896 29.5737C383.621 29.4005 383.295 29.3138 382.918 29.3138C382.551 29.3138 382.225 29.4005 381.939 29.5737C381.664 29.7367 381.445 29.9711 381.282 30.2768C381.129 30.5723 381.053 30.9137 381.053 31.3009C381.053 31.6984 381.129 32.0499 381.282 32.3556C381.445 32.6512 381.664 32.8855 381.939 33.0588C382.225 33.2218 382.551 33.3033 382.918 33.3033ZM384.691 35V33.0129L385.012 31.2092L384.691 29.4361V27.6172H386.678V35H384.691Z" fill="#F6F9F2"/>
<rect x="420.5" y="19" width="21" height="21" rx="6" fill="#F5DAA3"/>
<path d="M455.629 35.1681C454.845 35.1681 454.111 35.0255 453.428 34.7401C452.756 34.4548 452.165 34.0625 451.655 33.5632C451.156 33.0537 450.764 32.4626 450.478 31.7901C450.193 31.1073 450.05 30.3787 450.05 29.6043C450.05 28.8298 450.188 28.1114 450.463 27.449C450.748 26.7765 451.141 26.1905 451.64 25.6912C452.149 25.1817 452.74 24.7894 453.413 24.5142C454.086 24.2289 454.814 24.0863 455.599 24.0863C456.394 24.0863 457.127 24.2289 457.8 24.5142C458.473 24.7894 459.058 25.1817 459.558 25.6912C460.067 26.1905 460.465 26.7765 460.75 27.449C461.035 28.1216 461.178 28.8451 461.178 29.6196C461.178 30.394 461.035 31.1175 460.75 31.7901C460.465 32.4626 460.067 33.0537 459.558 33.5632C459.058 34.0625 458.473 34.4548 457.8 34.7401C457.138 35.0255 456.414 35.1681 455.629 35.1681ZM455.599 33.2269C456.292 33.2269 456.893 33.074 457.403 32.7683C457.912 32.4626 458.309 32.0397 458.595 31.4997C458.89 30.9596 459.038 30.3278 459.038 29.6043C459.038 29.0744 458.957 28.5903 458.793 28.1522C458.63 27.714 458.396 27.3369 458.09 27.021C457.785 26.695 457.423 26.4453 457.005 26.2721C456.587 26.0988 456.119 26.0122 455.599 26.0122C454.926 26.0122 454.33 26.1651 453.81 26.4708C453.301 26.7663 452.898 27.1841 452.603 27.7242C452.318 28.2643 452.175 28.891 452.175 29.6043C452.175 30.1444 452.256 30.6386 452.42 31.0869C452.593 31.5353 452.827 31.9175 453.123 32.2334C453.428 32.5492 453.79 32.7938 454.208 32.967C454.636 33.1403 455.1 33.2269 455.599 33.2269ZM463.544 35V24.5448H465.547V35H463.544ZM461.817 29.375V27.6172H467.274V29.375H461.817ZM473.215 35V30.766C473.215 30.3278 473.077 29.9711 472.802 29.696C472.527 29.4208 472.17 29.2833 471.732 29.2833C471.447 29.2833 471.192 29.3444 470.968 29.4667C470.744 29.589 470.565 29.7622 470.433 29.9864C470.311 30.2106 470.25 30.4704 470.25 30.766L469.47 30.3685C469.47 29.7877 469.592 29.2833 469.837 28.8553C470.081 28.4171 470.418 28.0757 470.846 27.8312C471.284 27.5866 471.783 27.4643 472.344 27.4643C472.904 27.4643 473.398 27.5866 473.826 27.8312C474.264 28.0757 474.606 28.412 474.85 28.84C475.095 29.268 475.217 29.7622 475.217 30.3227V35H473.215ZM468.247 35V23.9487H470.25V35H468.247ZM480.208 35.1529C479.434 35.1529 478.746 34.9898 478.145 34.6637C477.544 34.3274 477.065 33.8689 476.708 33.288C476.361 32.7072 476.188 32.0448 476.188 31.3009C476.188 30.5672 476.356 29.9151 476.693 29.3444C477.039 28.7636 477.508 28.305 478.099 27.9687C478.69 27.6223 479.347 27.449 480.071 27.449C480.784 27.449 481.411 27.6121 481.951 27.9382C482.501 28.2541 482.929 28.6922 483.235 29.2527C483.551 29.803 483.709 30.4297 483.709 31.1328C483.709 31.2653 483.698 31.4028 483.678 31.5455C483.668 31.678 483.642 31.8308 483.602 32.0041L477.396 32.0194V30.5214L482.669 30.5061L481.859 31.1328C481.839 30.6946 481.757 30.3278 481.615 30.0323C481.482 29.7367 481.283 29.5126 481.018 29.3597C480.764 29.1967 480.448 29.1151 480.071 29.1151C479.673 29.1151 479.327 29.2068 479.031 29.3903C478.736 29.5635 478.507 29.8132 478.343 30.1393C478.191 30.4552 478.114 30.8322 478.114 31.2704C478.114 31.7187 478.196 32.1111 478.359 32.4473C478.532 32.7734 478.777 33.0282 479.092 33.2116C479.408 33.3848 479.775 33.4715 480.193 33.4715C480.57 33.4715 480.911 33.4103 481.217 33.288C481.523 33.1556 481.788 32.962 482.012 32.7072L483.189 33.8842C482.832 34.302 482.394 34.6179 481.874 34.8319C481.365 35.0459 480.81 35.1529 480.208 35.1529ZM484.794 35V27.6172H486.797V35H484.794ZM486.797 30.9188L486.017 30.3991C486.109 29.4922 486.374 28.7789 486.812 28.2592C487.25 27.7293 487.882 27.4643 488.707 27.4643C489.064 27.4643 489.385 27.5255 489.67 27.6477C489.955 27.7598 490.215 27.9484 490.45 28.2133L489.196 29.6501C489.084 29.5278 488.947 29.4361 488.784 29.375C488.631 29.3138 488.452 29.2833 488.249 29.2833C487.821 29.2833 487.469 29.4208 487.194 29.696C486.929 29.9609 486.797 30.3685 486.797 30.9188ZM494.315 35V24.2544H496.394V35H494.315ZM495.844 35V33.1658H501.79V35H495.844ZM495.844 30.3991V28.626H501.255V30.3991H495.844ZM495.844 26.0886V24.2544H501.714V26.0886H495.844ZM508.111 35V30.766C508.111 30.3278 507.974 29.9711 507.699 29.696C507.424 29.4208 507.067 29.2833 506.629 29.2833C506.343 29.2833 506.089 29.3444 505.865 29.4667C505.64 29.589 505.462 29.7622 505.33 29.9864C505.207 30.2106 505.146 30.4704 505.146 30.766L504.367 30.3685C504.367 29.7877 504.489 29.2833 504.733 28.8553C504.988 28.4171 505.335 28.0757 505.773 27.8312C506.221 27.5866 506.726 27.4643 507.286 27.4643C507.826 27.4643 508.31 27.6019 508.738 27.877C509.166 28.142 509.502 28.4935 509.747 28.9317C509.992 29.3597 510.114 29.8234 510.114 30.3227V35H508.111ZM503.144 35V27.6172H505.146V35H503.144ZM515.105 35.1529C514.33 35.1529 513.643 34.9898 513.041 34.6637C512.44 34.3274 511.961 33.8689 511.605 33.288C511.258 32.7072 511.085 32.0448 511.085 31.3009C511.085 30.5672 511.253 29.9151 511.589 29.3444C511.936 28.7636 512.404 28.305 512.995 27.9687C513.587 27.6223 514.244 27.449 514.967 27.449C515.681 27.449 516.307 27.6121 516.847 27.9382C517.398 28.2541 517.826 28.6922 518.131 29.2527C518.447 29.803 518.605 30.4297 518.605 31.1328C518.605 31.2653 518.595 31.4028 518.575 31.5455C518.564 31.678 518.539 31.8308 518.498 32.0041L512.292 32.0194V30.5214L517.566 30.5061L516.756 31.1328C516.735 30.6946 516.654 30.3278 516.511 30.0323C516.379 29.7367 516.18 29.5126 515.915 29.3597C515.66 29.1967 515.344 29.1151 514.967 29.1151C514.57 29.1151 514.223 29.2068 513.928 29.3903C513.632 29.5635 513.403 29.8132 513.24 30.1393C513.087 30.4552 513.011 30.8322 513.011 31.2704C513.011 31.7187 513.092 32.1111 513.255 32.4473C513.429 32.7734 513.673 33.0282 513.989 33.2116C514.305 33.3848 514.672 33.4715 515.09 33.4715C515.467 33.4715 515.808 33.4103 516.114 33.288C516.419 33.1556 516.684 32.962 516.909 32.7072L518.086 33.8842C517.729 34.302 517.291 34.6179 516.771 34.8319C516.261 35.0459 515.706 35.1529 515.105 35.1529ZM519.691 35V27.6172H521.693V35H519.691ZM521.693 30.9188L520.914 30.3991C521.005 29.4922 521.27 28.7789 521.708 28.2592C522.147 27.7293 522.778 27.4643 523.604 27.4643C523.96 27.4643 524.281 27.5255 524.567 27.6477C524.852 27.7598 525.112 27.9484 525.346 28.2133L524.093 29.6501C523.981 29.5278 523.843 29.4361 523.68 29.375C523.527 29.3138 523.349 29.2833 523.145 29.2833C522.717 29.2833 522.366 29.4208 522.091 29.696C521.826 29.9609 521.693 30.3685 521.693 30.9188ZM528.775 38.2711C527.991 38.2711 527.298 38.1284 526.697 37.8431C526.095 37.5679 525.616 37.1756 525.26 36.6661L526.529 35.3974C526.814 35.7337 527.13 35.9885 527.476 36.1617C527.833 36.3451 528.261 36.4368 528.76 36.4368C529.382 36.4368 529.871 36.2789 530.228 35.963C530.594 35.6471 530.778 35.2089 530.778 34.6484V32.7989L531.114 31.1787L530.793 29.5584V27.6172H532.78V34.6179C532.78 35.3516 532.607 35.9885 532.261 36.5285C531.924 37.0788 531.456 37.5068 530.854 37.8125C530.253 38.1182 529.56 38.2711 528.775 38.2711ZM528.684 34.8013C528.021 34.8013 527.425 34.6433 526.895 34.3274C526.365 34.0014 525.948 33.5581 525.642 32.9976C525.346 32.4372 525.199 31.8105 525.199 31.1175C525.199 30.4246 525.346 29.803 525.642 29.2527C525.948 28.7024 526.365 28.2693 526.895 27.9535C527.425 27.6274 528.021 27.4643 528.684 27.4643C529.234 27.4643 529.718 27.5713 530.136 27.7853C530.564 27.9993 530.9 28.2948 531.145 28.6719C531.389 29.0387 531.522 29.4718 531.542 29.9711V32.2945C531.522 32.7836 531.384 33.2218 531.129 33.609C530.885 33.9861 530.549 34.2816 530.121 34.4956C529.703 34.6994 529.224 34.8013 528.684 34.8013ZM529.081 32.9823C529.448 32.9823 529.764 32.9059 530.029 32.7531C530.304 32.59 530.518 32.3709 530.671 32.0958C530.824 31.8105 530.9 31.4895 530.9 31.1328C530.9 30.766 530.824 30.445 530.671 30.1698C530.518 29.8947 530.304 29.6807 530.029 29.5278C529.764 29.3648 529.448 29.2833 529.081 29.2833C528.714 29.2833 528.393 29.3648 528.118 29.5278C527.843 29.6807 527.629 29.8998 527.476 30.1851C527.323 30.4602 527.247 30.7761 527.247 31.1328C527.247 31.4793 527.323 31.7952 527.476 32.0805C527.629 32.3556 527.843 32.5747 528.118 32.7378C528.393 32.9008 528.714 32.9823 529.081 32.9823ZM536.71 35.0611L533.622 27.6172H535.793L537.841 33.3033H537.108L539.232 27.6172H541.418L538.132 35.0611H536.71ZM534.662 38.0876L536.909 33.3339L538.132 35.0611L536.787 38.0876H534.662ZM548.444 35.1529C547.578 35.1529 546.834 35.0051 546.213 34.7096C545.601 34.4141 545.046 33.9708 544.547 33.3798L545.922 32.0041C546.238 32.4219 546.605 32.748 547.023 32.9823C547.441 33.2065 547.95 33.3186 548.551 33.3186C549.091 33.3186 549.519 33.2116 549.835 32.9976C550.161 32.7836 550.324 32.4881 550.324 32.1111C550.324 31.785 550.233 31.52 550.049 31.3162C549.866 31.1124 549.621 30.9392 549.316 30.7965C549.02 30.6539 548.689 30.5265 548.322 30.4144C547.965 30.2921 547.604 30.1545 547.237 30.0017C546.88 29.8488 546.549 29.6603 546.243 29.4361C545.948 29.2018 545.708 28.9062 545.525 28.5496C545.341 28.1827 545.25 27.7242 545.25 27.1739C545.25 26.5217 545.408 25.9664 545.724 25.5078C546.039 25.0492 546.473 24.6977 547.023 24.4531C547.573 24.2085 548.195 24.0863 548.888 24.0863C549.621 24.0863 550.284 24.2238 550.875 24.499C551.466 24.7741 551.95 25.1308 552.327 25.5689L550.951 26.9446C550.635 26.5981 550.309 26.3434 549.973 26.1803C549.647 26.0173 549.275 25.9358 548.857 25.9358C548.378 25.9358 548.001 26.0275 547.726 26.2109C547.451 26.3943 547.313 26.6593 547.313 27.0058C547.313 27.3013 547.405 27.5407 547.588 27.7242C547.772 27.9076 548.011 28.0655 548.307 28.198C548.613 28.3305 548.944 28.4579 549.3 28.5802C549.667 28.7024 550.029 28.84 550.386 28.9929C550.752 29.1457 551.084 29.3444 551.379 29.589C551.685 29.8335 551.929 30.1494 552.113 30.5367C552.296 30.9137 552.388 31.3825 552.388 31.9429C552.388 32.9416 552.036 33.7262 551.333 34.2969C550.63 34.8675 549.667 35.1529 548.444 35.1529ZM557.072 35.1529C556.328 35.1529 555.655 34.9847 555.054 34.6484C554.463 34.302 553.989 33.8383 553.633 33.2575C553.286 32.6664 553.113 32.0092 553.113 31.2857C553.113 30.5622 553.286 29.9151 553.633 29.3444C553.979 28.7636 554.453 28.305 555.054 27.9687C555.655 27.6223 556.323 27.449 557.057 27.449C557.811 27.449 558.483 27.6223 559.074 27.9687C559.676 28.305 560.149 28.7636 560.496 29.3444C560.842 29.9151 561.016 30.5622 561.016 31.2857C561.016 32.0092 560.842 32.6664 560.496 33.2575C560.149 33.8383 559.676 34.302 559.074 34.6484C558.483 34.9847 557.816 35.1529 557.072 35.1529ZM557.057 33.288C557.434 33.288 557.765 33.2065 558.05 33.0435C558.346 32.8702 558.57 32.6359 558.723 32.3403C558.886 32.0346 558.967 31.6882 558.967 31.3009C558.967 30.9137 558.886 30.5723 558.723 30.2768C558.56 29.9813 558.335 29.752 558.05 29.589C557.765 29.4157 557.434 29.3291 557.057 29.3291C556.69 29.3291 556.364 29.4157 556.078 29.589C555.793 29.752 555.569 29.9813 555.406 30.2768C555.243 30.5723 555.161 30.9137 555.161 31.3009C555.161 31.6882 555.243 32.0346 555.406 32.3403C555.569 32.6359 555.793 32.8702 556.078 33.0435C556.364 33.2065 556.69 33.288 557.057 33.288ZM565.301 35.1529C564.648 35.1529 564.068 35.0153 563.558 34.7401C563.059 34.465 562.666 34.0829 562.381 33.5937C562.096 33.1046 561.953 32.5391 561.953 31.8971V27.6172H563.971V31.8512C563.971 32.1569 564.022 32.4219 564.124 32.6461C564.225 32.8601 564.378 33.0231 564.582 33.1352C564.786 33.2473 565.025 33.3033 565.301 33.3033C565.718 33.3033 566.044 33.1759 566.279 32.9212C566.513 32.6664 566.63 32.3098 566.63 31.8512V27.6172H568.633V31.8971C568.633 32.5492 568.49 33.1199 568.205 33.609C567.93 34.0982 567.537 34.4803 567.028 34.7554C566.528 35.0204 565.953 35.1529 565.301 35.1529ZM570.074 35V27.6172H572.077V35H570.074ZM572.077 30.9188L571.297 30.3991C571.389 29.4922 571.654 28.7789 572.092 28.2592C572.53 27.7293 573.162 27.4643 573.988 27.4643C574.344 27.4643 574.665 27.5255 574.951 27.6477C575.236 27.7598 575.496 27.9484 575.73 28.2133L574.477 29.6501C574.365 29.5278 574.227 29.4361 574.064 29.375C573.911 29.3138 573.733 29.2833 573.529 29.2833C573.101 29.2833 572.749 29.4208 572.474 29.696C572.209 29.9609 572.077 30.3685 572.077 30.9188ZM579.557 35.1529C578.803 35.1529 578.125 34.9847 577.524 34.6484C576.922 34.3122 576.449 33.8536 576.102 33.2728C575.756 32.6919 575.582 32.0397 575.582 31.3162C575.582 30.5825 575.756 29.9253 576.102 29.3444C576.449 28.7636 576.922 28.305 577.524 27.9687C578.135 27.6223 578.813 27.449 579.557 27.449C580.137 27.449 580.672 27.556 581.162 27.77C581.651 27.984 582.074 28.2897 582.43 28.6871L581.146 29.9864C580.953 29.7724 580.718 29.6094 580.443 29.4973C580.178 29.3852 579.883 29.3291 579.557 29.3291C579.19 29.3291 578.859 29.4157 578.563 29.589C578.278 29.752 578.049 29.9813 577.875 30.2768C577.712 30.5622 577.631 30.9035 577.631 31.3009C577.631 31.6882 577.712 32.0346 577.875 32.3403C578.049 32.6359 578.278 32.8702 578.563 33.0435C578.859 33.2065 579.19 33.288 579.557 33.288C579.893 33.288 580.194 33.232 580.458 33.1199C580.734 32.9976 580.968 32.8244 581.162 32.6002L582.461 33.8995C582.084 34.3071 581.651 34.6179 581.162 34.8319C580.672 35.0459 580.137 35.1529 579.557 35.1529ZM586.809 35.1529C586.034 35.1529 585.346 34.9898 584.745 34.6637C584.144 34.3274 583.665 33.8689 583.308 33.288C582.962 32.7072 582.789 32.0448 582.789 31.3009C582.789 30.5672 582.957 29.9151 583.293 29.3444C583.64 28.7636 584.108 28.305 584.699 27.9687C585.29 27.6223 585.948 27.449 586.671 27.449C587.384 27.449 588.011 27.6121 588.551 27.9382C589.102 28.2541 589.53 28.6922 589.835 29.2527C590.151 29.803 590.309 30.4297 590.309 31.1328C590.309 31.2653 590.299 31.4028 590.278 31.5455C590.268 31.678 590.243 31.8308 590.202 32.0041L583.996 32.0194V30.5214L589.27 30.5061L588.46 31.1328C588.439 30.6946 588.358 30.3278 588.215 30.0323C588.082 29.7367 587.884 29.5126 587.619 29.3597C587.364 29.1967 587.048 29.1151 586.671 29.1151C586.274 29.1151 585.927 29.2068 585.632 29.3903C585.336 29.5635 585.107 29.8132 584.944 30.1393C584.791 30.4552 584.715 30.8322 584.715 31.2704C584.715 31.7187 584.796 32.1111 584.959 32.4473C585.132 32.7734 585.377 33.0282 585.693 33.2116C586.009 33.3848 586.376 33.4715 586.793 33.4715C587.17 33.4715 587.512 33.4103 587.818 33.288C588.123 33.1556 588.388 32.962 588.612 32.7072L589.789 33.8842C589.433 34.302 588.995 34.6179 588.475 34.8319C587.965 35.0459 587.41 35.1529 586.809 35.1529ZM593.932 35.1681C593.514 35.1681 593.101 35.1121 592.694 35C592.296 34.8879 591.93 34.7351 591.593 34.5414C591.257 34.3376 590.967 34.0931 590.722 33.8077L591.914 32.6002C592.169 32.8855 592.465 33.0995 592.801 33.2422C593.137 33.3848 593.509 33.4562 593.917 33.4562C594.243 33.4562 594.487 33.4103 594.65 33.3186C594.824 33.2269 594.91 33.0893 594.91 32.9059C594.91 32.7021 594.818 32.5442 594.635 32.4321C594.462 32.32 594.233 32.2283 593.947 32.1569C593.662 32.0754 593.361 31.9888 593.045 31.8971C592.74 31.7952 592.444 31.6678 592.159 31.5149C591.874 31.3519 591.639 31.1328 591.456 30.8577C591.282 30.5723 591.196 30.2055 591.196 29.7571C591.196 29.2884 591.308 28.8808 591.532 28.5343C591.767 28.1878 592.098 27.9178 592.526 27.7242C592.954 27.5306 593.458 27.4337 594.039 27.4337C594.65 27.4337 595.201 27.5407 595.69 27.7547C596.189 27.9687 596.602 28.2897 596.928 28.7177L595.72 29.9253C595.496 29.6501 595.241 29.4514 594.956 29.3291C594.681 29.2068 594.38 29.1457 594.054 29.1457C593.759 29.1457 593.529 29.1916 593.366 29.2833C593.214 29.375 593.137 29.5024 593.137 29.6654C593.137 29.8488 593.224 29.9915 593.397 30.0934C593.58 30.1953 593.815 30.287 594.1 30.3685C594.385 30.4399 594.681 30.5265 594.987 30.6284C595.303 30.7201 595.598 30.8526 595.873 31.0258C596.158 31.199 596.388 31.4283 596.561 31.7136C596.744 31.999 596.836 32.3658 596.836 32.8142C596.836 33.5377 596.576 34.1134 596.057 34.5414C595.537 34.9592 594.829 35.1681 593.932 35.1681Z" fill="#F6F9F2"/>
</g>
<defs>
<linearGradient id="paint0_linear_8818_260" x1="1030.77" y1="551" x2="1027.98" y2="452.074" gradientUnits="userSpaceOnUse">
<stop stop-color="#374B3C"/>
<stop offset="1" stop-color="#374B3C" stop-opacity="0"/>
</linearGradient>
<linearGradient id="paint1_linear_8818_260" x1="226.078" y1="99" x2="223.289" y2="0.0742212" gradientUnits="userSpaceOnUse">
<stop stop-color="#374B3C"/>
<stop offset="1" stop-color="#374B3C" stop-opacity="0"/>
</linearGradient>
<linearGradient id="paint2_linear_8818_260" x1="451.695" y1="300" x2="451.695" y2="452" gradientUnits="userSpaceOnUse">
<stop stop-color="#374B3C" stop-opacity="0"/>
<stop offset="1" stop-color="#374B3C"/>
</linearGradient>
<clipPath id="clip0_8818_260">
<rect width="903" height="452" fill="white"/>
</clipPath>
</defs>
</svg>
