<svg width="902" height="452" viewBox="0 0 902 452" fill="none" xmlns="http://www.w3.org/2000/svg">
<rect x="636" y="281" width="177.171" height="41.886" rx="11.1166" fill="#F6F9F2"/>
<path d="M650.499 307.443V296.698H652.578V307.443H650.499ZM652.028 307.443V305.594H657.5V307.443H652.028ZM661.519 307.596C660.847 307.596 660.24 307.428 659.7 307.092C659.16 306.755 658.737 306.297 658.432 305.716C658.126 305.135 657.973 304.483 657.973 303.759C657.973 303.026 658.126 302.368 658.432 301.788C658.737 301.207 659.16 300.748 659.7 300.412C660.24 300.076 660.847 299.907 661.519 299.907C662.049 299.907 662.523 300.014 662.941 300.228C663.359 300.442 663.69 300.743 663.934 301.13C664.189 301.507 664.327 301.935 664.347 302.414V305.074C664.327 305.563 664.189 305.996 663.934 306.373C663.69 306.75 663.359 307.051 662.941 307.275C662.523 307.489 662.049 307.596 661.519 307.596ZM661.886 305.746C662.447 305.746 662.9 305.563 663.246 305.196C663.593 304.819 663.766 304.335 663.766 303.744C663.766 303.357 663.685 303.015 663.522 302.72C663.369 302.414 663.15 302.18 662.864 302.017C662.589 301.844 662.263 301.757 661.886 301.757C661.519 301.757 661.193 301.844 660.908 302.017C660.633 302.18 660.414 302.414 660.251 302.72C660.098 303.015 660.021 303.357 660.021 303.744C660.021 304.141 660.098 304.493 660.251 304.799C660.414 305.094 660.633 305.329 660.908 305.502C661.193 305.665 661.519 305.746 661.886 305.746ZM663.659 307.443V305.456L663.98 303.652L663.659 301.879V300.06H665.646V307.443H663.659ZM669.802 307.611C669.384 307.611 668.972 307.555 668.564 307.443C668.167 307.331 667.8 307.178 667.464 306.985C667.127 306.781 666.837 306.536 666.592 306.251L667.785 305.043C668.039 305.329 668.335 305.543 668.671 305.685C669.007 305.828 669.379 305.899 669.787 305.899C670.113 305.899 670.358 305.853 670.521 305.762C670.694 305.67 670.781 305.532 670.781 305.349C670.781 305.145 670.689 304.987 670.505 304.875C670.332 304.763 670.103 304.671 669.818 304.6C669.532 304.519 669.232 304.432 668.916 304.34C668.61 304.238 668.314 304.111 668.029 303.958C667.744 303.795 667.509 303.576 667.326 303.301C667.153 303.015 667.066 302.649 667.066 302.2C667.066 301.731 667.178 301.324 667.402 300.977C667.637 300.631 667.968 300.361 668.396 300.167C668.824 299.974 669.328 299.877 669.909 299.877C670.521 299.877 671.071 299.984 671.56 300.198C672.059 300.412 672.472 300.733 672.798 301.161L671.591 302.368C671.366 302.093 671.112 301.895 670.826 301.772C670.551 301.65 670.251 301.589 669.925 301.589C669.629 301.589 669.4 301.635 669.237 301.726C669.084 301.818 669.007 301.945 669.007 302.109C669.007 302.292 669.094 302.435 669.267 302.537C669.451 302.638 669.685 302.73 669.97 302.812C670.256 302.883 670.551 302.97 670.857 303.072C671.173 303.163 671.468 303.296 671.743 303.469C672.029 303.642 672.258 303.871 672.431 304.157C672.615 304.442 672.706 304.809 672.706 305.257C672.706 305.981 672.447 306.557 671.927 306.985C671.407 307.402 670.699 307.611 669.802 307.611ZM674.989 307.443V296.988H676.991V307.443H674.989ZM673.262 301.818V300.06H678.719V301.818H673.262ZM679.692 307.443V300.06H681.71V307.443H679.692ZM680.701 298.868C680.375 298.868 680.105 298.761 679.891 298.547C679.677 298.323 679.57 298.048 679.57 297.722C679.57 297.406 679.677 297.136 679.891 296.912C680.105 296.687 680.375 296.575 680.701 296.575C681.037 296.575 681.307 296.687 681.511 296.912C681.725 297.136 681.832 297.406 681.832 297.722C681.832 298.048 681.725 298.323 681.511 298.547C681.307 298.761 681.037 298.868 680.701 298.868ZM688.298 307.443V303.209C688.298 302.771 688.161 302.414 687.886 302.139C687.611 301.864 687.254 301.726 686.816 301.726C686.53 301.726 686.276 301.788 686.051 301.91C685.827 302.032 685.649 302.205 685.516 302.43C685.394 302.654 685.333 302.914 685.333 303.209L684.553 302.812C684.553 302.231 684.676 301.726 684.92 301.298C685.175 300.86 685.522 300.519 685.96 300.274C686.408 300.03 686.912 299.907 687.473 299.907C688.013 299.907 688.497 300.045 688.925 300.32C689.353 300.585 689.689 300.937 689.934 301.375C690.178 301.803 690.301 302.266 690.301 302.766V307.443H688.298ZM683.331 307.443V300.06H685.333V307.443H683.331ZM694.848 310.714C694.064 310.714 693.371 310.572 692.77 310.286C692.168 310.011 691.69 309.619 691.333 309.109L692.602 307.841C692.887 308.177 693.203 308.432 693.549 308.605C693.906 308.788 694.334 308.88 694.833 308.88C695.455 308.88 695.944 308.722 696.301 308.406C696.667 308.09 696.851 307.652 696.851 307.092V305.242L697.187 303.622L696.866 302.002V300.06H698.853V307.061C698.853 307.795 698.68 308.432 698.334 308.972C697.997 309.522 697.529 309.95 696.927 310.256C696.326 310.561 695.633 310.714 694.848 310.714ZM694.757 307.244C694.094 307.244 693.498 307.086 692.968 306.771C692.438 306.444 692.021 306.001 691.715 305.441C691.419 304.88 691.272 304.254 691.272 303.561C691.272 302.868 691.419 302.246 691.715 301.696C692.021 301.146 692.438 300.712 692.968 300.397C693.498 300.07 694.094 299.907 694.757 299.907C695.307 299.907 695.791 300.014 696.209 300.228C696.637 300.442 696.973 300.738 697.218 301.115C697.462 301.482 697.595 301.915 697.615 302.414V304.738C697.595 305.227 697.457 305.665 697.202 306.052C696.958 306.429 696.622 306.725 696.194 306.939C695.776 307.143 695.297 307.244 694.757 307.244ZM695.154 305.425C695.521 305.425 695.837 305.349 696.102 305.196C696.377 305.033 696.591 304.814 696.744 304.539C696.897 304.254 696.973 303.933 696.973 303.576C696.973 303.209 696.897 302.888 696.744 302.613C696.591 302.338 696.377 302.124 696.102 301.971C695.837 301.808 695.521 301.726 695.154 301.726C694.787 301.726 694.466 301.808 694.191 301.971C693.916 302.124 693.702 302.343 693.549 302.628C693.396 302.903 693.32 303.219 693.32 303.576C693.32 303.922 693.396 304.238 693.549 304.524C693.702 304.799 693.916 305.018 694.191 305.181C694.466 305.344 694.787 305.425 695.154 305.425ZM703.506 307.443V296.698H705.585V307.443H703.506ZM705.035 303.041V301.191H710.446V303.041H705.035ZM705.035 298.532V296.698H710.706V298.532H705.035ZM715.192 307.596C714.448 307.596 713.776 307.428 713.175 307.092C712.584 306.745 712.11 306.281 711.753 305.701C711.407 305.11 711.233 304.452 711.233 303.729C711.233 303.005 711.407 302.358 711.753 301.788C712.1 301.207 712.573 300.748 713.175 300.412C713.776 300.065 714.443 299.892 715.177 299.892C715.931 299.892 716.604 300.065 717.195 300.412C717.796 300.748 718.27 301.207 718.616 301.788C718.963 302.358 719.136 303.005 719.136 303.729C719.136 304.452 718.963 305.11 718.616 305.701C718.27 306.281 717.796 306.745 717.195 307.092C716.604 307.428 715.936 307.596 715.192 307.596ZM715.177 305.731C715.554 305.731 715.885 305.65 716.171 305.487C716.466 305.313 716.69 305.079 716.843 304.783C717.006 304.478 717.088 304.131 717.088 303.744C717.088 303.357 717.006 303.015 716.843 302.72C716.68 302.424 716.456 302.195 716.171 302.032C715.885 301.859 715.554 301.772 715.177 301.772C714.81 301.772 714.484 301.859 714.199 302.032C713.913 302.195 713.689 302.424 713.526 302.72C713.363 303.015 713.282 303.357 713.282 303.744C713.282 304.131 713.363 304.478 713.526 304.783C713.689 305.079 713.913 305.313 714.199 305.487C714.484 305.65 714.81 305.731 715.177 305.731ZM723.757 307.596C723.003 307.596 722.326 307.428 721.724 307.092C721.123 306.755 720.649 306.297 720.303 305.716C719.956 305.135 719.783 304.483 719.783 303.759C719.783 303.026 719.956 302.368 720.303 301.788C720.649 301.207 721.123 300.748 721.724 300.412C722.336 300.065 723.013 299.892 723.757 299.892C724.338 299.892 724.873 299.999 725.362 300.213C725.851 300.427 726.274 300.733 726.631 301.13L725.347 302.43C725.153 302.216 724.919 302.052 724.644 301.94C724.379 301.828 724.083 301.772 723.757 301.772C723.39 301.772 723.059 301.859 722.764 302.032C722.478 302.195 722.249 302.424 722.076 302.72C721.913 303.005 721.831 303.347 721.831 303.744C721.831 304.131 721.913 304.478 722.076 304.783C722.249 305.079 722.478 305.313 722.764 305.487C723.059 305.65 723.39 305.731 723.757 305.731C724.094 305.731 724.394 305.675 724.659 305.563C724.934 305.441 725.169 305.267 725.362 305.043L726.661 306.343C726.284 306.75 725.851 307.061 725.362 307.275C724.873 307.489 724.338 307.596 723.757 307.596ZM730.791 307.596C730.139 307.596 729.558 307.458 729.049 307.183C728.55 306.908 728.157 306.526 727.872 306.037C727.587 305.548 727.444 304.982 727.444 304.34V300.06H729.462V304.294C729.462 304.6 729.513 304.865 729.614 305.089C729.716 305.303 729.869 305.466 730.073 305.578C730.277 305.69 730.516 305.746 730.791 305.746C731.209 305.746 731.535 305.619 731.77 305.364C732.004 305.11 732.121 304.753 732.121 304.294V300.06H734.124V304.34C734.124 304.992 733.981 305.563 733.696 306.052C733.42 306.541 733.028 306.923 732.519 307.199C732.019 307.463 731.444 307.596 730.791 307.596ZM738.103 307.611C737.685 307.611 737.272 307.555 736.865 307.443C736.467 307.331 736.1 307.178 735.764 306.985C735.428 306.781 735.137 306.536 734.893 306.251L736.085 305.043C736.34 305.329 736.635 305.543 736.972 305.685C737.308 305.828 737.68 305.899 738.087 305.899C738.414 305.899 738.658 305.853 738.821 305.762C738.994 305.67 739.081 305.532 739.081 305.349C739.081 305.145 738.989 304.987 738.806 304.875C738.633 304.763 738.403 304.671 738.118 304.6C737.833 304.519 737.532 304.432 737.216 304.34C736.91 304.238 736.615 304.111 736.33 303.958C736.044 303.795 735.81 303.576 735.626 303.301C735.453 303.015 735.367 302.649 735.367 302.2C735.367 301.731 735.479 301.324 735.703 300.977C735.937 300.631 736.268 300.361 736.696 300.167C737.124 299.974 737.629 299.877 738.21 299.877C738.821 299.877 739.371 299.984 739.861 300.198C740.36 300.412 740.773 300.733 741.099 301.161L739.891 302.368C739.667 302.093 739.412 301.895 739.127 301.772C738.852 301.65 738.551 301.589 738.225 301.589C737.929 301.589 737.7 301.635 737.537 301.726C737.384 301.818 737.308 301.945 737.308 302.109C737.308 302.292 737.394 302.435 737.568 302.537C737.751 302.638 737.986 302.73 738.271 302.812C738.556 302.883 738.852 302.97 739.157 303.072C739.473 303.163 739.769 303.296 740.044 303.469C740.329 303.642 740.559 303.871 740.732 304.157C740.915 304.442 741.007 304.809 741.007 305.257C741.007 305.981 740.747 306.557 740.227 306.985C739.708 307.402 738.999 307.611 738.103 307.611Z" fill="black"/>
<path d="M791.857 290.41L788.768 293.507C788.532 293.737 788.414 294.005 788.414 294.311C788.414 294.617 788.529 294.887 788.76 295.124C788.991 295.36 789.262 295.476 789.573 295.474C789.884 295.471 790.155 295.354 790.385 295.124L791.544 293.964V311.079C791.544 311.408 791.654 311.677 791.873 311.887C792.092 312.097 792.369 312.203 792.703 312.203C793.032 312.203 793.306 312.092 793.525 311.87C793.744 311.648 793.853 311.373 793.853 311.044V293.946L795.031 295.124C795.267 295.36 795.538 295.478 795.843 295.478C796.149 295.478 796.42 295.36 796.656 295.124C796.886 294.887 797.002 294.617 797.002 294.311C797.002 294.005 796.886 293.737 796.656 293.507L793.559 290.41C793.323 290.174 793.039 290.056 792.708 290.056C792.377 290.056 792.093 290.174 791.857 290.41Z" fill="#A5C686"/>
<path d="M774.148 302C774.148 302.294 774.266 302.577 774.474 302.785C774.682 302.994 774.965 303.111 775.26 303.111C775.554 303.111 775.837 302.994 776.045 302.785C776.254 302.577 776.371 302.294 776.371 302C776.371 301.705 776.254 301.422 776.045 301.214C775.837 301.006 775.554 300.889 775.26 300.889C774.965 300.889 774.682 301.006 774.474 301.214C774.266 301.422 774.148 301.705 774.148 302Z" stroke="#374B3C" stroke-width="2" stroke-linecap="round" stroke-linejoin="round"/>
<path d="M769.703 302C769.703 303.473 770.288 304.886 771.33 305.928C772.372 306.97 773.785 307.555 775.259 307.555C776.732 307.555 778.145 306.97 779.187 305.928C780.229 304.886 780.814 303.473 780.814 302C780.814 300.526 780.229 299.113 779.187 298.072C778.145 297.03 776.732 296.444 775.259 296.444C773.785 296.444 772.372 297.03 771.33 298.072C770.288 299.113 769.703 300.526 769.703 302Z" stroke="#374B3C" stroke-width="2" stroke-linecap="round" stroke-linejoin="round"/>
<path d="M765.258 302C765.258 303.313 765.516 304.614 766.019 305.827C766.522 307.04 767.258 308.142 768.187 309.071C769.115 310 770.218 310.736 771.431 311.239C772.644 311.741 773.945 312 775.258 312C776.571 312 777.871 311.741 779.085 311.239C780.298 310.736 781.4 310 782.329 309.071C783.257 308.142 783.994 307.04 784.497 305.827C784.999 304.614 785.258 303.313 785.258 302C785.258 300.687 784.999 299.386 784.497 298.173C783.994 296.96 783.257 295.858 782.329 294.929C781.4 294 780.298 293.264 779.085 292.761C777.871 292.259 776.571 292 775.258 292C773.945 292 772.644 292.259 771.431 292.761C770.218 293.264 769.115 294 768.187 294.929C767.258 295.858 766.522 296.96 766.019 298.173C765.516 299.386 765.258 300.687 765.258 302Z" stroke="#374B3C" stroke-width="2" stroke-linecap="round" stroke-linejoin="round"/>
</svg>
