<?xml version="1.0" encoding="UTF-8" standalone="no"?>
<!DOCTYPE svg PUBLIC "-//W3C//DTD SVG 1.1//EN" "http://www.w3.org/Graphics/SVG/1.1/DTD/svg11.dtd">
<svg width="100%" height="100%" viewBox="0 0 2526 2250" version="1.1" xmlns="http://www.w3.org/2000/svg" xmlns:xlink="http://www.w3.org/1999/xlink" xml:space="preserve" xmlns:serif="http://www.serif.com/" style="fill-rule:evenodd;clip-rule:evenodd;stroke-linecap:round;stroke-linejoin:round;">
    <g transform="matrix(1,0,0,1,-125.964166,-264.152616)">
        <g transform="matrix(1.62376,0,0,1.723,1388.888889,1388.888889)">
            <g transform="matrix(1,0,0,1,-777.777778,-652.777778)">
                <g transform="matrix(5.555556,0,0,5.555556,0,0)">
                    <path d="M279.45,17.534L279.45,216.985C279.45,226.662 271.593,234.519 261.916,234.519L17.534,234.519C7.857,234.519 0,226.662 0,216.985L0,17.534C0,7.857 7.857,0 17.534,0L261.916,0C271.593,0 279.45,7.857 279.45,17.534Z" style="fill:rgb(246,249,242);"/>
                </g>
                <g transform="matrix(-5.555354,0.047291,-0.047291,-5.555354,2788.21185,460.930927)">
                    <path d="M249.421,59.46L244.549,54.575C244.177,54.211 243.99,53.788 243.99,53.306C243.99,52.824 244.172,52.397 244.536,52.024C244.9,51.652 245.327,51.468 245.818,51.472C246.309,51.477 246.736,51.661 247.099,52.024L248.928,53.853L248.928,26.858C248.928,26.34 249.101,25.915 249.446,25.583C249.792,25.252 250.228,25.086 250.755,25.086C251.274,25.086 251.706,25.261 252.051,25.611C252.397,25.96 252.569,26.394 252.569,26.913L252.569,53.881L254.426,52.024C254.799,51.652 255.226,51.466 255.708,51.466C256.19,51.466 256.617,51.652 256.99,52.024C257.353,52.397 257.535,52.824 257.535,53.306C257.535,53.788 257.353,54.211 256.99,54.575L252.105,59.46C251.732,59.832 251.285,60.018 250.763,60.018C250.241,60.018 249.793,59.832 249.421,59.46Z" style="fill:rgb(165,198,134);fill-rule:nonzero;"/>
                </g>
                <g transform="matrix(5.555556,0,0,5.555556,0,0)">
                    <path d="M261.915,80.547L261.915,80.547C261.915,81.455 261.179,82.191 260.271,82.191L19.177,82.191C18.27,82.191 17.533,81.455 17.533,80.547L17.533,80.547C17.533,79.64 18.27,78.904 19.177,78.904L260.271,78.904C261.179,78.904 261.915,79.64 261.915,80.547Z" style="fill:rgb(55,75,60);"/>
                </g>
                <g transform="matrix(-5.555547,-0.009918,0.009918,-5.555547,2785.081132,1309.452737)">
                    <path d="M249.421,134.535L244.549,129.65C244.177,129.286 243.99,128.863 243.99,128.381C243.99,127.899 244.172,127.472 244.536,127.099C244.9,126.727 245.327,126.543 245.818,126.548C246.309,126.552 246.736,126.736 247.099,127.099L248.928,128.928L248.928,101.933C248.928,101.415 249.101,100.99 249.446,100.658C249.792,100.327 250.228,100.161 250.755,100.161C251.274,100.161 251.706,100.336 252.051,100.686C252.397,101.035 252.569,101.47 252.569,101.988L252.569,128.956L254.426,127.099C254.799,126.727 255.226,126.541 255.708,126.541C256.19,126.541 256.617,126.727 256.99,127.099C257.353,127.472 257.535,127.899 257.535,128.381C257.535,128.863 257.353,129.286 256.99,129.65L252.105,134.535C251.732,134.907 251.285,135.093 250.763,135.093C250.241,135.093 249.793,134.907 249.421,134.535Z" style="fill:rgb(165,198,134);fill-rule:nonzero;"/>
                </g>
                <g transform="matrix(5.555556,0,0,5.555556,0,0)">
                    <path d="M220.33,117C220.33,117.442 220.506,117.866 220.818,118.179C221.131,118.491 221.555,118.667 221.997,118.667C222.439,118.667 222.863,118.491 223.175,118.179C223.488,117.866 223.663,117.442 223.663,117C223.663,116.558 223.488,116.134 223.175,115.822C222.863,115.509 222.439,115.334 221.997,115.334C221.555,115.334 221.131,115.509 220.818,115.822C220.506,116.134 220.33,116.558 220.33,117Z" style="fill:none;fill-rule:nonzero;stroke:rgb(55,75,60);stroke-width:2.67px;"/>
                </g>
                <g transform="matrix(5.555556,0,0,5.555556,0,0)">
                    <path d="M213.666,117C213.666,119.21 214.544,121.33 216.107,122.893C217.67,124.455 219.789,125.333 221.999,125.333C224.209,125.333 226.329,124.455 227.892,122.893C229.455,121.33 230.333,119.21 230.333,117C230.333,114.79 229.455,112.67 227.892,111.108C226.329,109.545 224.209,108.667 221.999,108.667C219.789,108.667 217.67,109.545 216.107,111.108C214.544,112.67 213.666,114.79 213.666,117Z" style="fill:none;fill-rule:nonzero;stroke:rgb(55,75,60);stroke-width:2.67px;"/>
                </g>
                <g transform="matrix(5.555556,0,0,5.555556,0,0)">
                    <path d="M207,117C207,118.97 207.388,120.92 208.142,122.74C208.896,124.56 210.001,126.214 211.393,127.607C212.786,128.999 214.44,130.104 216.26,130.858C218.08,131.612 220.03,132 222,132C223.97,132 225.92,131.612 227.74,130.858C229.56,130.104 231.214,128.999 232.607,127.607C233.999,126.214 235.104,124.56 235.858,122.74C236.612,120.92 237,118.97 237,117C237,115.03 236.612,113.08 235.858,111.26C235.104,109.44 233.999,107.786 232.607,106.393C231.214,105.001 229.56,103.896 227.74,103.142C225.92,102.388 223.97,102 222,102C220.03,102 218.08,102.388 216.26,103.142C214.44,103.896 212.786,105.001 211.393,106.393C210.001,107.786 208.896,109.44 208.142,111.26C207.388,113.08 207,115.03 207,117Z" style="fill:none;fill-rule:nonzero;stroke:rgb(55,75,60);stroke-width:2.67px;"/>
                </g>
                <g transform="matrix(5.555556,0,0,5.555556,0,0)">
                    <path d="M261.915,153.972L261.915,153.972C261.915,154.879 261.179,155.616 260.271,155.616L19.177,155.616C18.27,155.616 17.533,154.879 17.533,153.972L17.533,153.972C17.533,153.065 18.27,152.328 19.177,152.328L260.271,152.328C261.179,152.328 261.915,153.065 261.915,153.972Z" style="fill:rgb(55,75,60);"/>
                </g>
                <g transform="matrix(-5.555484,-0.028167,0.028167,-5.555484,2780.880181,2118.205307)">
                    <path d="M249.421,206.912L244.549,202.027C244.177,201.663 243.99,201.24 243.99,200.758C243.99,200.276 244.172,199.849 244.536,199.476C244.9,199.104 245.327,198.92 245.818,198.924C246.309,198.929 246.736,199.113 247.099,199.476L248.928,201.305L248.928,174.31C248.928,173.791 249.101,173.366 249.446,173.035C249.792,172.703 250.228,172.538 250.755,172.538C251.274,172.538 251.706,172.713 252.051,173.063C252.397,173.412 252.569,173.846 252.569,174.365L252.569,201.333L254.426,199.476C254.799,199.104 255.226,198.918 255.708,198.918C256.19,198.918 256.617,199.104 256.99,199.476C257.353,199.849 257.535,200.276 257.535,200.758C257.535,201.24 257.353,201.663 256.99,202.027L252.105,206.912C251.732,207.284 251.285,207.47 250.763,207.47C250.241,207.47 249.793,207.284 249.421,206.912Z" style="fill:rgb(165,198,134);fill-rule:nonzero;"/>
                </g>
            </g>
        </g>
        <g transform="matrix(11.337839,0,0,11.108784,-159.012415,-500.790615)">
            <path d="M201,118C199.424,118 197.864,117.69 196.408,117.087C194.952,116.483 193.629,115.6 192.515,114.485C191.4,113.371 190.517,112.048 189.913,110.592C189.31,109.136 189,107.576 189,106C189,104.424 189.31,102.864 189.913,101.408C190.517,99.952 191.4,98.629 192.515,97.515C193.629,96.4 194.952,95.516 196.408,94.913C197.864,94.31 199.424,94 201,94C204.183,94 207.235,95.264 209.485,97.515C211.736,99.765 213,102.817 213,106C213,109.183 211.736,112.235 209.485,114.485C207.235,116.736 204.183,118 201,118Z" style="fill:none;fill-rule:nonzero;stroke:rgb(55,75,60);stroke-width:3px;"/>
        </g>
        <g transform="matrix(11.337839,0,0,12.351841,-159.012415,-629.239437)">
            <path d="M205.27,109.348C203.55,111.367 199.594,111.094 197.71,109.746M197,103.333L196.986,103.333M205,103.333L204.986,103.333" style="fill:none;fill-rule:nonzero;stroke:rgb(55,75,60);stroke-width:3px;"/>
        </g>
        <g transform="matrix(0.460131,0,0,0.488253,251.724912,342.198171)">
            <g transform="matrix(395.666684,0,0,395.666684,2472.778947,826.795136)">
            </g>
            <text x="142.248px" y="826.795px" style="font-family:'Arial-BoldMT', 'Arial', sans-serif;font-weight:700;font-size:395.667px;">Mental Calm</text>
        </g>
        <g transform="matrix(0.460131,0,0,0.488253,252.080495,1085.830644)">
            <g transform="matrix(395.666684,0,0,395.666684,1878.312937,826.795136)">
            </g>
            <text x="142.248px" y="826.795px" style="font-family:'Arial-BoldMT', 'Arial', sans-serif;font-weight:700;font-size:395.667px;">Attention</text>
        </g>
        <g transform="matrix(0.460131,0,0,0.488253,251.636016,1766.61237)">
            <g transform="matrix(395.666684,0,0,395.666684,3286.136731,826.795136)">
            </g>
            <text x="142.248px" y="826.795px" style="font-family:'Arial-BoldMT', 'Arial', sans-serif;font-weight:700;font-size:395.667px;">Decision-Making</text>
        </g>
        <g transform="matrix(1.226429,0,0,1.272968,1971.41581,1929.657337)">
            <path d="M136,32L136,64C136,68.389 132.389,72 128,72C123.611,72 120,68.389 120,64L120,32C120,27.611 123.611,24 128,24C132.389,24 136,27.611 136,32ZM224,120L192,120C187.611,120 184,123.611 184,128C184,132.389 187.611,136 192,136L224,136C228.389,136 232,132.389 232,128C232,123.611 228.389,120 224,120ZM178.91,167.6C177.424,166.188 175.45,165.4 173.4,165.4C169.011,165.4 165.4,169.011 165.4,173.4C165.4,175.45 166.188,177.424 167.6,178.91L190.22,201.54C191.721,203.041 193.758,203.884 195.88,203.884C200.271,203.884 203.884,200.271 203.884,195.88C203.884,193.758 203.041,191.721 201.54,190.22L178.91,167.6ZM128,184C123.611,184 120,187.611 120,192L120,224C120,228.389 123.611,232 128,232C132.389,232 136,228.389 136,224L136,192C136,187.611 132.389,184 128,184ZM77.09,167.6L54.46,190.22C52.959,191.721 52.116,193.758 52.116,195.88C52.116,200.271 55.729,203.884 60.12,203.884C62.242,203.884 64.279,203.041 65.78,201.54L88.4,178.91C89.812,177.424 90.6,175.45 90.6,173.4C90.6,169.011 86.989,165.4 82.6,165.4C80.55,165.4 78.576,166.188 77.09,167.6ZM72,128C72,123.611 68.389,120 64,120L32,120C27.611,120 24,123.611 24,128C24,132.389 27.611,136 32,136L64,136C68.389,136 72,132.389 72,128ZM65.78,54.46C64.279,52.959 62.242,52.116 60.12,52.116C55.729,52.116 52.116,55.729 52.116,60.12C52.116,62.242 52.959,64.279 54.46,65.78L77.09,88.4C78.576,89.812 80.55,90.6 82.6,90.6C86.989,90.6 90.6,86.989 90.6,82.6C90.6,80.55 89.812,78.576 88.4,77.09L65.78,54.46Z" style="fill:rgb(55,75,60);fill-rule:nonzero;"/>
        </g>
    </g>
</svg>
