<?xml version="1.0" encoding="UTF-8" standalone="no"?>
<!DOCTYPE svg PUBLIC "-//W3C//DTD SVG 1.1//EN" "http://www.w3.org/Graphics/SVG/1.1/DTD/svg11.dtd">
<svg width="100%" height="100%" viewBox="0 0 1384 1162" version="1.1" xmlns="http://www.w3.org/2000/svg" xmlns:xlink="http://www.w3.org/1999/xlink" xml:space="preserve" xmlns:serif="http://www.serif.com/" style="fill-rule:evenodd;clip-rule:evenodd;stroke-linejoin:round;stroke-miterlimit:2;">
    <g transform="matrix(1,0,0,1,-772.265663,-485.457353)">
        <g transform="matrix(1,0,0,1,1463.93233,1066.012909)">
            <g transform="matrix(1,0,0,1,-691.666667,-580.555556)">
                <g transform="matrix(5.555556,0,0,5.555556,0,0)">
                    <path d="M248.4,15.586L248.4,192.875C248.4,201.477 241.416,208.461 232.814,208.461L15.586,208.461C6.984,208.461 0,201.477 0,192.875L0,15.586C0,6.984 6.984,0 15.586,0L232.814,0C241.416,0 248.4,6.984 248.4,15.586Z" style="fill:rgb(246,249,242);"/>
                </g>
                <g transform="matrix(5.555556,0,0,5.555556,0,0)">
                    <path d="M221.71,22.795L217.38,27.137C217.048,27.46 216.883,27.836 216.883,28.265C216.883,28.693 217.045,29.073 217.368,29.404C217.691,29.735 218.071,29.898 218.507,29.895C218.944,29.891 219.323,29.727 219.646,29.404L221.272,27.779L221.272,51.774C221.272,52.235 221.425,52.613 221.732,52.907C222.04,53.202 222.427,53.349 222.896,53.349C223.357,53.349 223.741,53.194 224.048,52.883C224.355,52.572 224.509,52.186 224.509,51.725L224.509,27.753L226.159,29.404C226.491,29.735 226.87,29.9 227.299,29.9C227.727,29.9 228.107,29.735 228.438,29.404C228.761,29.073 228.923,28.693 228.923,28.265C228.923,27.836 228.761,27.46 228.438,27.137L224.096,22.795C223.765,22.464 223.367,22.298 222.903,22.298C222.439,22.298 222.041,22.464 221.71,22.795Z" style="fill:rgb(165,198,134);fill-rule:nonzero;"/>
                </g>
                <g transform="matrix(5.555556,0,0,5.555556,0,0)">
                    <path d="M202.158,56.741C199.605,56.741 197.44,55.854 195.665,54.078C193.89,52.303 193.002,50.139 193.002,47.586C193.002,46.004 193.39,44.515 194.165,43.119C194.94,41.724 196.014,40.589 197.385,39.713L197.385,25.912C197.385,24.592 197.851,23.465 198.782,22.53C199.713,21.595 200.838,21.128 202.158,21.128C203.477,21.128 204.602,21.595 205.533,22.53C206.464,23.465 206.93,24.592 206.93,25.912L206.93,39.713C208.301,40.589 209.375,41.724 210.15,43.119C210.926,44.515 211.313,46.004 211.313,47.586C211.313,50.139 210.426,52.303 208.65,54.078C206.875,55.854 204.711,56.741 202.158,56.741ZM196.332,47.586L207.995,47.586C207.995,46.264 207.677,45.085 207.04,44.051C206.404,43.016 205.555,42.272 204.492,41.818L203.612,41.472L203.612,25.912C203.612,25.488 203.473,25.14 203.197,24.867C202.92,24.594 202.573,24.458 202.158,24.458C201.734,24.458 201.388,24.594 201.119,24.867C200.85,25.14 200.716,25.488 200.716,25.912L200.716,41.472L199.846,41.818C198.768,42.279 197.913,43.034 197.281,44.081C196.648,45.128 196.332,46.296 196.332,47.586Z" style="fill:rgb(55,75,60);fill-rule:nonzero;"/>
                </g>
                <g transform="matrix(5.555556,0,0,5.555556,0,0)">
                    <path d="M232.814,71.598C232.814,72.404 232.159,73.059 231.353,73.059L17.047,73.059C16.241,73.059 15.586,72.404 15.586,71.598C15.586,70.791 16.241,70.136 17.047,70.136L231.353,70.136C232.159,70.136 232.814,70.791 232.814,71.598Z" style="fill:rgb(55,75,60);"/>
                </g>
                <g transform="matrix(5.555556,0,0,5.555556,0,0)">
                    <path d="M221.71,89.528L217.38,93.87C217.048,94.194 216.883,94.57 216.883,94.998C216.883,95.427 217.045,95.806 217.368,96.138C217.691,96.468 218.071,96.632 218.507,96.628C218.944,96.624 219.323,96.461 219.646,96.138L221.272,94.512L221.272,118.507C221.272,118.968 221.425,119.346 221.732,119.641C222.04,119.935 222.427,120.083 222.896,120.083C223.357,120.083 223.741,119.927 224.048,119.616C224.355,119.305 224.509,118.92 224.509,118.458L224.509,94.487L226.159,96.138C226.491,96.468 226.87,96.634 227.299,96.634C227.727,96.634 228.107,96.468 228.438,96.138C228.761,95.806 228.923,95.427 228.923,94.998C228.923,94.57 228.761,94.194 228.438,93.87L224.096,89.528C223.765,89.197 223.367,89.032 222.903,89.032C222.439,89.032 222.041,89.197 221.71,89.528Z" style="fill:rgb(165,198,134);fill-rule:nonzero;"/>
                </g>
                <g transform="matrix(5.555556,0,0,5.555556,0,0)">
                    <path d="M198.667,117.126C198.211,117.126 197.777,117.043 197.363,116.877C196.949,116.711 196.582,116.465 196.261,116.139L186.532,106.373C185.679,105.526 185.047,104.55 184.636,103.446C184.225,102.342 184.02,101.183 184.02,99.968C184.02,97.429 184.846,95.254 186.5,93.443C188.154,91.632 190.203,90.726 192.645,90.726C193.797,90.726 194.889,90.95 195.919,91.398C196.95,91.847 197.867,92.477 198.672,93.288C199.458,92.477 200.365,91.847 201.394,91.399C202.422,90.95 203.512,90.726 204.662,90.726C207.111,90.726 209.167,91.632 210.83,93.443C212.493,95.254 213.324,97.418 213.324,99.933C213.324,101.148 213.114,102.307 212.694,103.41C212.273,104.514 211.649,105.489 210.82,106.336L201.054,116.139C200.728,116.465 200.363,116.711 199.958,116.877C199.553,117.043 199.122,117.126 198.667,117.126ZM200.137,98.498C200.33,98.498 200.51,98.55 200.675,98.653C200.84,98.757 200.982,98.889 201.101,99.049L203.592,102.793L210.339,102.793C210.528,102.335 210.67,101.867 210.763,101.391C210.856,100.915 210.902,100.43 210.902,99.936C210.908,98.087 210.315,96.49 209.124,95.142C207.932,93.795 206.448,93.121 204.67,93.121C203.829,93.121 203.024,93.297 202.255,93.648C201.485,93.999 200.813,94.483 200.238,95.101L199.258,96.154C199.174,96.238 199.089,96.307 199.003,96.361C198.917,96.415 198.806,96.443 198.67,96.443C198.541,96.443 198.425,96.417 198.321,96.366C198.217,96.314 198.127,96.243 198.049,96.154L197.069,95.101C196.487,94.488 195.812,94.007 195.043,93.66C194.274,93.312 193.475,93.139 192.645,93.139C190.881,93.139 189.404,93.809 188.216,95.15C187.027,96.492 186.432,98.085 186.432,99.932C186.432,100.431 186.479,100.921 186.573,101.401C186.667,101.881 186.807,102.345 186.992,102.793L194.315,102.793C194.51,102.793 194.697,102.84 194.877,102.933C195.056,103.026 195.195,103.149 195.292,103.3L196.867,105.702L198.993,99.321C199.079,99.086 199.226,98.89 199.434,98.733C199.642,98.576 199.876,98.498 200.137,98.498ZM200.477,102.228L198.314,108.609C198.231,108.845 198.083,109.041 197.873,109.198C197.662,109.354 197.432,109.432 197.183,109.432C196.978,109.432 196.795,109.381 196.636,109.278C196.476,109.176 196.348,109.044 196.251,108.881L193.752,105.137L188.703,105.137L197.892,114.291C198.004,114.406 198.115,114.487 198.225,114.532C198.334,114.578 198.462,114.6 198.609,114.6C198.755,114.6 198.883,114.578 198.993,114.532C199.102,114.487 199.212,114.406 199.321,114.291L208.604,105.137L203.028,105.137C202.823,105.137 202.641,105.086 202.481,104.983C202.321,104.88 202.181,104.751 202.06,104.594L200.477,102.228Z" style="fill:rgb(55,75,60);fill-rule:nonzero;"/>
                </g>
                <g transform="matrix(5.555556,0,0,5.555556,0,0)">
                    <path d="M232.814,136.863C232.814,137.67 232.159,138.324 231.353,138.324L17.047,138.324C16.241,138.324 15.586,137.67 15.586,136.863C15.586,136.057 16.241,135.402 17.047,135.402L231.353,135.402C232.159,135.402 232.814,136.057 232.814,136.863Z" style="fill:rgb(55,75,60);"/>
                </g>
                <g transform="matrix(145.744033,0,0,145.744033,853.865311,294.303824)">
                </g>
                <text x="113.901px" y="294.304px" style="font-family:'ArialRoundedMTBold', 'Arial Rounded MT Bold', sans-serif;font-size:145.744px;">R<tspan x="215.097px 301.703px " y="294.304px 294.304px ">el</tspan>axa<tspan x="586.715px 638.309px " y="294.304px 294.304px ">ti</tspan>on</text>
                <g transform="matrix(1,0,0,1,0,336.917778)">
                    <g transform="matrix(145.744033,0,0,145.744033,885.390998,294.303824)">
                    </g>
                    <text x="113.901px" y="294.304px" style="font-family:'ArialRoundedMTBold', 'Arial Rounded MT Bold', sans-serif;font-size:145.744px;">Inner Calm</text>
                </g>
                <g transform="matrix(1,0,0,1,0,673.835557)">
                    <g transform="matrix(145.744033,0,0,145.744033,664.995847,294.303824)">
                    </g>
                    <text x="113.901px" y="294.304px" style="font-family:'ArialRoundedMTBold', 'Arial Rounded MT Bold', sans-serif;font-size:145.744px;">T<tspan x="195.811px 282.418px " y="294.304px 294.304px ">en</tspan>sion</text>
                </g>
                <g transform="matrix(5.555556,0,0,5.555556,0,0)">
                    <path d="M221.71,183.922L217.38,179.579C217.048,179.256 216.883,178.88 216.883,178.451C216.883,178.023 217.045,177.643 217.368,177.312C217.691,176.981 218.071,176.818 218.507,176.822C218.944,176.826 219.323,176.989 219.646,177.312L221.272,178.938L221.272,154.943C221.272,154.481 221.425,154.104 221.732,153.809C222.04,153.514 222.427,153.367 222.896,153.367C223.357,153.367 223.741,153.522 224.048,153.834C224.355,154.144 224.509,154.53 224.509,154.991L224.509,178.963L226.159,177.312C226.491,176.981 226.87,176.816 227.299,176.816C227.727,176.816 228.107,176.981 228.438,177.312C228.761,177.643 228.923,178.023 228.923,178.451C228.923,178.88 228.761,179.256 228.438,179.579L224.096,183.922C223.765,184.252 223.367,184.418 222.903,184.418C222.439,184.418 222.041,184.252 221.71,183.922Z" style="fill:rgb(165,198,134);fill-rule:nonzero;"/>
                </g>
                <g transform="matrix(5.555556,0,0,5.555556,0,0)">
                    <path d="M189.567,178.862C188.367,178.862 187.418,179.21 186.72,179.907C186.021,180.603 185.106,181.105 183.974,181.411C183.674,181.495 183.407,181.44 183.172,181.245C182.938,181.05 182.82,180.783 182.82,180.444C182.82,180.111 182.931,179.817 183.151,179.562C183.371,179.308 183.646,179.11 183.974,178.969C184.844,178.595 185.638,178.093 186.357,177.465C187.076,176.837 188.145,176.523 189.567,176.523C190.417,176.523 191.142,176.666 191.742,176.953C192.342,177.24 192.888,177.556 193.381,177.903C193.874,178.249 194.374,178.566 194.881,178.852C195.388,179.139 195.975,179.283 196.644,179.283C197.318,179.283 197.906,179.139 198.411,178.852C198.915,178.566 199.414,178.249 199.906,177.903C200.399,177.556 200.946,177.24 201.546,176.953C202.147,176.666 202.873,176.523 203.725,176.523C205.146,176.523 206.204,176.837 206.9,177.465C207.596,178.093 208.39,178.595 209.283,178.969C209.611,179.11 209.891,179.303 210.123,179.549C210.355,179.795 210.471,180.096 210.471,180.453C210.471,180.791 210.348,181.057 210.102,181.249C209.856,181.441 209.583,181.495 209.283,181.411C208.151,181.105 207.242,180.603 206.554,179.907C205.867,179.21 204.924,178.862 203.725,178.862C203.037,178.862 202.435,179.005 201.918,179.292C201.401,179.579 200.895,179.894 200.4,180.238C199.904,180.581 199.362,180.897 198.773,181.184C198.184,181.47 197.474,181.614 196.645,181.614C195.815,181.614 195.107,181.47 194.519,181.184C193.932,180.897 193.39,180.581 192.893,180.238C192.397,179.894 191.89,179.579 191.374,179.292C190.857,179.005 190.255,178.862 189.567,178.862ZM189.567,172.658C188.367,172.658 187.418,173.007 186.72,173.706C186.021,174.405 185.106,174.908 183.974,175.215C183.674,175.299 183.407,175.244 183.172,175.049C182.938,174.854 182.82,174.587 182.82,174.248C182.82,173.914 182.931,173.619 183.151,173.362C183.371,173.105 183.646,172.906 183.974,172.765C184.844,172.39 185.638,171.89 186.357,171.265C187.076,170.639 188.145,170.327 189.567,170.327C190.417,170.327 191.142,170.47 191.742,170.757C192.342,171.044 192.888,171.359 193.381,171.702C193.874,172.046 194.374,172.361 194.881,172.648C195.388,172.935 195.975,173.078 196.644,173.078C197.318,173.078 197.906,172.935 198.411,172.648C198.915,172.361 199.414,172.046 199.906,171.702C200.399,171.359 200.946,171.044 201.546,170.757C202.147,170.47 202.873,170.327 203.725,170.327C205.146,170.327 206.204,170.639 206.9,171.265C207.596,171.89 208.39,172.39 209.283,172.765C209.611,172.906 209.891,173.099 210.123,173.345C210.355,173.591 210.471,173.892 210.471,174.248C210.471,174.564 210.343,174.82 210.089,175.015C209.835,175.21 209.566,175.265 209.283,175.181C208.151,174.829 207.242,174.32 206.554,173.655C205.867,172.99 204.924,172.658 203.725,172.658C203.037,172.658 202.44,172.802 201.934,173.091C201.427,173.379 200.921,173.696 200.414,174.042C199.908,174.387 199.36,174.703 198.772,174.989C198.184,175.275 197.475,175.417 196.646,175.417C195.816,175.417 195.108,175.275 194.519,174.989C193.931,174.703 193.389,174.387 192.894,174.042C192.399,173.696 191.892,173.379 191.374,173.091C190.856,172.802 190.254,172.658 189.567,172.658ZM189.567,166.461C188.367,166.461 187.418,166.811 186.72,167.51C186.021,168.209 185.106,168.712 183.974,169.018C183.674,169.103 183.407,169.047 183.172,168.853C182.938,168.658 182.82,168.391 182.82,168.052C182.82,167.718 182.936,167.433 183.168,167.196C183.4,166.959 183.668,166.772 183.974,166.637C184.844,166.302 185.638,165.801 186.357,165.133C187.076,164.464 188.145,164.13 189.567,164.13C190.417,164.13 191.142,164.274 191.742,164.561C192.342,164.847 192.888,165.163 193.381,165.506C193.874,165.85 194.374,166.165 194.881,166.452C195.388,166.739 195.975,166.882 196.644,166.882C197.318,166.882 197.906,166.739 198.411,166.452C198.915,166.165 199.414,165.85 199.906,165.506C200.399,165.163 200.946,164.847 201.546,164.561C202.147,164.274 202.873,164.13 203.725,164.13C205.146,164.13 206.204,164.464 206.9,165.133C207.596,165.801 208.39,166.302 209.283,166.637C209.611,166.772 209.891,166.959 210.123,167.196C210.355,167.433 210.471,167.718 210.471,168.052C210.471,168.391 210.348,168.658 210.102,168.853C209.856,169.047 209.583,169.103 209.283,169.018C208.151,168.712 207.242,168.209 206.554,167.51C205.867,166.811 204.924,166.461 203.725,166.461C203.037,166.461 202.435,166.605 201.918,166.894C201.401,167.182 200.894,167.499 200.398,167.843C199.901,168.188 199.359,168.504 198.772,168.791C198.184,169.078 197.476,169.221 196.646,169.221C195.817,169.221 195.108,169.078 194.519,168.792C193.931,168.506 193.389,168.191 192.894,167.846C192.399,167.5 191.892,167.183 191.374,166.894C190.856,166.606 190.254,166.461 189.567,166.461ZM189.567,160.265C188.367,160.265 187.418,160.615 186.72,161.314C186.021,162.013 185.106,162.516 183.974,162.822C183.674,162.906 183.407,162.851 183.172,162.656C182.938,162.461 182.82,162.194 182.82,161.855C182.82,161.522 182.931,161.227 183.151,160.969C183.371,160.712 183.646,160.513 183.974,160.372C184.844,159.998 185.638,159.496 186.357,158.868C187.076,158.24 188.145,157.926 189.567,157.926C190.417,157.926 191.142,158.071 191.742,158.36C192.342,158.65 192.888,158.966 193.381,159.31C193.874,159.654 194.374,159.969 194.881,160.256C195.388,160.542 195.975,160.686 196.644,160.686C197.318,160.686 197.906,160.542 198.411,160.256C198.915,159.969 199.414,159.654 199.908,159.31C200.402,158.966 200.949,158.65 201.548,158.36C202.147,158.071 202.873,157.926 203.725,157.926C205.146,157.926 206.204,158.24 206.9,158.868C207.596,159.496 208.39,159.998 209.283,160.372C209.611,160.513 209.891,160.706 210.123,160.952C210.355,161.198 210.471,161.499 210.471,161.855C210.471,162.194 210.348,162.461 210.102,162.656C209.856,162.851 209.583,162.906 209.283,162.822C208.151,162.516 207.242,162.013 206.554,161.314C205.867,160.615 204.924,160.265 203.725,160.265C203.037,160.265 202.435,160.409 201.918,160.697C201.401,160.986 200.894,161.302 200.398,161.647C199.901,161.992 199.359,162.308 198.772,162.595C198.184,162.881 197.476,163.025 196.646,163.025C195.817,163.025 195.108,162.882 194.519,162.596C193.931,162.31 193.389,161.994 192.894,161.649C192.399,161.304 191.892,160.987 191.374,160.698C190.856,160.409 190.254,160.265 189.567,160.265Z" style="fill:rgb(55,75,60);fill-rule:nonzero;"/>
                </g>
            </g>
        </g>
    </g>
</svg>
